<svg xmlns="http://www.w3.org/2000/svg" width="1920" height="1080" viewBox="0 0 1920 1080"><g transform="translate(-7751 -1671)"><g transform="translate(7751 1671)" fill="none" stroke="#191414" stroke-width="8"><rect width="1920" height="1080" rx="10" stroke="none"/><rect x="4" y="4" width="1912" height="1072" rx="6" fill="none"/></g><g transform="translate(9540.398 1691)"><g transform="translate(0 7)"><rect width="20" height="20" rx="1" transform="translate(-0.399)" stroke-width="4" stroke="#191414" stroke-linecap="round" stroke-linejoin="round" fill="none"/></g><g transform="translate(6.5)"><path d="M496,557.417v-1.708A1.709,1.709,0,0,1,497.708,554h17.083a1.709,1.709,0,0,1,1.708,1.708v17.083a1.709,1.709,0,0,1-1.708,1.708h-1.708" transform="translate(-496 -554)" fill="none" stroke="#191414" stroke-linecap="round" stroke-linejoin="round" stroke-width="4" stroke-dasharray="2 2"/></g></g><g transform="translate(9611 1691)"><g transform="translate(0 0.333)"><path d="M495,295.768,521.727,269.1" transform="translate(-495 -269.101)" fill="none" stroke="#191414" stroke-linecap="round" stroke-linejoin="round" stroke-width="4"/></g><path d="M495,269l26.727,26.67" transform="translate(-495 -269)" fill="none" stroke="#191414" stroke-linecap="round" stroke-linejoin="round" stroke-width="4"/></g><g transform="translate(9468.667 1704)"><path d="M238,226h27" transform="translate(-238 -226)" fill="none" stroke="#191414" stroke-linecap="round" stroke-linejoin="round" stroke-width="4"/></g><g transform="translate(7759 1679)" fill="none" stroke="#191414" stroke-width="3"><rect width="319" height="46" rx="2" stroke="none"/><rect x="1.5" y="1.5" width="316" height="43" rx="0.5" fill="none"/></g><g transform="translate(-273 1283)"><g transform="translate(8371.245 410)"><path d="M180,220v20.49" transform="translate(-180 -220)" fill="none" stroke="#191414" stroke-linecap="round" stroke-linejoin="round" stroke-width="4"/></g><g transform="translate(8361 420.245)"><path d="M174,226h20.49" transform="translate(-174 -226)" fill="none" stroke="#191414" stroke-linecap="round" stroke-linejoin="round" stroke-width="4"/></g></g><g transform="translate(8045 1695)"><g transform="translate(0 0.191)"><path d="M495,284.4l15.333-15.3" transform="translate(-495 -269.101)" fill="none" stroke="#191414" stroke-linecap="round" stroke-linejoin="round" stroke-width="4"/></g><path d="M495,269l15.333,15.3" transform="translate(-495 -269)" fill="none" stroke="#191414" stroke-linecap="round" stroke-linejoin="round" stroke-width="4"/></g><g transform="translate(7777.5 1755)"><path d="M383,344l-13.5-13.5L383,317" transform="translate(-369.5 -317)" fill="none" stroke="#191414" stroke-linecap="round" stroke-linejoin="round" stroke-width="4"/></g><g transform="translate(7832.019 1755)"><path d="M305.5,317,319,330.5,305.5,344" transform="translate(-305.5 -317)" fill="none" stroke="#191414" stroke-linecap="round" stroke-linejoin="round" stroke-width="4"/></g><g transform="translate(-528 2120)"><g transform="translate(8405.5 -361.486)"><path d="M448.831,421.616a.592.592,0,0,0-1.168-.2ZM437.743,429.8a10.06,10.06,0,0,1-10.059-10.059H426.5a11.242,11.242,0,0,0,11.243,11.243Zm-10.059-10.059a10.06,10.06,0,0,1,10.059-10.059V408.5A11.242,11.242,0,0,0,426.5,419.743Zm10.059-10.059a10.061,10.061,0,0,1,9.014,5.589l1.059-.528a11.244,11.244,0,0,0-10.074-6.245Zm9.92,11.736a10.062,10.062,0,0,1-9.92,8.382v1.183a11.246,11.246,0,0,0,11.088-9.369Z" transform="translate(-426.5 -408.5)"/></g><g transform="translate(8420.074 -361.578)"><path d="M445.51,408.422v6.694h-6.695" transform="translate(-438.815 -408.422)" fill="none" stroke="#000" stroke-linecap="round" stroke-linejoin="round" stroke-width="1"/></g></g><g transform="translate(7678 1397)"><path d="M301,387.211V362.572A1.573,1.573,0,0,1,302.572,361h18.87a1.573,1.573,0,0,1,1.572,1.572v24.639a.786.786,0,0,1-1.378.519l-9.63-11.006-9.63,11.006A.786.786,0,0,1,301,387.211Z" fill="none" stroke="#000" stroke-linejoin="round" stroke-width="3"/></g><g transform="translate(8023 1752)" fill="none" stroke="#191414" stroke-width="4"><rect width="1259" height="33" rx="3" stroke="none"/><rect x="2" y="2" width="1255" height="29" rx="1" fill="none"/></g><g transform="translate(1144 2260)"><g transform="translate(8478.5 -501.5)"><circle cx="1.235" cy="1.235" r="1.235" transform="translate(2.47) rotate(90)" fill="none" stroke="#191414" stroke-linecap="round" stroke-linejoin="round" stroke-width="3"/></g><g transform="translate(8478.5 -489.152)"><circle cx="1.235" cy="1.235" r="1.235" transform="translate(2.47) rotate(90)" fill="none" stroke="#191414" stroke-linecap="round" stroke-linejoin="round" stroke-width="3"/></g><g transform="translate(8478.5 -476.803)"><circle cx="1.235" cy="1.235" r="1.235" transform="translate(2.47) rotate(90)" fill="none" stroke="#191414" stroke-linecap="round" stroke-linejoin="round" stroke-width="3"/></g></g></g></svg>