<svg width="1000" height="1000" viewBox="0 0 1000 1000" fill="none" xmlns="http://www.w3.org/2000/svg">
<rect width="1000" height="1000" fill="white"/>
<path opacity="0.15" d="M169 748.7H831" stroke="#474747" stroke-width="6" stroke-miterlimit="10" stroke-linecap="round" stroke-linejoin="round"/>
<g opacity="0.15">
<path opacity="0.15" d="M732.5 748.699V423.399" stroke="#474747" stroke-width="6" stroke-miterlimit="10" stroke-linecap="round" stroke-linejoin="round"/>
<path opacity="0.15" d="M758.6 335.1C782.9 366.6 846 568 732.5 568C619 568 682.2 366.6 706.4 335.1C714.9 324.1 724.8 319.3 732.5 319.3C740.2 319.3 750.1 324.1 758.6 335.1Z" stroke="#474747" stroke-width="6" stroke-miterlimit="10" stroke-linecap="round" stroke-linejoin="round"/>
<path opacity="0.15" d="M732.5 473.5L757.7 448.3" stroke="#474747" stroke-width="6" stroke-miterlimit="10" stroke-linecap="round" stroke-linejoin="round"/>
<path opacity="0.15" d="M732.5 532.199L698.2 497.899" stroke="#474747" stroke-width="6" stroke-miterlimit="10" stroke-linecap="round" stroke-linejoin="round"/>
<path opacity="0.15" d="M815.7 606.5C842.983 606.5 865.1 584.383 865.1 557.1C865.1 529.817 842.983 507.7 815.7 507.7C788.417 507.7 766.3 529.817 766.3 557.1C766.3 584.383 788.417 606.5 815.7 606.5Z" fill="white"/>
<path opacity="0.15" d="M815.7 606.5C842.983 606.5 865.1 584.383 865.1 557.1C865.1 529.817 842.983 507.7 815.7 507.7C788.417 507.7 766.3 529.817 766.3 557.1C766.3 584.383 788.417 606.5 815.7 606.5Z" stroke="#474747" stroke-width="6" stroke-miterlimit="10" stroke-linecap="round" stroke-linejoin="round"/>
<path opacity="0.15" d="M732.5 640.299L823.9 548.899" stroke="#474747" stroke-width="6" stroke-miterlimit="10" stroke-linecap="round" stroke-linejoin="round"/>
<path opacity="0.15" d="M825.8 586.1H786.7" stroke="#474747" stroke-width="6" stroke-miterlimit="10" stroke-linecap="round" stroke-linejoin="round"/>
<path opacity="0.15" d="M806.3 566.499V548.899" stroke="#474747" stroke-width="6" stroke-miterlimit="10" stroke-linecap="round" stroke-linejoin="round"/>
<path opacity="0.15" d="M732.5 699.8L650.5 617.7" stroke="#474747" stroke-width="6" stroke-miterlimit="10" stroke-linecap="round" stroke-linejoin="round"/>
<path opacity="0.15" d="M696.212 669.205C714.862 655.137 714.478 623.181 695.354 597.83C676.23 572.479 645.609 563.333 626.959 577.401C608.31 591.469 608.694 623.425 627.818 648.776C646.942 674.127 677.563 683.274 696.212 669.205Z" stroke="#474747" stroke-width="6" stroke-miterlimit="10" stroke-linecap="round" stroke-linejoin="round"/>
<path opacity="0.15" d="M691.8 659V632.5" stroke="#474747" stroke-width="6" stroke-miterlimit="10" stroke-linecap="round" stroke-linejoin="round"/>
<path opacity="0.15" d="M650.5 638H670.8" stroke="#474747" stroke-width="6" stroke-miterlimit="10" stroke-linecap="round" stroke-linejoin="round"/>
<path opacity="0.15" d="M260.699 689.899H238.399V745.099H260.699V689.899Z" stroke="#474747" stroke-width="6" stroke-miterlimit="10" stroke-linecap="round" stroke-linejoin="round"/>
<path opacity="0.15" d="M491.3 689.899H469V745.099H491.3V689.899Z" stroke="#474747" stroke-width="6" stroke-miterlimit="10" stroke-linecap="round" stroke-linejoin="round"/>
<path opacity="0.15" d="M268.3 546.5H252.7V664.8H268.3V546.5Z" stroke="#474747" stroke-width="6" stroke-miterlimit="10" stroke-linecap="round" stroke-linejoin="round"/>
<path opacity="0.15" d="M476.9 546.5H461.3V664.8H476.9V546.5Z" stroke="#474747" stroke-width="6" stroke-miterlimit="10" stroke-linecap="round" stroke-linejoin="round"/>
<path opacity="0.15" d="M514.1 564.5H201.8V598H514.1V564.5Z" fill="white"/>
<path opacity="0.15" d="M514.1 564.5H201.8V598H514.1V564.5Z" stroke="#474747" stroke-width="6" stroke-miterlimit="10" stroke-linecap="round" stroke-linejoin="round"/>
<path opacity="0.15" d="M514.1 598H201.8V631.5H514.1V598Z" fill="white"/>
<path opacity="0.15" d="M514.1 598H201.8V631.5H514.1V598Z" stroke="#474747" stroke-width="6" stroke-miterlimit="10" stroke-linecap="round" stroke-linejoin="round"/>
<path opacity="0.15" d="M469.1 587C471.585 587 473.6 584.985 473.6 582.5C473.6 580.015 471.585 578 469.1 578C466.614 578 464.6 580.015 464.6 582.5C464.6 584.985 466.614 587 469.1 587Z" stroke="#474747" stroke-width="6" stroke-miterlimit="10" stroke-linecap="round" stroke-linejoin="round"/>
<path opacity="0.15" d="M469.1 619.2C471.585 619.2 473.6 617.185 473.6 614.7C473.6 612.215 471.585 610.2 469.1 610.2C466.614 610.2 464.6 612.215 464.6 614.7C464.6 617.185 466.614 619.2 469.1 619.2Z" stroke="#474747" stroke-width="6" stroke-miterlimit="10" stroke-linecap="round" stroke-linejoin="round"/>
<path opacity="0.15" d="M260.6 587C263.085 587 265.1 584.985 265.1 582.5C265.1 580.015 263.085 578 260.6 578C258.114 578 256.1 580.015 256.1 582.5C256.1 584.985 258.114 587 260.6 587Z" stroke="#474747" stroke-width="6" stroke-miterlimit="10" stroke-linecap="round" stroke-linejoin="round"/>
<path opacity="0.15" d="M260.6 619.2C263.085 619.2 265.1 617.185 265.1 614.7C265.1 612.215 263.085 610.2 260.6 610.2C258.114 610.2 256.1 612.215 256.1 614.7C256.1 617.185 258.114 619.2 260.6 619.2Z" stroke="#474747" stroke-width="6" stroke-miterlimit="10" stroke-linecap="round" stroke-linejoin="round"/>
<path opacity="0.15" d="M539.3 664.8H185.8V690H539.3V664.8Z" stroke="#474747" stroke-width="6" stroke-miterlimit="10" stroke-linecap="round" stroke-linejoin="round"/>
</g>
<path d="M422 712.6L426 741.2C426.6 745.5 430.6 748.7 435.4 748.7H563.6C568.4 748.7 572.4 745.5 573 741.2L577 712.6H422Z" fill="#D6D6D4"/>
<path d="M560.7 748.7L570 746.3L576.8 712.6H422L423.5 723.6H551.3C551.4 723.6 551.4 723.6 551.5 723.6C569.8 723.6 560.7 748.7 560.7 748.7Z" fill="#BABABA"/>
<path d="M592.3 702.899L627.3 423.399H371.5L406.5 702.899C407.2 708.399 412 712.599 417.7 712.599H581.2C586.9 712.599 591.6 708.499 592.3 702.899Z" fill="#5EB173"/>
<path opacity="0.34" d="M492.301 652.2C489.801 652.2 487.901 650.9 487.201 650.4C485.001 648.6 483.701 645.6 483.601 642C483.401 637.6 485.001 633.3 487.801 630.6C488.601 629.9 490.901 627.6 493.901 627.6C494.201 627.6 494.501 627.6 494.801 627.7C496.801 628 498.601 629.3 500.001 631.5C502.201 634.8 502.901 639.3 502.001 643.1C500.901 647.5 497.201 652.2 492.501 652.3L492.301 652.2ZM493.301 638.4C492.401 640.5 492.601 641.8 492.901 642.1C492.901 642.1 493.001 642.1 493.001 642.2C493.101 642.1 493.301 641.8 493.501 641.3C493.801 640.3 493.601 639.2 493.301 638.4Z" fill="#60A06C"/>
<path opacity="0.34" d="M503.901 664.599C502.601 664.599 501.301 664.199 500.301 663.499C498.101 661.999 498.201 659.999 498.801 652.699C499.201 648.099 499.801 640.999 500.301 629.999C500.301 629.399 500.401 628.899 500.401 628.299C500.301 628.299 500.301 628.299 500.201 628.299C500.001 628.299 499.701 628.299 499.501 628.299C498.701 628.399 497.901 628.399 497.101 628.399C496.201 628.399 495.401 628.499 494.601 628.599C494.301 628.599 494.001 628.699 493.701 628.699C493.101 628.799 492.601 628.799 492.201 628.799C491.301 628.799 490.601 628.499 490.001 627.899C487.901 625.799 490.201 621.299 491.901 619.599C493.301 618.299 495.201 617.599 497.501 617.599C498.801 617.599 500.301 617.799 502.101 618.199C503.201 614.999 504.801 612.699 506.801 611.299C507.601 610.699 509.801 609.199 512.701 609.199C513.101 609.199 513.501 609.199 513.901 609.299C514.501 609.399 516.401 609.699 518.001 611.199C519.501 612.699 519.901 614.699 519.901 616.099C520.701 615.799 521.501 615.599 522.501 615.599C522.901 615.599 523.201 615.599 523.601 615.699C524.201 615.799 525.901 615.999 527.301 617.499C529.601 619.799 529.001 623.099 528.901 623.699L528.501 625.399C528.801 625.299 529.101 625.099 529.301 624.899C529.901 624.299 530.301 623.399 530.401 622.099L530.701 617.999L535.801 622.799L536.001 623.099C536.901 624.899 536.301 627.199 534.201 629.799C532.701 631.699 529.801 632.599 525.401 632.599C524.101 632.599 522.601 632.499 521.001 632.299C520.401 637.199 520.501 642.599 520.501 642.599C520.601 644.599 520.601 646.499 520.701 648.099C521.001 656.999 521.101 660.599 518.301 662.699C517.301 663.399 516.001 663.799 514.701 663.799C513.501 663.799 512.401 663.499 511.401 662.799C510.401 662.099 509.901 661.399 509.701 659.999C509.301 661.199 508.601 662.099 507.601 662.899C506.801 664.099 505.401 664.599 503.901 664.599ZM510.701 630.499C510.301 635.499 510.401 640.299 510.401 640.299C510.501 642.599 510.501 644.699 510.601 646.599C510.601 647.399 510.701 648.099 510.701 648.799C511.001 645.099 511.301 640.299 511.601 633.899C511.601 632.799 511.701 631.799 511.801 630.799C511.401 630.699 511.101 630.599 510.701 630.499ZM523.601 625.599C524.801 625.799 525.801 625.999 526.601 625.999C526.901 625.999 527.201 625.999 527.501 625.899L526.201 625.199C525.801 624.999 525.401 624.899 525.101 624.899C525.001 624.899 524.901 624.899 524.801 624.899C524.701 624.899 524.101 625.099 523.601 625.599ZM513.801 622.299C514.301 621.099 515.001 619.999 515.701 619.199C515.601 619.199 515.601 619.199 515.501 619.199C515.401 619.199 515.201 619.199 515.101 619.199C515.101 619.199 514.101 619.399 513.101 620.499C512.901 620.699 512.601 621.099 512.301 621.799C512.501 621.799 513.501 622.199 513.801 622.299Z" fill="#60A06C"/>
<path opacity="0.34" d="M526.501 654.699C524.201 654.699 522.201 653.999 520.901 652.699C519.001 650.799 518.301 647.299 519.201 643.299C520.101 638.899 523.001 632.999 528.301 630.799C528.801 630.599 530.601 629.899 532.701 629.899C534.601 629.899 536.201 630.499 537.501 631.499C540.001 633.599 540.401 637.199 539.701 639.699C539.001 642.299 537.101 643.999 534.901 645.099C535.101 645.399 535.401 645.799 535.401 646.499C535.601 647.999 534.801 650.399 533.101 652.099C531.601 653.699 529.101 654.699 526.501 654.699ZM531.601 637.799C531.301 637.899 531.001 638.099 530.601 638.399C531.001 638.199 531.301 637.999 531.601 637.799Z" fill="#60A06C"/>
<path opacity="0.34" d="M542.601 655.1C540.301 655.1 538.001 654.3 536.701 652.8C534.801 650.8 534.201 647.6 534.901 643.8C535.901 639 538.901 634.9 542.501 633.4C543.801 632.9 545.301 632.6 546.701 632.6C549.001 632.6 550.801 633.3 552.001 634.7C554.201 637.2 553.401 640.7 553.101 641.7C552.501 643.8 551.101 645.4 549.401 646.5C549.701 646.8 550.001 647.3 550.001 648C550.101 649.4 549.401 651.7 547.801 653.1C546.601 654.4 544.701 655.1 542.601 655.1Z" fill="#60A06C"/>
<path opacity="0.34" d="M469.401 662.999C467.801 662.999 466.301 662.799 464.801 662.299C459.801 660.799 455.801 656.699 453.501 650.799C451.001 644.399 451.801 636.299 455.401 628.999C453.901 629.299 452.601 630.099 451.401 630.799C450.101 631.599 449.001 632.199 447.801 632.199C447.101 632.199 446.501 631.999 445.901 631.599C444.801 630.699 444.201 629.099 444.301 627.099C444.401 624.699 445.501 621.399 448.201 619.899C449.201 619.299 450.401 618.999 451.701 618.999C454.301 618.999 457.301 620.199 460.401 621.599C463.401 618.199 466.901 615.899 470.501 614.699C472.501 614.099 474.501 613.699 476.201 613.699C478.801 613.699 480.901 614.499 482.201 615.999C485.201 619.399 483.801 625.499 480.701 629.099C479.201 630.799 476.401 632.899 471.401 633.199C471.101 633.199 470.901 633.199 470.601 633.199C468.701 633.199 467.101 632.799 465.301 632.199C464.801 632.099 464.401 631.899 464.001 631.799C462.101 638.499 463.001 645.699 466.201 648.399C467.201 649.199 468.901 650.099 470.701 650.099C471.101 650.099 471.501 650.099 471.801 649.999C471.901 649.999 474.601 649.299 475.101 647.199C475.401 646.199 475.201 644.899 474.601 644.199C474.201 643.699 473.601 643.499 473.001 643.199C472.401 642.999 470.801 642.299 471.001 640.599C471.201 638.699 473.601 637.799 475.701 637.799C476.301 637.799 476.901 637.899 477.501 637.999C482.101 639.199 485.501 645.699 484.401 651.399C483.501 656.199 479.901 658.799 478.701 659.699C476.101 661.999 472.801 662.999 469.401 662.999ZM467.501 625.199C468.701 625.799 469.501 626.099 470.301 626.099C470.501 626.099 470.701 626.099 470.901 626.099C472.601 625.899 474.601 624.899 475.101 623.299C475.401 622.499 475.301 621.699 475.101 621.599C475.101 621.599 474.801 621.399 474.301 621.399C473.101 621.399 471.601 621.899 470.601 622.499L470.501 622.599C469.401 623.199 468.401 624.099 467.501 625.199Z" fill="#60A06C"/>
<path d="M371.5 423.399L374.2 445.399H587C595.1 445.399 601.4 452.499 600.4 460.599L578.2 690.599C577.3 699.399 570.7 706.599 562 708.199L537 712.699H572.6H581.1C586.8 712.699 591.6 708.599 592.3 702.999L627.3 423.499H371.5V423.399Z" fill="#60A06C"/>
<path d="M422 712.6L426 741.2C426.6 745.5 430.6 748.7 435.4 748.7H563.6C568.4 748.7 572.4 745.5 573 741.2L577 712.6H422Z" stroke="#474747" stroke-width="6" stroke-miterlimit="10" stroke-linecap="round" stroke-linejoin="round"/>
<path d="M592.3 702.899L627.3 423.399H371.5L406.5 702.899C407.2 708.399 412 712.599 417.7 712.599H581.2C586.9 712.599 591.6 708.499 592.3 702.899Z" stroke="#474747" stroke-width="6" stroke-miterlimit="10" stroke-linecap="round" stroke-linejoin="round"/>
<path d="M632.8 423.4C543.9 423.4 454.9 423.4 366 423.4C357.3 423.5 358.5 418.8 361.5 409.9C363.3 404.6 363.3 398.9 361.5 393.7C358.5 384.7 357.3 380.1 366 380.2C454.9 380.2 543.9 380.2 632.8 380.2C641.5 380.1 640.3 384.8 637.3 393.7C635.5 399 635.5 404.7 637.3 409.9C640.3 418.8 641.5 423.5 632.8 423.4Z" fill="#646464"/>
<path d="M637.3 393.599C639.2 387.799 640.4 383.799 638.7 381.699C638.3 382.999 637.8 384.499 637.3 386.099C636 389.899 635.7 393.999 636.2 397.999C636.5 396.499 636.8 395.099 637.3 393.599Z" fill="#7C7C7C"/>
<path d="M362.6 397.999C363.2 393.999 362.9 389.999 361.5 386.099C361 384.499 360.5 383.099 360.1 381.699C358.4 383.799 359.5 387.799 361.5 393.599C362 395.099 362.4 396.499 362.6 397.999Z" fill="#7C7C7C"/>
<path d="M638.701 414.199C637.701 415.299 635.901 415.899 632.801 415.899C543.901 415.899 454.901 415.899 366.001 415.899C362.901 415.899 361.101 415.399 360.101 414.199C358.401 420.299 358.801 423.399 366.001 423.399C454.901 423.399 543.901 423.399 632.801 423.399C640.001 423.499 640.401 420.299 638.701 414.199Z" fill="#7C7C7C"/>
<path d="M637.3 409.899C637.1 409.399 637 408.899 636.9 408.399C635.6 413.099 635.7 418.099 637.2 422.799C640.9 421.299 639.6 416.899 637.3 409.899Z" fill="#646464"/>
<path d="M362.9 403.5C363.9 403.1 367.8 393.4 373.8 393.4C462.7 393.4 538.4 393.4 627.3 393.4C634.5 393.4 635.8 408 636.9 408.4C636.9 408.3 637.3 393.7 637.3 393.6C640.3 384.6 641.5 380 632.8 380.1C544 380.1 455.1 380.1 366.3 380.1C357.3 379.9 358.5 384.6 361.5 393.6C361.6 393.8 362.8 403.4 362.9 403.5Z" fill="#646464"/>
<path d="M361.7 422.799C363.2 418.099 363.3 413.099 362 408.399C361.9 408.899 361.7 409.399 361.6 409.899C359.2 416.899 357.9 421.299 361.7 422.799Z" fill="#646464"/>
<path d="M632.8 423.4C543.9 423.4 454.9 423.4 366 423.4C357.3 423.5 358.5 418.8 361.5 409.9C363.3 404.6 363.3 398.9 361.5 393.7C358.5 384.7 357.3 380.1 366 380.2C454.9 380.2 543.9 380.2 632.8 380.2C641.5 380.1 640.3 384.8 637.3 393.7C635.5 399 635.5 404.7 637.3 409.9C640.3 418.8 641.5 423.5 632.8 423.4Z" stroke="#474747" stroke-width="6" stroke-miterlimit="10" stroke-linecap="round" stroke-linejoin="round"/>
<path d="M625.101 380.1H373.801L376.301 371.3C380.201 357.3 393.601 347.6 408.901 347.6H590.001C605.301 347.6 618.601 357.3 622.601 371.3L625.101 380.1Z" fill="#D6D6D4"/>
<path d="M625.101 380.1H373.801L376.301 371.3C380.201 357.3 393.601 347.6 408.901 347.6H590.001C605.301 347.6 618.601 357.3 622.601 371.3L625.101 380.1Z" fill="#D6D6D4"/>
<path d="M426.5 358L598 357.9C610.4 357.9 618 366.8 621.5 367.9C615.4 358.8 601.9 347.6 590.1 347.6H408.8C393.5 347.6 380.2 357.3 376.2 371.3L373.7 380.1H395.5C400.8 368.5 412.9 358 426.5 358Z" fill="white"/>
<path d="M625.101 380.1H373.801L376.301 371.3C380.201 357.3 393.601 347.6 408.901 347.6H590.001C605.301 347.6 618.601 357.3 622.601 371.3L625.101 380.1Z" stroke="#474747" stroke-width="6" stroke-miterlimit="10" stroke-linecap="round" stroke-linejoin="round"/>
<path d="M575.6 347.599H507V341.199C507 333.799 513 327.699 520.5 327.699H562.2C569.6 327.699 575.7 333.699 575.7 341.199V347.599H575.6Z" fill="#D6D6D4"/>
<path d="M575.6 347.599H507V341.199C507 333.799 513 327.699 520.5 327.699H562.2C569.6 327.699 575.7 333.699 575.7 341.199V347.599H575.6Z" fill="#D6D6D4"/>
<path d="M507.1 347.4C507.1 340.3 512.8 334.6 519.9 334.6H562.9C569.4 334.6 574.8 339.5 575.6 345.8V340.6C575.6 333.5 569.9 327.8 562.8 327.8H519.8C512.7 327.8 507 333.5 507 340.6V347.6H507.1V347.4Z" fill="white"/>
<path d="M491.301 582.4C480.701 582.4 461.501 574.9 455.401 554.8C449.401 538.4 452.001 519.1 462.101 504.6C469.501 494 479.601 488 489.801 488C492.901 488 496.001 488.6 499.001 489.7L499.101 489.8L499.201 489.9C501.301 491.1 502.501 492.5 502.901 494.2C503.501 497.1 501.601 499.8 499.101 503.2C494.101 510.1 487.301 519.5 494.001 537C501.801 557.2 501.801 576.4 497.001 581C496.001 581.9 494.001 582.4 491.301 582.4Z" fill="#60A06C"/>
<path d="M575.6 347.599H507V341.199C507 333.799 513 327.699 520.5 327.699H562.2C569.6 327.699 575.7 333.699 575.7 341.199V347.599H575.6Z" stroke="#474747" stroke-width="6" stroke-miterlimit="10" stroke-linecap="round" stroke-linejoin="round"/>
<path d="M518.8 582.099C514.9 582.099 511.3 580.599 508.8 577.999C506.7 575.699 505.6 572.799 505.8 569.699C506.3 561.699 503.6 554.099 501 546.699C498.6 539.999 496.3 533.599 496.3 526.999C496.2 502.599 512.6 494.899 514.6 494.099C515.9 493.299 517.4 492.899 519 492.899C525.5 492.899 533.5 499.299 539.3 509.199C543.2 515.799 554.7 539.499 539.6 566.699C534.1 576.499 526.6 582.099 518.8 582.099Z" fill="#60A06C"/>
<path d="M499.3 488.5C511.1 495.2 481.2 503.4 493.2 534.6C501.4 555.9 500.2 573.1 496.7 576.4C493.2 579.7 465.8 575.8 458.2 551.2C445.8 517.4 472.8 478.6 499.3 488.5Z" fill="#F6F9E4"/>
<path d="M516.5 492.9C516.5 492.9 499.2 499.7 499.3 524.1C499.3 537.7 509.8 551.4 508.8 566.9C508.1 577.7 526.6 584.9 538.9 562.8C560.4 523.8 528.4 485.3 516.5 492.9Z" fill="#F6F9E4"/>
<path d="M488.2 629.999C483.6 634.399 483.4 643.499 487.5 646.799C487.8 646.999 489.3 648.299 491.5 648.199C495.3 648.099 498.2 643.899 499.1 640.499C500.5 635.099 497.6 628.299 493.6 627.599C491.1 627.199 488.9 629.299 488.2 629.999ZM494.3 639.899C494.2 640.199 493.6 641.999 492.2 642.199C491.3 642.299 490.6 641.699 490.5 641.599C489.3 640.499 489.4 637.999 490.6 635.299C491.4 634.099 492 633.799 492.4 633.899C493.8 633.899 495.3 637.299 494.3 639.899Z" fill="#F6F9E4"/>
<path d="M500.4 659.899C498.3 658.499 500.1 655.299 501.3 628.099C501.6 620.599 503.2 613.799 507.1 611.099C507.9 610.599 510.1 608.999 512.8 609.399C513.4 609.499 514.7 609.699 515.7 610.799C517.6 612.699 517 615.599 516.9 615.799C516.3 615.499 515.2 614.999 513.8 615.199C513.8 615.199 512.2 615.499 510.7 617.099C506.9 621.199 507.3 638.399 507.3 638.399C507.7 652.699 508.4 657.699 505.6 659.699C504.3 660.799 502 660.899 500.4 659.899Z" fill="#F6F9E4"/>
<path d="M511.8 659.599C510 658.399 511.5 655.599 512.6 632.099C512.9 625.599 514.3 619.699 517.6 617.399C518.3 616.899 520.2 615.599 522.5 615.999C523 616.099 524.1 616.299 525.1 617.199C526.7 618.799 526.2 621.299 526.1 621.599C525.6 621.299 524.6 620.899 523.4 621.099C523.4 621.099 522 621.299 520.7 622.699C517.4 626.299 517.8 641.099 517.8 641.099C518.1 653.499 518.7 657.799 516.3 659.499C515.1 660.399 513.2 660.499 511.8 659.599Z" fill="#F6F9E4"/>
<path d="M528.6 646.399C527.7 646.599 526.5 646.599 525.6 645.999C523.5 644.499 524.2 639.199 526.8 636.099C527.2 635.699 529.5 633.099 531.6 633.799C532.2 633.999 533 634.599 533 635.299C533.1 636.999 529.6 638.899 526.5 639.099C524.8 639.199 523.4 638.799 522.6 638.499C521.7 639.799 521.8 640.599 521.9 640.899C522.5 642.799 526.8 642.699 527.4 642.599C527.8 642.599 535.3 642.099 536.7 636.999C537.2 635.099 536.9 632.399 535.1 630.799C532.5 628.599 528.5 630.099 528 630.399C520.9 633.199 517.7 645.399 521.3 648.999C523.4 651.099 528.3 650.799 530.7 648.499C532.3 646.899 532.7 644.399 532.2 644.099C531.9 644.099 530.9 645.899 528.6 646.399Z" fill="#F6F9E4"/>
<path d="M543.7 647.699C542.9 647.899 541.8 647.899 541.1 647.399C539.2 645.999 540 641.299 542.2 638.599C542.5 638.199 544.2 636.099 545.6 636.599C546.3 636.799 546.8 637.599 546.8 638.299C546.7 639.899 544 641.099 542 641.299C540.5 641.499 539.2 641.099 538.5 640.799C537.7 641.899 537.8 642.699 537.9 642.899C538.4 644.399 541.3 644.599 542.8 644.399C545.4 644.199 549.3 642.599 550.3 639.099C550.4 638.699 551.2 635.799 549.6 633.999C547.8 631.999 544.4 632.399 542.3 633.199C536.4 635.599 533.7 645.899 537.1 649.399C539.1 651.399 543.5 651.599 545.6 649.699C547.1 648.399 547.4 646.099 547 645.799C546.6 645.599 545.7 647.199 543.7 647.699Z" fill="#F6F9E4"/>
<path d="M531.6 620.4C531.5 621.7 531.1 623.3 529.9 624.5C523 631.1 499.2 612.6 492.5 619.2C491 620.6 489.8 623.8 490.6 624.7C491 625.1 491.7 624.9 493.5 624.7C495.1 624.5 496.8 624.6 498.4 624.4C502.4 624 508.5 626.4 514.8 627.8C516.4 628.1 529 630.7 532 626.9C532.4 626.4 534.3 623.9 533.5 622.3C532.8 621.6 532.2 621 531.6 620.4Z" fill="#F6F9E4"/>
<path d="M461.6 622.9C465.9 625 467.3 626.399 470.1 626.099C472.3 625.799 475.2 624.5 476 621.9C476.3 620.9 476.5 619.1 475.6 618.2C474.2 616.7 470.7 617.7 468.7 618.7C468.7 618.7 468.6 618.799 468.5 618.799C459.8 623.499 457.1 642.3 464.1 648.2C465.9 649.7 468.7 650.9 471.5 650.2C471.9 650.1 475.4 649.2 476.3 646C476.7 644.4 476.4 642.5 475.4 641.2C474.1 639.7 472.2 639.599 472.3 639.099C472.3 638.599 474.4 637.799 476.3 638.299C479.9 639.199 482.6 644.7 481.7 649.4C480.9 653.4 477.8 655.7 476.8 656.4C473.2 659 468.5 659.6 464.5 658.4C457.7 656.3 455.1 649.499 454.5 648.099C449.6 635.499 458.8 618.3 470.3 614.7C471.1 614.4 477.3 612.5 479.9 615.4C482.1 617.9 480.9 622.999 478.4 625.799C475.6 628.999 471.6 629.199 470.5 629.299C468.5 629.399 467 629 465 628.4C459.9 627 459.6 625.4 456.8 624.9C451.4 624.1 448 629.3 446.2 628C444.6 626.8 445.3 621.299 448.3 619.599C451.2 617.899 456 620.2 461.6 622.9Z" fill="#F6F9E4"/>
<path d="M576.7 202.399C568.9 213.299 560.3 215.999 553.7 228.699C551.9 232.199 546.6 242.399 548.2 254.699C550.3 270.899 562.5 275.099 563.7 289.699C564.2 296.299 562.4 304.299 555.7 313.699" stroke="#474747" stroke-width="6" stroke-miterlimit="10" stroke-linecap="round" stroke-linejoin="round"/>
<path d="M601.7 151.1C607.8 176.4 603.4 192 598.2 201.6C588.7 219.1 571.4 225.9 570.2 243.5C569.6 251.8 572.9 258.8 575.6 263.2" stroke="#474747" stroke-width="6" stroke-miterlimit="10" stroke-linecap="round" stroke-linejoin="round"/>
<path d="M544.4 211.1C544.4 211.1 532.4 225.1 532.4 237.8" stroke="#474747" stroke-width="6" stroke-miterlimit="10" stroke-linecap="round" stroke-linejoin="round"/>
</svg>
