<svg width="1000" height="1000" viewBox="0 0 1000 1000" fill="none" xmlns="http://www.w3.org/2000/svg">
<path d="M1000 0H0V1000H1000V0Z" fill="#5E5D60"/>
<path d="M507.3 658.4C562.307 658.4 606.9 648.505 606.9 636.3C606.9 624.094 562.307 614.2 507.3 614.2C452.292 614.2 407.7 624.094 407.7 636.3C407.7 648.505 452.292 658.4 507.3 658.4Z" fill="#4C3142"/>
<path d="M429.7 403.1V627.1C429.7 636.6 459.2 644.2 495.7 644.2C532.2 644.2 561.7 636.5 561.7 627.1V403.1H429.7Z" fill="#F04E64"/>
<path d="M429.7 403.1V627.1C429.7 636.6 459.2 644.2 495.7 644.2C532.2 644.2 561.7 636.5 561.7 627.1V403.1H429.7Z" fill="#F04E64"/>
<path opacity="0.26" d="M481.9 523.7C492.117 523.7 500.4 515.417 500.4 505.2C500.4 494.982 492.117 486.7 481.9 486.7C471.683 486.7 463.4 494.982 463.4 505.2C463.4 515.417 471.683 523.7 481.9 523.7Z" fill="#F1A899"/>
<path opacity="0.15" d="M488.8 535.1C495.096 535.1 500.2 529.996 500.2 523.7C500.2 517.404 495.096 512.3 488.8 512.3C482.504 512.3 477.4 517.404 477.4 523.7C477.4 529.996 482.504 535.1 488.8 535.1Z" fill="#F1A899"/>
<path opacity="0.15" d="M528.3 526C534.596 526 539.7 520.896 539.7 514.6C539.7 508.304 534.596 503.2 528.3 503.2C522.004 503.2 516.9 508.304 516.9 514.6C516.9 520.896 522.004 526 528.3 526Z" fill="#F1A899"/>
<path opacity="0.15" d="M533.7 606C539.996 606 545.1 600.896 545.1 594.6C545.1 588.304 539.996 583.2 533.7 583.2C527.404 583.2 522.3 588.304 522.3 594.6C522.3 600.896 527.404 606 533.7 606Z" fill="#F1A899"/>
<path opacity="0.15" d="M483.1 632.7C489.396 632.7 494.5 627.596 494.5 621.3C494.5 615.004 489.396 609.9 483.1 609.9C476.804 609.9 471.7 615.004 471.7 621.3C471.7 627.596 476.804 632.7 483.1 632.7Z" fill="#F1A899"/>
<path opacity="0.15" d="M475.5 450.4C481.796 450.4 486.9 445.296 486.9 439C486.9 432.704 481.796 427.6 475.5 427.6C469.204 427.6 464.1 432.704 464.1 439C464.1 445.296 469.204 450.4 475.5 450.4Z" fill="#F1A899"/>
<path opacity="0.15" d="M541.5 465.6C547.796 465.6 552.9 460.496 552.9 454.2C552.9 447.904 547.796 442.8 541.5 442.8C535.204 442.8 530.1 447.904 530.1 454.2C530.1 460.496 535.204 465.6 541.5 465.6Z" fill="#F1A899"/>
<path opacity="0.15" d="M477.4 590.7C481.542 590.7 484.9 587.342 484.9 583.2C484.9 579.058 481.542 575.7 477.4 575.7C473.258 575.7 469.9 579.058 469.9 583.2C469.9 587.342 473.258 590.7 477.4 590.7Z" fill="#F1A899"/>
<path opacity="0.15" d="M440.8 545.4C444.942 545.4 448.3 542.042 448.3 537.9C448.3 533.758 444.942 530.4 440.8 530.4C436.658 530.4 433.3 533.758 433.3 537.9C433.3 542.042 436.658 545.4 440.8 545.4Z" fill="#F1A899"/>
<path d="M541.5 403.1V639.4C553.9 636.3 561.7 631.9 561.7 627.1V403.1H541.5Z" fill="#AF3457"/>
<path d="M429.4 403.1V627.1C429.4 636.6 458.9 644.2 495.4 644.2C531.9 644.2 561.4 636.5 561.4 627.1V403.1H429.4Z" stroke="#4C3142" stroke-width="8" stroke-miterlimit="10" stroke-linecap="round" stroke-linejoin="round"/>
<path d="M495.7 420.6C532.151 420.6 561.7 412.944 561.7 403.5C561.7 394.056 532.151 386.4 495.7 386.4C459.249 386.4 429.7 394.056 429.7 403.5C429.7 412.944 459.249 420.6 495.7 420.6Z" fill="#F1A899"/>
<path d="M495.7 394.4C526.8 394.4 552.9 400 559.9 407.5C561.1 406.2 561.7 404.9 561.7 403.5C561.7 394 532.2 386.4 495.7 386.4C459.2 386.4 429.7 394.1 429.7 403.5C429.7 404.9 430.3 406.2 431.5 407.5C438.5 400 464.6 394.4 495.7 394.4Z" fill="#F9CCC5"/>
<path d="M559.2 398.8C551.3 406 525.9 411.2 495.7 411.2C465.5 411.2 440.1 405.9 432.2 398.8C430.6 400.3 429.7 401.9 429.7 403.5C429.7 413 459.2 420.6 495.7 420.6C532.2 420.6 561.7 412.9 561.7 403.5C561.7 401.9 560.8 400.3 559.2 398.8Z" fill="#E59588"/>
<path d="M498.8 411.2C504.157 411.2 508.5 409.454 508.5 407.3C508.5 405.146 504.157 403.4 498.8 403.4C493.443 403.4 489.1 405.146 489.1 407.3C489.1 409.454 493.443 411.2 498.8 411.2Z" fill="#4C3142"/>
<path d="M495.4 420.6C531.851 420.6 561.4 412.944 561.4 403.5C561.4 394.056 531.851 386.4 495.4 386.4C458.949 386.4 429.4 394.056 429.4 403.5C429.4 412.944 458.949 420.6 495.4 420.6Z" stroke="#4C3142" stroke-width="8" stroke-miterlimit="10" stroke-linecap="round" stroke-linejoin="round"/>
<path d="M429.7 478.1L561.4 422.7" stroke="#4C3142" stroke-width="9" stroke-miterlimit="10" stroke-linejoin="round"/>
<path d="M509.5 493.2L558 472.8" stroke="#4C3142" stroke-width="9" stroke-miterlimit="10" stroke-linecap="round" stroke-linejoin="round"/>
<path d="M431.2 526.1L488.8 501.9" stroke="#4C3142" stroke-width="9" stroke-miterlimit="10" stroke-linecap="round" stroke-linejoin="round"/>
<path d="M429.7 575.4L561.4 520.1" stroke="#4C3142" stroke-width="9" stroke-miterlimit="10" stroke-linejoin="round"/>
<path d="M429.7 624.1L561.4 568.7" stroke="#4C3142" stroke-width="9" stroke-miterlimit="10" stroke-linejoin="round"/>
<path d="M455.4 579.7V614.4" stroke="#FFFDFD" stroke-width="8" stroke-miterlimit="10" stroke-linecap="round" stroke-linejoin="round"/>
<path d="M455.4 442.7V557.7" stroke="#FFFDFD" stroke-width="8" stroke-miterlimit="10" stroke-linecap="round" stroke-linejoin="round"/>
<path d="M512.1 342.7C512.1 342.7 516.2 344 522.4 346C528.5 348 536.8 350.6 545 353.2C549.1 354.5 553.3 355.8 557.1 356.9C559 357.5 560.9 358.1 562.7 358.6C564.5 359.1 566.1 359.7 567.7 360.2C569.2 360.7 570.6 361.2 571.9 361.7C573.1 362.2 574.2 362.7 575 363.1C576.7 364 577.6 364.8 577.6 364.8C578.3 365.4 578.4 366.5 577.7 367.1C577.4 367.5 576.9 367.6 576.5 367.7C576.5 367.7 575.3 367.7 573.5 367.3C572.6 367.1 571.4 366.8 570.2 366.4C569 365.9 567.6 365.4 566.1 364.9C564.6 364.3 562.9 363.7 561.2 363C559.5 362.3 557.7 361.6 555.8 360.8C552.1 359.2 548.1 357.6 544.1 355.9C536.1 352.7 528.1 349.4 522.1 347C516.1 344.6 512.1 343 512.1 343C512 343 511.9 342.8 512 342.7C511.9 342.7 512 342.7 512.1 342.7Z" fill="#FFDFAC"/>
<path d="M512.1 337.3C512.1 337.3 518.9 337.5 529 337.8C539.1 338.1 552.6 338.4 566.2 338.8C573 338.9 579.7 339 586.1 339.2C589.3 339.3 592.3 339.3 595.2 339.4C598.1 339.5 600.8 339.6 603.4 339.7C605.9 339.8 608.3 339.9 610.3 340C612.4 340.1 614.1 340.3 615.6 340.5C618.5 340.9 620.2 341.4 620.2 341.4C621 341.7 621.5 342.5 621.3 343.4C621.1 344 620.6 344.4 620.1 344.5C620.1 344.5 618.4 344.8 615.4 345C613.9 345.1 612.1 345.1 610.1 345C608 344.9 605.7 344.8 603.2 344.6C600.7 344.4 597.9 344.3 595 344C592.1 343.8 589 343.5 585.9 343.3C579.6 342.8 572.8 342.3 566.1 341.7C552.6 340.7 539.1 339.7 529 339C518.9 338.3 512.1 337.8 512.1 337.8C512 337.8 511.9 337.7 511.9 337.6C511.8 337.4 511.9 337.3 512.1 337.3Z" fill="#FFDFAC"/>
<path d="M511.6 333.4C511.6 333.4 515.7 332.4 521.7 330.9C527.8 329.4 535.9 327.3 544 325.2C548 324.1 552.1 323 555.9 322C557.8 321.5 559.6 321 561.4 320.6C563.1 320.1 564.8 319.8 566.3 319.4C567.8 319.1 569.2 318.7 570.5 318.5C571.7 318.2 572.9 318.1 573.8 318.1C575.6 318 576.8 318.2 576.8 318.2C577.7 318.4 578.3 319.2 578.1 320.1C578 320.6 577.8 320.9 577.4 321.2C577.4 321.2 576.5 321.8 574.7 322.5C573.8 322.8 572.8 323.2 571.5 323.5C570.3 323.8 568.8 324.1 567.3 324.4C565.8 324.7 564.1 325 562.3 325.3C560.5 325.6 558.7 325.9 556.7 326.2C552.8 326.8 548.7 327.5 544.6 328.2C536.4 329.7 528.1 331.1 521.9 332.2C515.7 333.3 511.6 334.1 511.6 334.1C511.5 334.1 511.4 334 511.3 333.9C511.4 333.5 511.5 333.4 511.6 333.4Z" fill="#FFDFAC"/>
<path d="M516.9 319.3C516.9 319.3 521.7 316.5 528.8 312.4C535.9 308.3 545.4 302.7 554.9 297.1C559.6 294.3 564.3 291.5 568.8 288.8C571 287.5 573.2 286.2 575.2 285C577.2 283.8 579.2 282.7 581 281.7C582.8 280.7 584.5 279.8 585.9 279C587.4 278.2 588.7 277.6 589.8 277.2C592 276.3 593.4 276 593.4 276C594.3 275.8 595.1 276.4 595.3 277.3C595.4 277.8 595.2 278.4 594.9 278.7C594.9 278.7 593.9 279.7 591.9 281.1C590.9 281.8 589.7 282.6 588.2 283.4C586.7 284.2 585.1 285.1 583.3 286.1C581.5 287.1 579.5 288.1 577.4 289.2C575.3 290.3 573.1 291.4 570.8 292.5C566.2 294.8 561.3 297.2 556.4 299.7C546.6 304.7 536.8 309.6 529.5 313.4C522.2 317.2 517.3 319.7 517.3 319.7C517.2 319.8 517 319.7 517 319.6C516.7 319.5 516.8 319.3 516.9 319.3Z" fill="#FFDFAC"/>
<path d="M509.9 315.1C509.9 315.1 516.1 310 525.4 302.3C534.7 294.7 547.1 284.4 559.4 274.1C565.6 268.9 571.7 263.8 577.5 258.9C580.4 256.5 583.2 254.2 585.8 251.9C588.4 249.7 591 247.6 593.3 245.7C595.7 243.8 597.8 242.1 599.7 240.6C601.6 239.1 603.4 237.8 604.8 236.9C607.7 234.9 609.6 234 609.6 234C610.4 233.6 611.3 233.9 611.7 234.7C612 235.3 611.9 235.9 611.5 236.4C611.5 236.4 610.2 238 607.6 240.4C606.3 241.6 604.7 243 602.8 244.6C600.9 246.1 598.7 247.8 596.3 249.7C593.9 251.5 591.3 253.6 588.6 255.6C585.8 257.7 582.9 259.9 579.9 262.2C573.9 266.7 567.5 271.6 561 276.4C548.2 286.1 535.4 295.9 525.9 303.2C516.3 310.5 510 315.4 510 315.4C509.9 315.5 509.8 315.5 509.7 315.4C509.8 315.4 509.8 315.2 509.9 315.1Z" fill="#FFDFAC"/>
<path d="M498.7 341.1C498.7 341.1 496.2 342.6 492.5 345C488.8 347.3 483.8 350.5 478.8 353.6C476.3 355.2 473.9 356.8 471.6 358.3C470.4 359 469.3 359.8 468.3 360.4C467.2 361.1 466.2 361.7 465.3 362.3C464.4 362.9 463.5 363.4 462.7 363.8C461.9 364.2 461.2 364.6 460.6 364.8C459.4 365.3 458.7 365.5 458.7 365.5C458.2 365.6 457.7 365.3 457.6 364.7C457.5 364.4 457.6 364.1 457.8 363.9C457.8 363.9 458.3 363.3 459.3 362.5C459.8 362.1 460.5 361.7 461.2 361.2C462 360.7 462.9 360.3 463.8 359.7C464.8 359.2 465.8 358.6 466.9 358C468 357.4 469.2 356.8 470.4 356.1C472.8 354.8 475.4 353.4 478 352.1C483.2 349.3 488.3 346.5 492.2 344.4C496.1 342.3 498.6 340.9 498.6 340.9C498.7 340.9 498.8 340.9 498.8 341C498.7 340.9 498.7 341 498.7 341.1Z" fill="#FFDFAC"/>
<path d="M497.9 337.5C497.9 337.5 493.5 338.6 486.8 340.3C480.1 342 471.2 344.3 462.3 346.6C457.9 347.8 453.4 349 449.3 350.1C447.2 350.6 445.2 351.2 443.3 351.7C441.4 352.2 439.6 352.6 437.9 353.1C436.2 353.5 434.7 353.9 433.3 354.2C431.9 354.5 430.7 354.7 429.7 354.9C427.7 355.2 426.5 355.2 426.5 355.2C426 355.2 425.5 354.8 425.5 354.3C425.5 353.9 425.7 353.6 426 353.4C426 353.4 427.1 352.9 429 352.3C430 352 431.1 351.6 432.5 351.3C433.9 351 435.4 350.6 437.1 350.2C438.8 349.8 440.6 349.4 442.5 349C444.4 348.6 446.5 348.2 448.6 347.7C452.8 346.8 457.3 345.9 461.8 345C470.8 343.1 479.8 341.1 486.5 339.7C493.2 338.2 497.7 337.2 497.7 337.2C497.8 337.2 497.8 337.2 497.9 337.3C498.1 337.4 498 337.4 497.9 337.5Z" fill="#FFDFAC"/>
<path d="M497.7 334.8C497.7 334.8 494.9 334.8 490.6 334.8C486.3 334.8 480.7 334.8 475 334.9C472.2 334.9 469.3 335 466.7 335C465.4 335 464.1 335 462.9 335C461.7 335 460.5 335 459.5 335C458.4 335 457.5 335 456.6 334.9C455.7 334.9 455 334.8 454.4 334.7C453.2 334.5 452.5 334.2 452.5 334.2C452 334 451.8 333.4 452 332.9C452.1 332.6 452.3 332.4 452.6 332.3C452.6 332.3 453.3 332.1 454.6 331.9C455.2 331.8 456 331.8 456.8 331.8C457.7 331.8 458.6 331.9 459.7 331.9C460.8 332 461.9 332 463.1 332.1C464.3 332.2 465.6 332.3 466.9 332.4C469.6 332.6 472.4 332.8 475.2 333C480.9 333.4 486.5 333.8 490.8 334C495.1 334.2 497.9 334.4 497.9 334.4C498 334.4 498 334.5 498 334.5C497.8 334.8 497.8 334.8 497.7 334.8Z" fill="#FFDFAC"/>
<path d="M499.4 326.7C499.4 326.7 495 324.8 488.4 321.8C481.8 318.9 473 315 464.2 311.2C459.8 309.3 455.4 307.4 451.2 305.6C449.1 304.7 447.1 303.8 445.2 303C443.3 302.2 441.5 301.4 439.9 300.6C438.3 299.9 436.8 299.2 435.4 298.6C434.1 298 432.9 297.4 432 296.9C430.2 295.9 429.2 295.1 429.2 295.1C428.8 294.8 428.7 294.2 429 293.8C429.2 293.5 429.6 293.4 430 293.4C430 293.4 431.2 293.7 433.2 294.4C434.2 294.8 435.4 295.2 436.7 295.9C438 296.5 439.5 297.2 441.1 298C442.7 298.8 444.5 299.6 446.3 300.5C448.2 301.4 450.1 302.4 452.1 303.4C456.1 305.4 460.4 307.5 464.7 309.7C473.3 313.9 482 318.1 488.4 321.3C494.9 324.4 499.2 326.5 499.2 326.5C499.3 326.5 499.3 326.6 499.3 326.7C499.5 326.7 499.4 326.7 499.4 326.7Z" fill="#FFDFAC"/>
<path d="M492.3 326C492.3 326 487.6 324.9 480.5 323.3C473.4 321.7 464 319.6 454.6 317.4C449.9 316.4 445.2 315.3 440.7 314.3C438.5 313.8 436.4 313.3 434.3 312.9C432.3 312.5 430.4 312 428.6 311.6C426.8 311.2 425.2 310.8 423.8 310.4C422.4 310 421.1 309.7 420.1 309.3C418.1 308.6 417 308.1 417 308.1C416.5 307.9 416.3 307.3 416.6 306.8C416.8 306.5 417.1 306.3 417.5 306.3C417.5 306.3 418.7 306.3 420.8 306.7C421.8 306.9 423.1 307.1 424.5 307.5C425.9 307.9 427.5 308.3 429.3 308.7C431.1 309.2 433 309.6 435 310.2C437 310.7 439.1 311.3 441.3 311.9C445.7 313.1 450.3 314.4 455 315.7C464.3 318.2 473.7 320.7 480.7 322.6C487.7 324.5 492.4 325.7 492.4 325.7C492.5 325.7 492.5 325.8 492.5 325.9C492.5 326 492.4 326 492.3 326Z" fill="#FFDFAC"/>
<path d="M496.4 322.4C496.4 322.4 491.2 318.7 483.3 313C475.4 307.4 464.9 299.9 454.4 292.5C449.1 288.8 443.9 285.1 438.9 281.6C436.4 279.9 434.1 278.2 431.8 276.6C429.5 275 427.4 273.5 425.5 272C423.5 270.6 421.8 269.3 420.2 268.1C418.6 266.9 417.3 265.9 416.2 265C414 263.2 412.9 262 412.9 262C412.5 261.6 412.5 261 412.9 260.7C413.2 260.4 413.6 260.4 414 260.5C414 260.5 415.5 261.2 417.8 262.8C419 263.6 420.4 264.5 422 265.7C423.6 266.9 425.4 268.2 427.3 269.6C429.2 271 431.3 272.6 433.5 274.3C435.7 276 438 277.7 440.4 279.6C445.2 283.3 450.3 287.2 455.4 291.1C465.7 298.9 476 306.6 483.7 312.5C491.4 318.3 496.6 322.2 496.6 322.2C496.7 322.2 496.7 322.3 496.6 322.4C496.5 322.4 496.5 322.4 496.4 322.4Z" fill="#FFDFAC"/>
<path d="M497.6 318.5C497.6 318.5 496.1 317.2 493.9 315.4C491.7 313.5 488.7 311 485.8 308.6C482.8 306.1 479.8 303.7 477.6 301.8C477.1 301.3 476.6 300.9 476.1 300.5C475.7 300.1 475.3 299.7 475.1 299.3C474.6 298.6 474.4 298.1 474.4 298.1C474.2 297.6 474.5 297 475.1 296.8C475.3 296.7 475.5 296.7 475.7 296.8C475.7 296.8 476.2 296.9 477 297.4C477.4 297.6 477.8 297.9 478.2 298.3C478.6 298.7 479.1 299.2 479.6 299.7C481.7 301.7 484.3 304.6 486.9 307.4C489.6 310.2 492.2 313 494.3 315C496.3 317.1 497.7 318.4 497.7 318.4C497.8 318.5 497.8 318.5 497.7 318.6C497.7 318.5 497.7 318.5 497.6 318.5Z" fill="#FFDFAC"/>
<path d="M501.6 316.6C501.6 316.6 499.9 314.2 497.4 310.7C494.9 307.1 491.5 302.4 488.2 297.7C486.5 295.4 484.8 293 483.2 290.8C482.4 289.7 481.6 288.6 480.9 287.6C480.2 286.6 479.5 285.6 478.9 284.7C478.3 283.8 477.7 283 477.2 282.2C476.7 281.5 476.3 280.8 476.1 280.2C475.5 279.1 475.3 278.3 475.3 278.3C475.2 277.8 475.5 277.2 476 277.1C476.3 277 476.6 277.1 476.8 277.3C476.8 277.3 477.4 277.8 478.2 278.7C478.6 279.2 479.1 279.8 479.6 280.5C480.1 281.2 480.6 282.1 481.2 283C481.8 283.9 482.4 284.9 483.1 286C483.7 287.1 484.4 288.2 485.1 289.4C486.5 291.7 488 294.2 489.5 296.7C492.5 301.6 495.6 306.6 497.9 310.3C500.2 314 501.7 316.5 501.7 316.5C501.7 316.6 501.7 316.7 501.7 316.7C501.8 316.7 501.7 316.7 501.6 316.6Z" fill="#FFDFAC"/>
<path d="M506.7 314C506.7 314 503 306.8 499.2 299.5C498.2 297.7 497.3 295.9 496.4 294.2C495.5 292.5 494.7 290.9 494 289.6C493.3 288.2 492.7 287.1 492.5 286.2C492.2 285.4 492.1 284.8 492.1 284.8C492.1 284.4 492.3 284.1 492.7 284.1C492.9 284.1 493.1 284.2 493.2 284.3C493.2 284.3 493.6 284.7 494.1 285.4C494.6 286.1 495.1 287.3 495.8 288.7C496.5 290.1 497.2 291.7 497.9 293.5C498.7 295.3 499.5 297.1 500.3 299C503.6 306.5 506.9 313.9 506.9 313.9V314C506.8 314.1 506.7 314 506.7 314Z" fill="#FFDFAC"/>
<path d="M506.7 307.4C506.7 307.4 506.8 295.8 506.9 284.3C506.9 281.4 506.9 278.5 506.9 275.8C506.9 273.1 506.9 270.6 507 268.4C507 266.2 507.1 264.4 507.2 263.2C507.3 261.9 507.5 261.2 507.5 261.2C507.6 260.9 507.9 260.7 508.3 260.7C508.5 260.8 508.7 261 508.8 261.2C508.8 261.2 508.9 261.9 509 263.2C509.1 264.5 509 266.3 508.9 268.4C508.8 270.6 508.7 273.1 508.5 275.8C508.3 278.5 508.2 281.4 508 284.3C507.4 295.9 506.9 307.4 506.9 307.4C506.9 307.4 506.8 307.5 506.7 307.4C506.7 307.4 506.7 307.5 506.7 307.4Z" fill="#FFDFAC"/>
<path d="M507.4 312.6C507.4 312.6 510.5 303.2 513.6 293.8C514.3 291.4 515.1 289.1 515.8 286.9C516.5 284.7 517.2 282.6 517.8 280.9C518.4 279.1 518.9 277.7 519.4 276.7C519.9 275.7 520.2 275.2 520.2 275.2C520.4 274.9 520.8 274.8 521.1 275C521.3 275.1 521.4 275.4 521.4 275.6C521.4 275.6 521.4 276.2 521.1 277.3C520.9 278.4 520.3 279.8 519.7 281.6C519.1 283.3 518.3 285.4 517.4 287.5C516.5 289.7 515.6 292 514.7 294.3C511.1 303.5 507.6 312.8 507.6 312.8L507.5 312.9C507.4 312.7 507.3 312.6 507.4 312.6Z" fill="#FFDFAC"/>
<path d="M506.7 314C506.7 314 505.7 309.1 504.2 301.7C502.7 294.4 500.6 284.6 498.5 274.8C497.4 269.9 496.4 265 495.4 260.4C494.9 258.1 494.4 255.9 494 253.8C493.5 251.7 493.2 249.7 492.8 247.9C492.4 246.1 492.1 244.4 491.8 242.9C491.5 241.4 491.3 240.1 491.2 239C490.9 236.8 491 235.5 491 235.5C491 235 491.4 234.6 492 234.6C492.4 234.6 492.7 234.8 492.9 235.2C492.9 235.2 493.4 236.4 494 238.5C494.3 239.6 494.6 240.9 494.9 242.4C495.2 243.9 495.5 245.6 495.8 247.4C496.1 249.2 496.5 251.2 496.9 253.4C497.3 255.5 497.6 257.8 498 260.1C498.8 264.7 499.6 269.7 500.4 274.6C502.1 284.5 503.8 294.3 505 301.7C506.3 309.1 507.1 314 507.1 314C507.1 314.1 507.1 314.1 507 314.2C506.7 314.1 506.7 314.1 506.7 314Z" fill="#FFDFAC"/>
<path d="M508.3 304.7C508.3 304.7 509.1 299.9 510.3 292.8C511.5 285.6 513 276.1 514.6 266.5C515.3 261.7 516.1 256.9 516.8 252.5C517.2 250.3 517.5 248.1 517.8 246C518.1 243.9 518.5 242 518.8 240.2C519.1 238.4 519.4 236.8 519.7 235.3C520 233.9 520.3 232.6 520.5 231.6C521 229.5 521.5 228.4 521.5 228.4C521.7 227.9 522.3 227.7 522.7 227.9C523.1 228 523.3 228.4 523.3 228.7C523.3 228.7 523.3 229.9 523.1 232C523 233.1 522.8 234.3 522.6 235.8C522.3 237.2 522 238.9 521.7 240.7C521.4 242.5 521 244.4 520.6 246.4C520.2 248.4 519.7 250.6 519.3 252.8C518.4 257.2 517.4 262 516.4 266.7C514.5 276.2 512.5 285.7 511.1 292.8C509.7 299.9 508.7 304.7 508.7 304.7C508.7 304.8 508.6 304.8 508.5 304.8C508.4 304.8 508.3 304.8 508.3 304.7Z" fill="#FFDFAC"/>
<path d="M529.8 250.8L531 256.6L536.8 257.8L531.6 260.8L532.3 266.7L527.9 262.7L522.5 265.1L524.9 259.7L520.9 255.3L526.8 256L529.8 250.8Z" fill="#FFDFAC"/>
<path d="M456.2 266.8L456.9 270L460.1 270.6L457.2 272.2L457.6 275.5L455.2 273.3L452.2 274.6L453.6 271.7L451.4 269.3L454.6 269.6L456.2 266.8Z" fill="#FFDFAC"/>
<path d="M433.9 316.7L434.7 320.8L438.8 321.6L435.2 323.7L435.6 327.8L432.6 325L428.8 326.7L430.5 322.9L427.7 319.9L431.8 320.3L433.9 316.7Z" fill="#FFDFAC"/>
<path d="M477.9 360.3L478.2 362L479.9 362.3L478.4 363.1L478.6 364.8L477.3 363.7L475.8 364.4L476.5 362.8L475.4 361.6L477 361.8L477.9 360.3Z" fill="#FFDFAC"/>
<path d="M453.3 335.7L453.7 337.3L455.2 337.6L453.8 338.4L454 340L452.8 338.9L451.4 339.6L452 338.1L451 336.9L452.6 337.1L453.3 335.7Z" fill="#FCE47E"/>
<path d="M580.8 294L582.1 299.8L587.9 301L582.7 304L583.4 309.9L579 305.9L573.6 308.4L576 302.9L572 298.5L577.9 299.2L580.8 294Z" fill="#FFDFAC"/>
<path d="M589.5 285.4L590 288L592.7 288.5L590.3 289.9L590.6 292.5L588.6 290.7L586.2 291.8L587.3 289.4L585.5 287.4L588.2 287.7L589.5 285.4Z" fill="#FFDFAC"/>
<path d="M554.7 284.1L555.1 285.8L556.8 286.2L555.3 287.1L555.5 288.8L554.2 287.6L552.5 288.4L553.3 286.7L552.1 285.4L553.8 285.6L554.7 284.1Z" fill="#FFDFAC"/>
<path d="M482.4 266.7C484.664 266.7 486.5 264.864 486.5 262.6C486.5 260.336 484.664 258.5 482.4 258.5C480.136 258.5 478.3 260.336 478.3 262.6C478.3 264.864 480.136 266.7 482.4 266.7Z" fill="#F73152"/>
<path d="M444.1 339C445.205 339 446.1 338.105 446.1 337C446.1 335.895 445.205 335 444.1 335C442.996 335 442.1 335.895 442.1 337C442.1 338.105 442.996 339 444.1 339Z" fill="#F73152"/>
<path d="M564.5 333.5C566.046 333.5 567.3 332.246 567.3 330.7C567.3 329.154 566.046 327.9 564.5 327.9C562.954 327.9 561.7 329.154 561.7 330.7C561.7 332.246 562.954 333.5 564.5 333.5Z" fill="#F73152"/>
<path d="M520.7 359.9C522.246 359.9 523.5 358.646 523.5 357.1C523.5 355.553 522.246 354.3 520.7 354.3C519.153 354.3 517.9 355.553 517.9 357.1C517.9 358.646 519.153 359.9 520.7 359.9Z" fill="#F73152"/>
<path d="M563.1 284C563.873 284 564.5 283.373 564.5 282.6C564.5 281.827 563.873 281.2 563.1 281.2C562.327 281.2 561.7 281.827 561.7 282.6C561.7 283.373 562.327 284 563.1 284Z" fill="#F73152"/>
<path d="M530.9 275C531.673 275 532.3 274.373 532.3 273.6C532.3 272.827 531.673 272.2 530.9 272.2C530.127 272.2 529.5 272.827 529.5 273.6C529.5 274.373 530.127 275 530.9 275Z" fill="#F73152"/>
<path d="M475 286.8C475.773 286.8 476.4 286.173 476.4 285.4C476.4 284.627 475.773 284 475 284C474.227 284 473.6 284.627 473.6 285.4C473.6 286.173 474.227 286.8 475 286.8Z" fill="#F73152"/>
<path d="M503.1 339C492.8 373.2 473.3 398 497.9 406.2" stroke="white" stroke-width="7" stroke-miterlimit="10" stroke-linecap="round" stroke-linejoin="round"/>
<path d="M512.7 307.6L514.8 317.7C514.9 318.1 515.2 318.4 515.6 318.5L525.7 320.6C529.3 321.3 530 326.1 526.9 327.9L518 333C517.7 333.2 517.5 333.6 517.5 334L518.6 344.2C519 347.8 514.7 350 512 347.6L504.4 340.7C504.1 340.4 503.7 340.4 503.3 340.5L493.9 344.8C490.6 346.3 487.2 342.9 488.7 339.6L492.9 330.2C493.1 329.8 493 329.4 492.7 329.1L485.8 321.5C483.4 318.8 485.5 314.5 489.1 314.9L499.3 316C499.7 316 500.1 315.8 500.3 315.5L505.4 306.6C507.2 303.3 512 304.1 512.7 307.6Z" fill="#F04E64"/>
<path d="M514.5 307.3L516.7 317.5C516.8 317.9 517.1 318.2 517.5 318.3L527.7 320.4C531.3 321.1 532.1 326 528.9 327.8L519.8 333C519.4 333.2 519.2 333.6 519.3 334L520.5 344.4C520.9 348.1 516.6 350.3 513.8 347.8L506 340.8C505.7 340.5 505.3 340.5 504.9 340.6L495.4 344.9C492 346.4 488.6 343 490.1 339.6L494.4 330.1C494.6 329.7 494.5 329.3 494.2 329L487.1 321.3C484.6 318.6 486.8 314.2 490.5 314.6L500.9 315.7C501.3 315.7 501.7 315.5 501.9 315.2L507.1 306.1C508.9 303 513.7 303.7 514.5 307.3Z" fill="#FEE35E"/>
<path d="M512.6 310.1L514.9 318.6C515 318.9 515.3 319.2 515.6 319.2L524.3 320.5C527.4 321 528.2 325 525.6 326.6L518.3 331.4C518 331.6 517.9 331.9 517.9 332.3L519.3 340.9C519.8 343.9 516.3 346 513.9 344.1L507.1 338.6C506.8 338.4 506.5 338.3 506.2 338.5L498.4 342.5C495.7 343.9 492.6 341.2 493.7 338.3L496.8 330.1C496.9 329.8 496.8 329.4 496.6 329.2L490.4 323.1C488.2 320.9 489.8 317.2 492.9 317.4L501.6 317.9C501.9 317.9 502.3 317.7 502.4 317.4L506.3 309.6C507.7 306.7 511.8 307.1 512.6 310.1Z" fill="#FCE47E"/>
<path d="M513.6 312.9L514.6 320.4C514.6 320.7 514.8 320.9 515.1 321L522.3 323.1C524.9 323.8 525.2 327.3 522.8 328.5L516 331.8C515.7 331.9 515.6 332.2 515.6 332.5L515.9 340C516 342.7 512.8 344 510.9 342.1L505.7 336.7C505.5 336.5 505.2 336.4 504.9 336.5L497.8 339.1C495.3 340 493 337.4 494.3 335L497.9 328.4C498 328.1 498 327.8 497.8 327.6L493.2 321.7C491.6 319.6 493.4 316.6 496 317.1L503.4 318.5C503.7 318.6 504 318.4 504.1 318.2L508.3 312C509.8 309.5 513.2 310.3 513.6 312.9Z" fill="#F9EBB2"/>
</svg>
