<svg xmlns="http://www.w3.org/2000/svg" width="383.751" height="552.292" viewBox="0 0 383.751 552.292"><g transform="translate(-113.443 -5853.88)"><path d="M491.194,6050.167a32.346,32.346,0,0,0-19.882-30.033,32.609,32.609,0,0,0-10.332-58.606,32.78,32.78,0,0,0,4.16-16.021c0-17.867-14.166-32.333-31.644-32.333a30.746,30.746,0,0,0-13.406,3.046,32.726,32.726,0,0,0,.371-4.957c0-17.867-14.166-32.35-31.644-32.35a31.268,31.268,0,0,0-24.243,11.566c-.893-17.057-14.7-30.6-31.578-30.6a31.531,31.531,0,0,0-27.695,16.686,31.536,31.536,0,0,0-27.7-16.686c-16.9,0-30.7,13.543-31.578,30.6a31.281,31.281,0,0,0-24.248-11.566c-17.467,0-31.639,14.482-31.639,32.35a33.585,33.585,0,0,0,.366,4.957,30.676,30.676,0,0,0-13.39-3.046c-17.474,0-31.644,14.482-31.644,32.349a32.833,32.833,0,0,0,4.16,16.037A32.193,32.193,0,0,0,125,5993.1a32.5,32.5,0,0,0,14.326,27.051,32.652,32.652,0,0,0-.625,59.822,32.623,32.623,0,0,0-8.09,21.626,32.2,32.2,0,0,0,25.783,31.8c-6.376,5.718,302.127,6.059,295.934.308,15.622-1.976,27.7-15.6,27.7-32.105a32.66,32.66,0,0,0-8.095-21.626,32.384,32.384,0,0,0,19.262-29.8ZM179.66,6130.35a15.735,15.735,0,0,0-1.579-.777C178.619,6129.248,179.66,6130.35,179.66,6130.35Z" transform="translate(0)" fill="#592d3d"/><path d="M290.011,6118.569a28.26,28.26,0,0,1-47.3-20.346,28.334,28.334,0,0,1-35.145-36.933,28.392,28.392,0,0,1-18.028-48.516,28.477,28.477,0,0,1-.7-51.933,28.532,28.532,0,0,1,21.949-46.7h.089a28.55,28.55,0,0,1,27.7-35.427,28.991,28.991,0,0,1,3.136.162,31.076,31.076,0,0,0-19.944-7.257c-17.474,0-31.639,14.481-31.639,32.349a32.825,32.825,0,0,0,.366,4.957,30.649,30.649,0,0,0-13.385-3.029c-17.474,0-31.644,14.482-31.644,32.349a32.833,32.833,0,0,0,4.16,16.037A32.193,32.193,0,0,0,125,5985.821a32.5,32.5,0,0,0,14.326,27.051,32.652,32.652,0,0,0-.625,59.822,32.623,32.623,0,0,0-8.09,21.626,32.2,32.2,0,0,0,25.783,31.8c-3.109,2.77,68.59,4.309,142.189,4.438A28.417,28.417,0,0,1,290.011,6118.569Z" transform="translate(0 7.277)" fill="#592d3d"/><path d="M324.91,5983.18l-19.39,43.348,21.867,32.511c6.781-.5,10.31-1.118,9.59-1.766,15.624-1.976,27.7-15.584,27.7-32.09a33.749,33.749,0,0,0-.444-5.378C353.154,5986.16,324.91,5983.18,324.91,5983.18Z" transform="translate(115.344 76.431)" fill="#592d3d"/><path d="M491.194,6050.167a32.346,32.346,0,0,0-19.882-30.033,32.609,32.609,0,0,0-10.332-58.606,32.78,32.78,0,0,0,4.16-16.021c0-17.867-14.166-32.333-31.644-32.333a30.746,30.746,0,0,0-13.406,3.046,32.726,32.726,0,0,0,.371-4.957c0-17.867-14.166-32.35-31.644-32.35a31.268,31.268,0,0,0-24.243,11.566c-.891-17.057-14.7-30.6-31.578-30.6a31.531,31.531,0,0,0-27.695,16.686,31.536,31.536,0,0,0-27.7-16.686c-16.9,0-30.7,13.543-31.578,30.6a31.281,31.281,0,0,0-24.248-11.566c-17.467,0-31.639,14.482-31.639,32.35a33.585,33.585,0,0,0,.366,4.957,30.676,30.676,0,0,0-13.39-3.046c-17.474,0-31.644,14.482-31.644,32.349a32.833,32.833,0,0,0,4.16,16.037A32.193,32.193,0,0,0,125,5993.1a32.5,32.5,0,0,0,14.326,27.051,32.652,32.652,0,0,0-.625,59.822,32.623,32.623,0,0,0-8.09,21.626,32.2,32.2,0,0,0,25.783,31.8c-6.376,5.718,302.127,6.059,295.934.308,15.622-1.976,27.7-15.6,27.7-32.105a32.66,32.66,0,0,0-8.095-21.626,32.384,32.384,0,0,0,19.262-29.8Z" transform="translate(0)" fill="none" stroke="#592d3d" stroke-miterlimit="10" stroke-width="12"/><path d="M272.62,6110.8c50.281,0,39.888,63.369,40.37,133.834H272.62Z" transform="translate(94.95 155.538)" fill="#754437"/><path d="M285.218,6135.887l-12.6,21.155,6.3,72.1H296.52C296.946,6129.147,285.218,6135.887,285.218,6135.887Z" transform="translate(94.95 171.029)" fill="#6b3d34"/><path d="M143.772,6078.829c0-81.706,66.164-147.959,147.777-147.959s147.779,66.253,147.779,147.959a147.7,147.7,0,0,1-54.653,114.881q-4.549,3.718-9.384,7.047c-33.329,21.188-75.432,21.188-113.441,17.8q-5.535-.851-11.02-2.074a154.259,154.259,0,0,1-41.754-15.4q-4.838-2.99-9.381-6.447a113.224,113.224,0,0,1-8.752-7.436q-3.956-3.669-7.641-7.63A147.6,147.6,0,0,1,143.772,6078.829Z" transform="translate(15.081 44.005)" fill="#754437"/><path d="M163.892,6148.279c.389.664.771,1.328,1.17,1.993.238.388.488.777.737,1.183.366.6.732,1.182,1.108,1.765.266.421.554.843.808,1.248.366.55.732,1.1,1.108,1.668.283.421.554.842.865,1.264.366.551.732,1.053,1.108,1.588.3.437.609.857.914,1.279s.742,1.021,1.108,1.538.638.843.959,1.265.758,1,1.147,1.506.659.842.991,1.247c.332.422.781.988,1.174,1.459s.68.825,1.025,1.246c.343.405.8.956,1.2,1.426s.7.811,1.058,1.215l1.231,1.394c.36.4.726.794,1.108,1.2.476.519.957,1.037,1.44,1.539l.671.713c.714.745,1.434,1.489,2.166,2.219l.143.146c.716.713,1.44,1.41,2.167,2.122l.875.827c.526.485,1.053.987,1.584,1.474l.643.583c.554.534,1.157,1.036,1.74,1.556q2.714,2.355,5.54,4.535,4.536,3.45,9.379,6.447a155.15,155.15,0,0,0,41.754,15.421c3.651.794,7.33,1.49,11.02,2.058,23.323,2.073,48.2,2.867,71.621-1.718-37.246-10.967-216.108-75.453-103.531-272.511-1.507.7-2.992,1.41-4.466,2.155l-.327.162c-.675.323-1.351.68-2.022,1.036l-.554.291c-2.083,1.118-4.144,2.252-6.165,3.45l-.5.309c-.643.373-1.28.761-1.918,1.15l-.481.308c-1.979,1.23-3.928,2.527-5.844,3.839l-.6.421c-.6.421-1.2.843-1.788,1.264l-.366.259c-1.207.891-2.4,1.782-3.58,2.689l-.342.275c-.554.421-1.108.875-1.662,1.313l-.65.534q-.831.656-1.66,1.36c-1.17.956-2.321,1.96-3.457,2.965l-.632.567-1.49,1.36-.721.647c-1.581,1.475-3.126,3-4.636,4.536l-.766.777c-.437.453-.875.906-1.306,1.377-.256.259-.51.551-.76.81q-1.142,1.214-2.25,2.479c-.249.275-.5.551-.753.858-.392.438-.781.907-1.168,1.361l-.837.988c-.376.453-.753.891-1.108,1.344-.3.373-.6.745-.891,1.118-.593.729-1.176,1.474-1.751,2.22-.3.388-.6.777-.893,1.165s-.664.892-.991,1.328c-.327.454-.593.811-.881,1.215s-.625.859-.93,1.3c-.525.729-1.043,1.49-1.552,2.235-.277.4-.554.826-.826,1.231-.271.421-.609.923-.909,1.393l-.824,1.28-.93,1.506c-.24.389-.476.762-.711,1.15-.492.81-.969,1.62-1.445,2.43l-.675,1.2c-.3.535-.6,1.069-.893,1.6q-.333.606-.659,1.215c-.353.647-.7,1.328-1.051,1.992l-.666,1.3c-.355.713-.71,1.409-1.058,2.122-.183.389-.371.777-.554,1.166-.288.6-.554,1.215-.847,1.814-.172.372-.339.745-.5,1.117q-.617,1.361-1.2,2.77c-.121.292-.238.584-.36.875-.293.7-.582,1.41-.865,2.122-.149.373-.293.745-.437,1.1-.277.7-.554,1.409-.8,2.105q-.175.461-.343.924-.52,1.456-1.024,2.915l-.311.939c-.243.745-.483,1.49-.714,2.22l-.332,1.068c-.261.843-.517,1.7-.76,2.56-.055.178-.11.373-.16.551-.288,1.021-.565,2.057-.831,3.078-.089.323-.165.664-.249.988-.193.777-.382,1.539-.554,2.316l-.233.972c-.237,1.053-.471,2.105-.687,3.175l-.083.421c-.188.94-.373,1.88-.554,2.835-.062.34-.117.665-.177,1-.144.825-.283,1.668-.411,2.494-.044.275-.092.551-.133.843-.165,1.085-.316,2.17-.458,3.256l-.084.729c-.11.875-.211,1.766-.3,2.656-.032.34-.073.664-.105,1-.087.923-.172,1.862-.249,2.8,0,.2-.032.39-.044.551-.081,1.118-.154,2.236-.215,3.369a6.323,6.323,0,0,1-.04.875q-.053,1.313-.1,2.625v.972c0,1.134-.044,2.283-.044,3.435v.048c0,1.23,0,2.445.044,3.677,0,.421.034.843.044,1.264.028.81.055,1.62.1,2.446,0,.485.06.972.087,1.475.045.729.084,1.474.139,2.219.037.551.087,1.036.133,1.571.062.7.117,1.393.188,2.09.05.551.117,1.068.172,1.6.078.68.149,1.36.233,2.024.066.552.143,1.117.215,1.637.089.647.177,1.312.277,1.976q.126.828.261,1.652.151.973.316,1.944c.1.55.2,1.1.3,1.668.117.632.238,1.264.36,1.9s.228,1.118.343,1.668c.134.633.267,1.264.411,1.9.143.615.243,1.1.376,1.62.144.632.3,1.247.455,1.862s.271,1.085.41,1.62q.248.924.5,1.847c.144.551.293,1.069.449,1.588.177.615.36,1.231.554,1.847.193.6.321,1.037.488,1.57s.387,1.215.586,1.814.343,1.037.522,1.556c.209.6.421,1.215.637,1.814.183.5.36,1.021.554,1.522l.687,1.814c.194.485.382.987.554,1.49.243.6.492,1.215.742,1.814.2.47.394.955.6,1.44.259.616.554,1.232.8,1.848.2.454.4.907.609,1.361.287.647.591,1.278.886,1.91l.6,1.28c.339.7.687,1.377,1.037,2.073.177.356.343.713.526,1.054,1.063,2.072,2.171,4.13,3.324,6.139C163.489,6147.6,163.693,6147.938,163.892,6148.279Z" transform="translate(15.102 49.15)" fill="#6b3d34"/><path d="M143.772,6078.829c0-81.706,66.164-147.959,147.777-147.959s147.779,66.253,147.779,147.959a147.7,147.7,0,0,1-54.653,114.881q-4.549,3.718-9.384,7.047c-33.329,21.188-75.432,21.188-113.441,17.8q-5.535-.851-11.02-2.074a154.259,154.259,0,0,1-41.754-15.4q-4.838-2.99-9.381-6.447a113.224,113.224,0,0,1-8.752-7.436q-3.956-3.669-7.641-7.63A147.6,147.6,0,0,1,143.772,6078.829Z" transform="translate(15.081 44.005)" fill="none" stroke="#592d3d" stroke-miterlimit="10" stroke-width="12"/><path d="M211.724,6110.8c-50.286,0-39.888,63.369-40.37,133.834h40.37Z" transform="translate(31.817 155.538)" fill="#754437"/><path d="M193.912,6135.887l12.614,21.155-6.311,72.1H182.638C182.189,6129.147,193.912,6135.887,193.912,6135.887Z" transform="translate(39.165 171.029)" fill="#6b3d34"/><path d="M329.327,6248.552H196.954a8.393,8.393,0,0,1-5.2-1.719,5.347,5.347,0,0,1-2.153-4.148v-126a5.347,5.347,0,0,1,2.153-4.148,8.325,8.325,0,0,1,5.2-1.732H326.163c7.252,0,10.526,3.4,10.526,8.8v123.058a4.88,4.88,0,0,1-.556,2.262,6.085,6.085,0,0,1-1.594,1.913,7.807,7.807,0,0,1-2.391,1.279A8.962,8.962,0,0,1,329.327,6248.552Z" transform="translate(43.49 155.538)" fill="#754437"/><path d="M334.633,6115.177a10.75,10.75,0,0,1-1.39-2.219,9.433,9.433,0,0,0-4.587-1.944,16.027,16.027,0,0,0-2.493-.194H196.954a7.369,7.369,0,0,0-7.351,7.339c16.066,5.782,46.142,9.006,73.537,9.006C298.074,6127.165,320.966,6121.981,334.633,6115.177Z" transform="translate(43.49 155.55)" fill="#6b3d34"/><path d="M272.62,6110.8c50.281,0,39.888,63.369,40.37,133.834H285.218" transform="translate(94.95 155.538)" fill="none" stroke="#592d3d" stroke-linecap="square" stroke-miterlimit="10" stroke-width="12"/><path d="M211.724,6110.8c-50.286,0-39.888,63.369-40.37,133.834h27.739" transform="translate(31.817 155.538)" fill="none" stroke="#592d3d" stroke-linecap="square" stroke-miterlimit="10" stroke-width="12"/><path d="M194.142,6110.864l129.207-.064" transform="translate(46.304 155.538)" fill="none" stroke="#592d3d" stroke-miterlimit="10" stroke-width="12"/><path d="M196.954,6231.548h64.607c-60.468,0-55.9-93.318-71.958-93.318v87.943a4.156,4.156,0,0,0,.554,2.063,5.716,5.716,0,0,0,1.591,1.745,8.118,8.118,0,0,0,2.388,1.167A10.169,10.169,0,0,0,196.954,6231.548Z" transform="translate(43.49 172.541)" fill="#6b3d34"/><path d="M187.575,6155.127c-.105-2.041-.062-4.082.028-6.107s.261-4.081.476-6.105c.11-1.021.222-2.025.36-3.047s.272-2.04.471-3.061a24.586,24.586,0,0,1,1.989-6.107,24.585,24.585,0,0,1,1.989,6.107c.2,1.021.343,2.041.47,3.061s.249,2.025.361,3.047c.211,2.04.376,4.081.47,6.105s.139,4.066.034,6.107Z" transform="translate(42.195 167.874)" fill="#592d3d"/><path d="M336.717,6149.14v2.94c.144,12.491.144,25.357,0,37.752v27.912a3.491,3.491,0,0,1-.556,1.868,5.43,5.43,0,0,1-1.591,1.588,8.458,8.458,0,0,1-2.388,1.063,10.63,10.63,0,0,1-2.817.365H197a9.573,9.573,0,0,1-5.2-1.427,4.257,4.257,0,0,1-2.153-3.445v-24.2c-.139-12.813-.139-25.68,0-38.7v-9.079" transform="translate(43.45 177.22)" fill="none" stroke="#592d3d" stroke-miterlimit="10" stroke-width="12"/><path d="M278.368,6159.547c-.105-2.316-.055-4.633.034-6.949s.261-4.633.47-6.949c.112-1.167.228-2.316.361-3.482.133-1.15.271-2.316.47-3.467a30.38,30.38,0,0,1,1.989-6.949,30.3,30.3,0,0,1,1.989,6.949c.2,1.15.343,2.316.471,3.467s.25,2.315.36,3.482c.211,2.316.382,4.633.471,6.949s.138,4.633.032,6.949Z" transform="translate(98.476 168.524)" fill="#592d3d"/><path d="M259.173,6141.667c.121-5.248,6.769-7.468,10.093-4.147a6.12,6.12,0,0,1,1.254,1.928,5.9,5.9,0,0,1-.045,4.5,5.928,5.928,0,0,1-3.214,3.158,5.959,5.959,0,0,1-2.255.422,5.649,5.649,0,0,1-2.245-.47,5.975,5.975,0,0,1-1.894-1.3,5.757,5.757,0,0,1-1.694-4.1Z" transform="translate(86.614 171.129)" fill="#592d3d"/><path d="M203.574,6141.522c-.115-4.52,4.871-6.739,8.195-5.07,4.432,1.668,4.432,7.759,0,10.529-2.216,1.117-4.432,0-6.51-1.361a6.022,6.022,0,0,1-1.249-1.879A5.858,5.858,0,0,1,203.574,6141.522Z" transform="translate(52.149 171.095)" fill="#592d3d"/><path d="M235.644,6135.82a12.125,12.125,0,0,1,.831,2.9,18.986,18.986,0,0,1,.272,2.906l.165,5.811c.05,1.932.117,3.878.139,5.811l.094,5.81c.128,7.743.121,15.5.156,23.242.032,7.757.1,15.5,0,23.257-.05,3.878-.167,7.742-.295,11.62-.055,1.933-.16,3.878-.371,5.811a41.315,41.315,0,0,1-.98,5.81,41.559,41.559,0,0,1-.982-5.81c-.209-1.932-.314-3.878-.369-5.811-.128-3.878-.245-7.742-.295-11.62-.11-7.757,0-15.5,0-23.257,0-7.742,0-15.484.1-23.242l.094-5.81.183-5.811.183-5.811a19.412,19.412,0,0,1,.277-2.906A12.318,12.318,0,0,1,235.644,6135.82Z" transform="translate(70.986 171.046)" fill="#6b3d34"/><path d="M209.426,6154.016a10.329,10.329,0,0,1,2.587-.825,15.41,15.41,0,0,1,2.592-.275l5.18-.2,10.359-.227c6.9-.1,13.8-.13,20.708-.146s13.811-.1,20.715,0c3.45.048,6.9.162,10.359.291,1.722.064,3.452.162,5.174.373a33.173,33.173,0,0,1,5.18.988,33.25,33.25,0,0,1-5.18.988c-1.722.21-3.452.308-5.174.372-3.457.113-6.909.227-10.359.275-6.9.114-13.806,0-20.715,0s-13.811,0-20.72-.081c-3.45-.032-6.9-.146-10.348-.275l-5.18-.194a15.455,15.455,0,0,1-2.587-.275A9.714,9.714,0,0,1,209.426,6154.016Z" transform="translate(55.778 181.263)" fill="#6b3d34"/><path d="M215.3,6164.427a6.214,6.214,0,0,1,2.072-.615,10.364,10.364,0,0,1,2.005-.1c1.323.064,2.648.1,3.974.13,2.647.048,5.3.08,7.944.08,5.334,0,10.575.05,15.933-.112s10.67-.228,16-.211c2.666,0,5.331.065,7.989.13,1.338.016,2.676.113,4.006.259a21.381,21.381,0,0,1,4.027.858,19.779,19.779,0,0,1-3.965,1.1,33.368,33.368,0,0,1-3.995.486c-2.671.194-5.341.355-8.005.453-5.341.194-10.677.179-16,.243-2.665,0-5.325.129-8.023.049s-5.367-.065-8.043-.162-5.363-.324-8.033-.6c-1.341-.146-2.671-.323-4.006-.5a9.246,9.246,0,0,1-1.978-.47A6.479,6.479,0,0,1,215.3,6164.427Z" transform="translate(59.421 188.267)" fill="#6b3d34"/><path d="M214.114,6176.883a7.659,7.659,0,0,1,2.116-.841,10.238,10.238,0,0,1,2.117-.26l4.226-.178c2.82-.1,5.647-.2,8.465-.228,5.639-.081,11.279-.081,16.908-.081s11.279-.1,16.92,0c2.82.049,5.639.162,8.459.292a41.143,41.143,0,0,1,4.228.356,23.747,23.747,0,0,1,4.242,1,22.277,22.277,0,0,1-4.226.988,41.5,41.5,0,0,1-4.233.373c-2.82.129-5.64.242-8.461.291-5.639.113-11.284.032-16.924,0s-11.279-.033-16.918-.146c-2.82-.049-5.645-.146-8.465-.26l-4.228-.21a10.377,10.377,0,0,1-2.116-.275A7.056,7.056,0,0,1,214.114,6176.883Z" transform="translate(58.684 195.491)" fill="#6b3d34"/><path d="M311.184,6190c.112-20.573-.669-38.861-4.288-52.905-5.584-14.061-15.611-22.451-33.3-22.451l12.658,74.595S298.719,6194.937,311.184,6190Z" transform="translate(95.552 157.918)" fill="#6b3d34"/><path d="M300.523,6157.55a11.335,11.335,0,0,1-2.044,1.345" transform="translate(110.979 184.517)" fill="none" stroke="#592d3d" stroke-linecap="square" stroke-miterlimit="10" stroke-width="12"/><path d="M178.166,6136.076c-3.778,14.19-4.432,32.8-4.288,53.813,11.023,4.729,27.938-1.2,27.938-1.2l9.59-73.38C194.309,6115.31,184.115,6123.02,178.166,6136.076Z" transform="translate(33.731 158.334)" fill="#6b3d34"/><path d="M327.157,6110.61l-21.295.047c0,21.565-41.733,44.62-41.733,44.62s-44.763-24.321-44.763-44.62l-21.418-.047a8.979,8.979,0,0,0-5.2,1.56,4.734,4.734,0,0,0-2.158,3.776v114.31a4.715,4.715,0,0,0,2.158,3.765,8.894,8.894,0,0,0,5.2,1.56H330.314a8.886,8.886,0,0,0,5.2-1.56,4.711,4.711,0,0,0,2.154-3.765V6118.585C337.667,6113.694,334.408,6110.61,327.157,6110.61Z" transform="translate(44.103 155.419)" fill="#633749"/><path d="M273.592,6110.61c35.2,0,40.662,31.069,40.939,73.866-10.3,6.447-27.1.729-27.1.729Z" transform="translate(95.552 155.419)" fill="#633749"/><path d="M286.217,6135.7l-12.625,21.123,6.309,72.116h6.426v-58.591l9.572,1.6C292.787,6131.922,286.217,6135.7,286.217,6135.7Z" transform="translate(95.552 170.912)" fill="#5e3244"/><path d="M213.33,6110.61c-34.226,0-42,29.838-42.575,70.82,10.526,11,32.1,2.527,32.1,2.527Z" transform="translate(31.807 155.419)" fill="#633749"/><path d="M194.251,6135.7v32.77l-9.59,2.4C187.8,6131.986,194.251,6135.7,194.251,6135.7Z" transform="translate(40.427 170.912)" fill="#5e3244"/><path d="M273.592,6110.61c37.349,0,43.459,31.215,43.709,74.206-14.514,6.885-29.866.389-29.866.389" transform="translate(95.552 155.419)" fill="none" stroke="#592d3d" stroke-linecap="square" stroke-miterlimit="10" stroke-width="12"/><path d="M214.156,6110.61c-37,0-44.363,30.34-44.734,72.506,11.406,8.2,34.264.842,34.264.842" transform="translate(30.981 155.419)" fill="none" stroke="#592d3d" stroke-linecap="square" stroke-miterlimit="10" stroke-width="12"/><path d="M197.957,6231.666h64.579c-60.491,0-55.9-93.627-71.959-93.627v88.245a4.148,4.148,0,0,0,.564,2.058,5.547,5.547,0,0,0,1.6,1.75,7.807,7.807,0,0,0,2.393,1.159A9.738,9.738,0,0,0,197.957,6231.666Z" transform="translate(44.094 172.424)" fill="#5e3244"/><path d="M188.562,6154.921c-.105-2.024-.06-4.065.034-6.091s.261-4.082.47-6.106c.112-1.021.228-2.041.361-3.062s.271-2.024.47-3.046a24.722,24.722,0,0,1,1.989-6.106,24.656,24.656,0,0,1,1.989,6.106c.2,1.021.343,2.042.471,3.046.126,1.021.249,2.041.36,3.062.214,2.041.373,4.082.476,6.106a55.368,55.368,0,0,1,0,6.091Z" transform="translate(42.807 167.755)" fill="#592d3d"/><path d="M337.708,6148.557v2.614c.144,11.117.144,22.548,0,33.579v24.81a3.757,3.757,0,0,1-2.154,3.073,10.482,10.482,0,0,1-5.2,1.269H197.989a10.492,10.492,0,0,1-5.2-1.269,3.762,3.762,0,0,1-2.158-3.073v-21.5c-.143-11.384-.143-22.825,0-34.4v-8.083" transform="translate(44.062 177.097)" fill="none" stroke="#592d3d" stroke-miterlimit="10" stroke-width="12"/><path d="M279.357,6159.337c-.105-2.316-.055-4.634.032-6.949s.261-4.634.476-6.949c.112-1.15.222-2.317.355-3.467.133-1.167.272-2.333.476-3.482a30.116,30.116,0,0,1,1.984-6.949,29.885,29.885,0,0,1,1.988,6.949c.2,1.149.35,2.315.471,3.482.122,1.149.25,2.316.36,3.467.215,2.315.382,4.633.471,6.949s.144,4.633.034,6.949Z" transform="translate(99.089 168.393)" fill="#592d3d"/><path d="M195.133,6110.675l129.209-.064" transform="translate(46.918 155.419)" fill="none" stroke="#592d3d" stroke-miterlimit="10" stroke-width="12"/><path d="M170.266,6156.42a13.674,13.674,0,0,0,2.039,1.539" transform="translate(31.504 183.816)" fill="none" stroke="#592d3d" stroke-linecap="square" stroke-miterlimit="10" stroke-width="12"/><path d="M301.672,6153.061a11.119,11.119,0,0,1-3.74,1.409,19.347,19.347,0,0,1-3.993.34,21.9,21.9,0,0,1-3.974-.421c-.653-.13-1.3-.324-1.932-.486a13.174,13.174,0,0,1-1.873-.7,19.421,19.421,0,0,1,1.971.162l1.95.162c.648,0,1.291.113,1.939.113s1.291.064,1.934.064c1.285.032,2.571,0,3.878-.1A27.948,27.948,0,0,0,301.672,6153.061Z" transform="translate(103.343 181.733)" fill="#592d3d"/><path d="M294.851,6110.649c0,29.79-41.733,61.637-41.733,61.637s-44.763-33.6-44.763-61.637" transform="translate(55.114 155.445)" fill="none" stroke="#592d3d" stroke-miterlimit="10" stroke-width="12"/><path d="M375.027,6109.765c15.684-12.748,30.143-30.356,39.157-47.755-.034-.063-1.934,1.88-1.967,1.814-.034-.048-11.674,10.416-45.162,10.271-42.271-.179-33.539-12.035-84.491-12.035-45.105,0-37.942,6.592-80.412,8.957-34.4,1.912-46.325-7.208-46.325-7.208l-.11.178a144.587,144.587,0,0,0,22.469,31.912c2.393,2.591,4.908,5.1,7.468,7.483a107.95,107.95,0,0,0,8.5,7.209c2.87,2.187,5.911,4.292,9.047,6.22A151.579,151.579,0,0,0,244,6131.859c3.6.794,7.2,1.458,10.7,1.992,36.457,3.257,78.155,3.727,111.207-17.251C369.022,6114.462,372.092,6112.162,375.027,6109.765Z" transform="translate(22.486 125.294)" opacity="0.15"/><path d="M171.423,6079.919a2.325,2.325,0,1,0-2.316-2.317A2.316,2.316,0,0,0,171.423,6079.919Z" transform="translate(30.785 133.514)" fill="#592d3d"/><path d="M180.4,6080.408a1.644,1.644,0,1,0-1.641-1.636A1.635,1.635,0,0,0,180.4,6080.408Z" transform="translate(36.768 134.661)" fill="#592d3d"/><path d="M201.786,6095.692a1.636,1.636,0,1,0-1.639-1.636A1.635,1.635,0,0,0,201.786,6095.692Z" transform="translate(50.026 144.145)" fill="#592d3d"/><path d="M237.964,6096.832a1.636,1.636,0,1,0-1.641-1.637A1.636,1.636,0,0,0,237.964,6096.832Z" transform="translate(72.45 144.852)" fill="#592d3d"/><path d="M241.658,6094.508a1.644,1.644,0,1,0-1.641-1.636A1.636,1.636,0,0,0,241.658,6094.508Z" transform="translate(74.74 143.401)" fill="#592d3d"/><path d="M262.416,6093.5a1.645,1.645,0,1,0-1.639-1.652A1.65,1.65,0,0,0,262.416,6093.5Z" transform="translate(87.609 142.775)" fill="#592d3d"/><path d="M263.428,6087.2a1.644,1.644,0,1,0-1.639-1.636A1.636,1.636,0,0,0,263.428,6087.2Z" transform="translate(88.236 138.87)" fill="#592d3d"/><path d="M199.1,6091.641a2.98,2.98,0,1,0-2.974-2.979A2.984,2.984,0,0,0,199.1,6091.641Z" transform="translate(47.531 139.966)" fill="#592d3d"/><path d="M269.794,6094.847a1.159,1.159,0,1,0-1.158-1.15A1.156,1.156,0,0,0,269.794,6094.847Z" transform="translate(92.48 144.213)" fill="#592d3d"/><path d="M284.778,6092.569a2.325,2.325,0,1,0-2.315-2.333A2.32,2.32,0,0,0,284.778,6092.569Z" transform="translate(101.051 141.355)" fill="#592d3d"/><path d="M223.081,6102.133a2.316,2.316,0,1,0-2.315-2.316A2.316,2.316,0,0,0,223.081,6102.133Z" transform="translate(62.807 147.294)" fill="#592d3d"/><path d="M284.519,6080.378a1.645,1.645,0,1,0-1.639-1.652A1.65,1.65,0,0,0,284.519,6080.378Z" transform="translate(101.31 134.642)" fill="#592d3d"/><path d="M288.312,6083.748a1.644,1.644,0,1,0-1.639-1.652A1.649,1.649,0,0,0,288.312,6083.748Z" transform="translate(103.661 136.731)" fill="#592d3d"/><path d="M185.085,6061.936a11.623,11.623,0,1,0-11.611-11.614A11.614,11.614,0,0,0,185.085,6061.936Z" transform="translate(33.492 110.838)" fill="#592d3d"/><path d="M180.6,6052.3c.991-.049,2.1-.146,3.159-.26s2.138-.242,3.206-.4,2.145-.357,3.22-.551a30.49,30.49,0,0,1,3.324-.47,13.807,13.807,0,0,1-2.943,1.732,27.772,27.772,0,0,1-3.2,1.118,29,29,0,0,1-3.324.745,19.018,19.018,0,0,1-3.457.308Z" transform="translate(37.902 118.234)" fill="#592d3d"/><path d="M294.768,6061.936a11.623,11.623,0,1,0-11.611-11.614A11.614,11.614,0,0,0,294.768,6061.936Z" transform="translate(101.481 110.838)" fill="#592d3d"/><path d="M290.329,6052.3c1-.049,2.1-.146,3.159-.26s2.143-.242,3.212-.4,2.145-.357,3.22-.551a30.489,30.489,0,0,1,3.324-.47,13.847,13.847,0,0,1-2.943,1.732,27.77,27.77,0,0,1-3.2,1.118,29.008,29.008,0,0,1-3.324.745,19.018,19.018,0,0,1-3.457.308Z" transform="translate(105.921 118.234)" fill="#592d3d"/><path d="M215.554,6066.727c0-10.48,63-8.909,63,0a31.5,31.5,0,1,1-63,0Z" transform="translate(59.576 123.704)" fill="#592d3d"/><path d="M241.059,6071.2c-9.39-.552-17.579,3.742-20.3,10.107a31.5,31.5,0,0,0,36.087,6.949,30.622,30.622,0,0,0,3.606-1.976C259.939,6078.455,251.618,6071.846,241.059,6071.2Z" transform="translate(62.801 130.961)" fill="#f28195"/><path d="M215.554,6066.727c0-10.48,63-8.909,63,0a31.5,31.5,0,1,1-63,0Z" transform="translate(59.576 123.704)" fill="none" stroke="#592d3d" stroke-miterlimit="10" stroke-width="6"/><path d="M227.517,6067.708a3.225,3.225,0,0,1,.51-.113l.415-.08a7.171,7.171,0,0,1,.808-.1,10.587,10.587,0,0,1,1.6-.064,14.277,14.277,0,0,1,3.207.453,11.813,11.813,0,0,1,5.734,3.386,11.227,11.227,0,0,1,2.814,5.638,9.566,9.566,0,0,1-.753,5.734c-1.147-1.62-2.028-3.079-2.947-4.294a14.248,14.248,0,0,0-1.357-1.668,7.571,7.571,0,0,0-1.5-1.2,8.7,8.7,0,0,0-3.386-1.166,18.345,18.345,0,0,0-1.9-.129c-.327,0-.653,0-.975.032l-.47.032h-.345Z" transform="translate(66.992 128.602)" fill="#592d3d"/><path d="M268.578,6006.192c-7.131,13.3-33.24,20.767-35.362,17.414-2.383-3.727,20.969-30.681,7.7-58.866" transform="translate(70.418 65)" fill="#6b3d34"/><path d="M293.169,5926.95c-72.656,0-139.806,59.044-151.877,130.464,0,0,111.536,8.439,152.161-37.03-2.577,12.57-9.816,22.111-8.593,24.039,1.707,2.688,22.67-3.289,28.393-14l-2.028-3.029c27.65,10.044,81.709,22.5,118.145-15.323C405.282,5962,351.039,5926.95,293.169,5926.95Z" transform="translate(13.544 41.575)" fill="#592d3d"/><path d="M199.762,6030.3a28.375,28.375,0,0,1-5.734-29.206,28.354,28.354,0,0,1-26.164-32.365,152.792,152.792,0,0,0-26.592,62.786A371.252,371.252,0,0,0,199.762,6030.3Z" transform="translate(13.531 67.473)" fill="#592d3d"/><path d="M423.04,5984.41c-41.362,31.831-88.966,19.472-114.207,8.926-5.616,9.946-25.074,15.47-26.674,12.959-1.108-1.718,4.887-9.8,7.634-20.621-41.151,44.53-143.956,39.946-143.956,39.946" transform="translate(16.361 77.193)" fill="none" stroke="#592d3d" stroke-miterlimit="10" stroke-width="12"/><path d="M171.066,5899.507a29.621,29.621,0,0,0-11.224,2.77,25.474,25.474,0,0,0-8.676,6.561,11.182,11.182,0,0,0-.847,1.069c-.266.356-.554.712-.81,1.1a25.059,25.059,0,0,0-1.417,2.348,29.275,29.275,0,0,0-2.161,5.087,34.971,34.971,0,0,0-1.268,11.55,20.518,20.518,0,0,1-2.127-12.278l.293-1.588.16-.793c.062-.26.149-.519.227-.778.156-.518.311-1.053.483-1.555.172-.519.421-1,.632-1.507a24.219,24.219,0,0,1,1.529-2.9c.282-.47.63-.891.941-1.345a14.3,14.3,0,0,1,1.009-1.279A22,22,0,0,1,158.657,5899,18.752,18.752,0,0,1,171.066,5899.507Z" transform="translate(14.195 23.744)" fill="#fff"/><path d="M198.389,5878.33a35.056,35.056,0,0,0-9.972,1.1,28.872,28.872,0,0,0-8.571,3.92,28.57,28.57,0,0,0-6.824,6.544c-.465.648-1,1.28-1.4,1.977l-.669,1.053a11.159,11.159,0,0,0-.6,1.1,41.911,41.911,0,0,0-2.271,4.649,15.782,15.782,0,0,1,.215-5.378c.094-.437.149-.907.288-1.345l.41-1.312a17.963,17.963,0,0,1,1.058-2.56,21.778,21.778,0,0,1,17.823-12.052A17.818,17.818,0,0,1,198.389,5878.33Z" transform="translate(30.061 9.963)" fill="#fff"/><path d="M272.206,6014.629a180.542,180.542,0,0,1,18.564-3.693l-1.474.193a83.517,83.517,0,0,1,22.022-.258l-1.474-.2c1.811.243,3.624.551,5.44.777l-1.472-.194a122.02,122.02,0,0,1,16.331,3.387,5.612,5.612,0,0,0,6.815-3.889,5.649,5.649,0,0,0-3.878-6.819,132.859,132.859,0,0,0-19.163-3.758l1.472.194a78.856,78.856,0,0,0-18.525-1.069,131.868,131.868,0,0,0-18.332,2.511c-3.113.632-6.2,1.361-9.285,2.105a5.625,5.625,0,0,0-3.878,6.836,5.706,5.706,0,0,0,2.624,3.321,5.645,5.645,0,0,0,4.191.551Z" transform="translate(90.318 86.337)" fill="#592d3d"/><path d="M164.554,6014.543a112.672,112.672,0,0,1,16.205-3.435l-1.474.194a108.751,108.751,0,0,1,28.464.048l-1.474-.194a121.788,121.788,0,0,1,16.315,3.387,5.609,5.609,0,0,0,6.813-3.889,5.645,5.645,0,0,0-3.878-6.819,125.572,125.572,0,0,0-24.486-4.261,114.739,114.739,0,0,0-39.455,4.277,5.528,5.528,0,0,0-3.878,6.819,5.63,5.63,0,0,0,6.815,3.872Z" transform="translate(23.599 86.438)" fill="#592d3d"/><path d="M199.685,6110.406a51.763,51.763,0,1,0-51.693-51.756A51.73,51.73,0,0,0,199.685,6110.406Z" transform="translate(17.697 91.121)" fill="#fff" opacity="0.2"/><path d="M419.713,6072.024a57.207,57.207,0,0,1-104.334-28.559c-20.5-8.1-41.234-8.034-63.261.211A57.345,57.345,0,0,1,195.056,6097c-17.994,0-42.1-20.248-39.334-15.744,7.756,11.468,26.038,20.216,40.187,20.216,30.22,0,54.219-21.787,56.263-51.545,22.027-8.229,42.786-8.31,63.261-.21,1.939,29.854,26.809,51.868,57.1,51.868C397.292,6101.586,411.364,6082.666,419.713,6072.024Z" transform="translate(22.353 110.064)" opacity="0.15"/><path d="M177.1,6102.94l68.18-68.277a51.318,51.318,0,0,0-5.54-9.573L167.531,6097.4A51.836,51.836,0,0,0,177.1,6102.94Z" transform="translate(29.808 102.409)" fill="#fff" opacity="0.4"/><path d="M199.685,6110.406a51.763,51.763,0,1,0-51.693-51.756A51.73,51.73,0,0,0,199.685,6110.406Z" transform="translate(17.697 91.121)" fill="none" stroke="#592d3d" stroke-miterlimit="10" stroke-width="20"/><path d="M309.231,6110.406a51.763,51.763,0,1,0-51.693-51.756A51.73,51.73,0,0,0,309.231,6110.406Z" transform="translate(85.601 91.121)" fill="none" stroke="#592d3d" stroke-miterlimit="10" stroke-width="20"/><path d="M212.008,6041.811c25.04-10.156,49.643-10.545,73.758,0" transform="translate(57.378 107.961)" fill="none" stroke="#592d3d" stroke-miterlimit="10" stroke-width="20"/><path d="M176.778,6022.1c1.142,3.612-3.29,6.382-6.614,6.933-3.324,0-5.54-2.22-6.648-4.989-.554-2.77,0-5.54,2.216-7.208,2.77-1.1,6.648-2.22,9.113.631a6.441,6.441,0,0,1,1.932,4.634Z" transform="translate(27.196 96.567)" fill="#fff"/><path d="M176.889,6019.13a2.15,2.15,0,0,1-4.215.178c0-1.652.554-2.2,2.132-2.268a1.935,1.935,0,0,1,.8.162,1.961,1.961,0,0,1,.675.453,2.045,2.045,0,0,1,.452.681A2.012,2.012,0,0,1,176.889,6019.13Z" transform="translate(32.996 97.419)" fill="#fff"/><path d="M309.231,6110.406a51.763,51.763,0,1,0-51.693-51.756A51.73,51.73,0,0,0,309.231,6110.406Z" transform="translate(85.601 91.121)" fill="#fff" opacity="0.2"/><path d="M287.027,6095.374l58.879-58.964a52.565,52.565,0,0,0-1.336-6.221l-63.742,63.84A50.811,50.811,0,0,0,287.027,6095.374Z" transform="translate(100.038 105.571)" fill="#fff" opacity="0.4"/><path d="M309.231,6110.406a51.763,51.763,0,1,0-51.693-51.756A51.73,51.73,0,0,0,309.231,6110.406Z" transform="translate(85.601 91.121)" fill="none" stroke="#592d3d" stroke-miterlimit="10" stroke-width="20"/><path d="M286.322,6022.1c1.14,3.612-3.292,6.382-6.616,6.933-3.324,0-5.54-2.22-6.648-4.989-.554-2.77,0-5.54,2.216-7.208,2.77-1.1,6.648-2.22,9.113.631a6.469,6.469,0,0,1,1.934,4.634Z" transform="translate(95.098 96.567)" fill="#fff"/><path d="M286.439,6019.13a2.15,2.15,0,0,1-4.215.178c0-1.652.554-2.2,2.127-2.268a2.1,2.1,0,0,1,2.088,2.09Z" transform="translate(100.903 97.419)" fill="#fff"/></g></svg>