<svg xmlns="http://www.w3.org/2000/svg" width="453.422" height="1100.304" viewBox="0 0 453.422 1100.304"><g transform="translate(-179.578 -3055.999)"><path d="M341.09,3464.294c-83.415-109.027-222.408-313.233-111.064-257.786,139.181,69.328,121.573,67.826,155.853,86.008,34.28,18.166,56.016-37.091-35.206-119.716-91.224-82.608,73.437-45.881,136.753-14.593s48.15-53.011-49.633-96.11,32.787-47.573,74-31.652" transform="translate(-8.476 691.706)" fill="none" stroke="#000" stroke-width="1"/><path d="M487.857,2606.048a12.438,12.438,0,0,0-13.481,11.3l-.455,5.2a49.639,49.639,0,0,0-7.749-1.5,8.21,8.21,0,0,0-9.059,7.241L401.243,3126.3l57.018,6.387,49.567-441.818,7.048.727-7.6,61.234,3.508.426,9.575-77.169-3.508-.427-.236,1.9-7.214-.743.158-1.407a49.037,49.037,0,0,0-11.964-37.977l1.568-17.9A12.449,12.449,0,0,0,487.857,2606.048Zm-54.8,596.917L409.726,3273l-8.484-74.229ZM397,3126.806l63.772,7.684-25.284,67.621-35.436-4.648Z" transform="translate(112.637 450)" fill="#080c10" fill-rule="evenodd"/></g></svg>