<svg width="1000" height="1001" viewBox="0 0 1000 1001" fill="none" xmlns="http://www.w3.org/2000/svg">
<g clip-path="url(#clip0_9_4538)">
<path d="M1000 0.244141H0V1000.24H1000V0.244141Z" fill="#323232"/>
<path d="M649.6 316.644C628.7 291.244 600.4 271.444 567.7 259.744C546.8 252.344 524.1 248.244 500.4 248.244C476.7 248.244 454 252.344 433.1 259.744C400.4 271.344 372.1 291.244 351.2 316.644C327.1 345.744 332.9 476.544 335.2 504.944C336.9 517.144 340.1 528.344 344.2 538.144C344.3 538.244 344.3 538.444 344.4 538.544C349.6 550.944 356.2 561.244 362.6 568.744C365.5 596.244 366.1 638.144 368.7 666.044C378.8 683.744 383.9 692.844 399.1 709.144L405.6 715.644C411.1 721.144 417 727.044 423.2 733.244L427 737.044C427 737.044 427.3 737.344 428 738.244C428.4 738.644 428.7 739.044 429 739.444C430.5 741.144 432.9 744.044 436.6 748.544C437.6 749.744 438.7 751.044 439.7 752.344H500.5H561.3C562.3 751.044 563.4 749.844 564.4 748.544C568.1 744.144 570.5 741.244 572 739.444C572.3 739.044 572.7 738.644 573 738.244C573.7 737.444 574 737.044 574 737.044L577.8 733.244C584 727.044 589.8 721.144 595.4 715.644L601.9 709.144C617.1 692.844 622.2 683.844 632.3 666.044C634.8 638.144 635.5 596.244 638.4 568.744C644.8 561.244 651.4 551.044 656.6 538.544C656.7 538.444 656.7 538.344 656.8 538.144C660.9 528.344 664.1 517.144 665.8 504.944C667.9 476.644 673.7 345.844 649.6 316.644ZM634.7 496.244C629.1 500.444 595.9 504.844 584 503.844C553.6 501.344 538.2 496.444 535.2 495.544C529.8 483.944 528.3 481.044 528.3 481.044H500.4H472.5C472.5 481.044 471 483.944 465.6 495.544C462.5 496.444 447.2 501.344 416.8 503.844C404.9 504.844 371.7 500.444 366.1 496.244C361 481.044 358.5 463.344 358.5 463.344C358.5 463.344 361.7 454.744 363.9 445.944C381.3 463.644 480.7 467.744 497.8 468.244C498.3 468.244 498.7 468.344 499 468.344C499.1 468.344 499.1 468.344 499.2 468.344C500 468.444 500.4 468.444 500.4 468.444C500.4 468.444 500.8 468.444 501.6 468.344C501.7 468.344 501.7 468.344 501.8 468.344C502.1 468.344 502.5 468.344 503 468.244C520.2 467.644 619.5 463.644 636.9 445.944C639.1 454.644 642.3 463.344 642.3 463.344C642.3 463.344 639.8 481.044 634.7 496.244Z" fill="#DD2E2E"/>
<path d="M642.3 463.744C642.3 463.744 639.8 481.444 634.7 496.644C629.1 500.844 595.9 505.244 584 504.244C553.6 501.744 538.2 497.144 535.2 496.144C529.8 484.544 528.3 481.944 528.3 481.944H472.5C472.5 481.944 471 484.544 465.6 496.144C462.5 497.044 447.2 501.844 416.8 504.344C404.9 505.344 371.7 500.844 366.1 496.644C361 481.444 358.5 463.644 358.5 463.644C358.5 463.644 361.7 455.044 363.9 446.244C381.3 463.944 480.7 468.244 497.8 468.844C498.3 468.844 498.7 469.144 499 469.144H499.2C500 469.144 500.4 469.244 500.4 469.244C500.4 469.244 500.8 469.144 501.6 469.144H501.8C502.1 469.144 502.5 468.844 503 468.844C520.2 468.244 619.5 464.044 636.9 446.344C639.1 455.244 642.3 463.744 642.3 463.744Z" fill="#B8FFFF" stroke="black" stroke-width="2.3141" stroke-miterlimit="10"/>
<path d="M642 463.845C642 463.845 639.5 481.445 634.4 496.545C628.8 500.645 595.7 505.045 583.8 504.045C553.5 501.545 538.1 496.945 535.1 496.045C529.7 484.545 528.2 481.945 528.2 481.945H472.6C472.6 481.945 471.1 484.545 465.7 496.045C462.6 496.945 447.3 501.645 417 504.145C405.1 505.145 372 500.645 366.4 496.545C361.3 481.445 358.8 463.845 358.8 463.845C358.8 463.845 362 455.245 364.2 446.645C381.6 464.145 480.7 468.245 497.8 469.045C498.3 469.045 498.7 469.345 499 469.345H499.2C500 469.345 500.4 469.445 500.4 469.445C500.4 469.445 500.8 469.345 501.6 469.345H501.8C502.1 469.345 502.5 469.045 503 469.045C520.1 468.245 619.2 464.245 636.6 446.745C638.8 455.445 642 463.845 642 463.845Z" fill="#B9FFFF"/>
<path d="M641.6 463.944C641.6 463.944 639.1 481.344 634 496.344C628.4 500.444 595.4 504.844 583.6 503.844C553.3 501.344 538.1 496.844 535 495.944C529.6 484.544 528.1 481.944 528.1 481.944H472.6C472.6 481.944 471.1 484.544 465.7 495.944C462.6 496.844 447.4 501.544 417.1 503.944C405.2 504.944 372.2 500.544 366.7 496.444C361.7 481.544 359.1 464.044 359.1 464.044C359.1 464.044 362.3 455.544 364.5 446.944C381.8 464.244 480.7 468.344 497.8 469.144C498.3 469.144 498.7 469.444 499 469.444H499.2C500 469.444 500.4 469.444 500.4 469.444C500.4 469.444 500.8 469.444 501.6 469.444H501.8C502.1 469.444 502.5 469.144 503 469.144C520.1 468.344 618.9 464.444 636.3 447.044C638.4 455.644 641.6 463.944 641.6 463.944Z" fill="#BAFFFF"/>
<path d="M641.3 464.044C641.3 464.044 638.8 481.344 633.8 496.144C628.2 500.244 595.3 504.544 583.5 503.544C553.3 501.044 538.1 496.544 535 495.744C529.6 484.444 528.1 481.844 528.1 481.844H472.8C472.8 481.844 471.3 484.344 465.9 495.744C462.9 496.644 447.6 501.244 417.4 503.744C405.6 504.744 372.7 500.344 367.1 496.244C362.1 481.444 359.6 464.144 359.6 464.144C359.6 464.144 362.8 455.744 365 447.244C382.3 464.444 480.9 468.444 497.9 469.244C498.4 469.244 498.8 469.544 499.1 469.544H499.3C500.1 469.544 500.5 469.544 500.5 469.544C500.5 469.544 500.9 469.544 501.7 469.544H501.9C502.2 469.544 502.6 469.244 503.1 469.244C520.1 468.544 618.7 464.544 636 447.344C638.1 455.744 641.3 464.044 641.3 464.044Z" fill="#BBFFFF"/>
<path d="M640.9 464.144C640.9 464.144 638.4 481.244 633.4 495.944C627.9 499.944 595 504.244 583.2 503.244C553.1 500.844 537.9 496.344 534.9 495.444C529.5 484.244 528.1 481.744 528.1 481.744H472.9C472.9 481.744 471.4 484.244 466.1 495.444C463.1 496.344 447.9 500.944 417.8 503.344C406 504.344 373.2 499.944 367.6 495.944C362.6 481.244 360.1 464.144 360.1 464.144C360.1 464.144 363.3 455.844 365.5 447.344C382.8 464.344 481.1 468.444 498.1 469.144C498.6 469.144 499 469.444 499.3 469.444H499.5C500.3 469.444 500.7 469.444 500.7 469.444C500.7 469.444 501.1 469.444 501.9 469.444H502.1C502.4 469.444 502.8 469.144 503.3 469.144C520.3 468.444 618.6 464.544 635.9 447.444C637.7 455.944 640.9 464.144 640.9 464.144Z" fill="#BCFFFF"/>
<path d="M640.5 464.244C640.5 464.244 638 481.244 633 495.744C627.5 499.744 594.7 503.944 583 503.044C553 500.644 537.8 496.244 534.8 495.344C529.4 484.244 528 481.744 528 481.744H473C473 481.744 471.5 484.244 466.2 495.344C463.2 496.244 448 500.744 418 503.144C406.2 504.144 373.5 499.844 368 495.844C363 481.344 360.5 464.344 360.5 464.344C360.5 464.344 363.7 456.144 365.9 447.744C383.1 464.644 481.2 468.644 498.1 469.344C498.6 469.344 499 469.644 499.3 469.644H499.5C500.3 469.644 500.7 469.644 500.7 469.644C500.7 469.644 501.1 469.644 501.9 469.644H502.1C502.4 469.644 502.8 469.344 503.3 469.344C520.3 468.644 618.3 464.744 635.5 447.844C637.4 456.144 640.5 464.244 640.5 464.244Z" fill="#BDFFFF"/>
<path d="M640.2 464.344C640.2 464.344 637.7 481.144 632.7 495.544C627.2 499.544 594.5 503.744 582.8 502.744C552.8 500.344 537.7 495.944 534.7 495.144C529.4 484.144 527.9 481.644 527.9 481.644H473C473 481.644 471.5 484.144 466.2 495.144C463.2 496.044 448.1 500.444 418.1 502.844C406.4 503.844 373.7 499.544 368.2 495.544C363.2 481.144 360.7 464.344 360.7 464.344C360.7 464.344 363.9 456.144 366.1 447.944C383.3 464.644 481.1 468.644 498 469.344C498.4 469.344 498.9 469.644 499.2 469.644H499.4C500.2 469.644 500.5 469.644 500.5 469.644C500.5 469.644 500.9 469.644 501.6 469.644H501.8C502.1 469.644 502.5 469.344 503 469.344C519.9 468.644 617.7 464.844 634.9 448.044C637 456.344 640.2 464.344 640.2 464.344Z" fill="#BEFFFF"/>
<path d="M639.8 464.445C639.8 464.445 637.3 481.045 632.3 495.345C626.8 499.245 594.2 503.445 582.5 502.445C552.6 500.045 537.5 495.745 534.5 494.845C529.2 483.945 527.7 481.445 527.7 481.445H473C473 481.445 471.5 483.845 466.2 494.845C463.2 495.745 448.1 500.145 418.2 502.545C406.5 503.545 373.9 499.245 368.4 495.345C363.4 481.045 360.9 464.445 360.9 464.445C360.9 464.445 364.1 456.345 366.3 448.145C383.4 464.745 481 468.645 497.9 469.345C498.3 469.345 498.8 469.645 499.1 469.645H499.3C500.1 469.645 500.4 469.645 500.4 469.645C500.4 469.645 500.8 469.645 501.5 469.645H501.7C502 469.645 502.4 469.345 502.9 469.345C519.8 468.645 617.3 464.845 634.5 448.245C636.7 456.545 639.8 464.445 639.8 464.445Z" fill="#BFFFFF"/>
<path d="M639.5 464.645C639.5 464.645 637 481.145 632.1 495.245C626.6 499.145 594.1 503.245 582.4 502.345C552.6 499.945 537.6 495.745 534.6 494.845C529.3 484.045 527.8 481.645 527.8 481.645H473.2C473.2 481.645 471.7 484.045 466.4 494.845C463.4 495.645 448.3 500.045 418.6 502.445C406.9 503.345 374.4 499.245 368.9 495.345C363.9 481.245 361.5 464.745 361.5 464.745C361.5 464.745 364.7 456.745 366.8 448.645C383.9 465.045 481.2 468.945 498 469.645C498.4 469.645 498.9 469.945 499.2 469.945H499.4C500.2 469.945 500.5 469.945 500.5 469.945C500.5 469.945 500.9 469.945 501.6 469.945H501.8C502.1 469.945 502.5 469.645 503 469.645C519.8 468.945 617.1 465.145 634.2 448.745C636.3 456.745 639.5 464.645 639.5 464.645Z" fill="#C0FFFF"/>
<path d="M639.1 464.744C639.1 464.744 636.6 481.044 631.7 495.044C626.2 498.844 593.8 502.944 582.2 502.044C552.5 499.744 537.5 495.444 534.5 494.644C529.2 483.944 527.7 481.544 527.7 481.544H473.2C473.2 481.544 471.7 483.944 466.4 494.644C463.4 495.444 448.4 499.844 418.7 502.144C407.1 503.044 374.6 498.944 369.2 495.044C364.2 481.044 361.8 464.744 361.8 464.744C361.8 464.744 364.9 456.844 367.1 448.744C384.1 464.944 481.2 468.844 498 469.544C498.4 469.544 498.9 469.844 499.2 469.844H499.4C500.2 469.844 500.5 469.844 500.5 469.844C500.5 469.844 500.9 469.844 501.6 469.844H501.8C502.1 469.844 502.5 469.544 503 469.544C519.8 468.844 616.9 465.144 633.9 448.844C636 456.944 639.1 464.744 639.1 464.744Z" fill="#C1FFFF"/>
<path d="M638.8 464.845C638.8 464.845 636.3 481.045 631.4 494.845C625.9 498.645 593.6 502.745 582 501.745C552.4 499.445 537.4 495.245 534.4 494.445C529.1 483.845 527.7 481.445 527.7 481.445H473.4C473.4 481.445 471.9 483.845 466.7 494.445C463.7 495.245 448.7 499.545 419.1 501.945C407.5 502.845 375.2 498.745 369.7 494.945C364.8 481.045 362.3 464.945 362.3 464.945C362.3 464.945 365.4 457.045 367.6 449.145C384.6 465.245 481.4 469.045 498.2 469.745C498.6 469.745 499.1 470.045 499.4 470.045H499.6C500.4 470.045 500.7 470.045 500.7 470.045C500.7 470.045 501.1 470.045 501.8 470.045H502C502.3 470.045 502.7 469.745 503.2 469.745C519.9 469.045 616.8 465.345 633.8 449.245C635.6 457.045 638.8 464.845 638.8 464.845Z" fill="#C2FFFF"/>
<path d="M638.4 464.944C638.4 464.944 635.9 480.944 631 494.644C625.6 498.444 593.3 502.444 581.7 501.544C552.1 499.244 537.2 495.144 534.2 494.244C528.9 483.744 527.5 481.444 527.5 481.444H473.3C473.3 481.444 471.8 483.844 466.6 494.244C463.6 495.044 448.7 499.344 419.1 501.644C407.5 502.544 375.3 498.544 369.8 494.744C364.9 481.044 362.4 464.944 362.4 464.944C362.4 464.944 365.5 457.144 367.7 449.244C384.7 465.144 481.2 468.944 497.9 469.644C498.3 469.644 498.8 469.944 499.1 469.944H499.3C500.1 469.944 500.4 469.944 500.4 469.944C500.4 469.944 500.8 469.944 501.5 469.944H501.7C502 469.944 502.4 469.644 502.9 469.644C519.6 468.944 616.2 465.344 633.1 449.344C635.3 457.244 638.4 464.944 638.4 464.944Z" fill="#C3FFFF"/>
<path d="M638 465.044C638 465.044 635.5 480.844 630.6 494.444C625.2 498.144 593 502.144 581.4 501.244C551.9 498.944 537 494.844 534 494.044C528.7 483.644 527.3 481.344 527.3 481.344H473.2C473.2 481.344 471.7 483.644 466.5 494.044C463.5 494.844 448.6 499.044 419.1 501.344C407.5 502.244 375.4 498.244 369.9 494.544C365 480.944 362.5 465.044 362.5 465.044C362.5 465.044 365.6 457.344 367.8 449.544C384.7 465.344 481 469.044 497.7 469.744C498.1 469.744 498.6 470.044 498.9 470.044H499.1C499.9 470.044 500.2 470.044 500.2 470.044C500.2 470.044 500.6 470.044 501.3 470.044H501.5C501.8 470.044 502.2 469.744 502.7 469.744C519.4 469.044 615.7 465.444 632.6 449.644C634.9 457.444 638 465.044 638 465.044Z" fill="#C4FFFF"/>
<path d="M637.7 465.145C637.7 465.145 635.2 480.845 630.3 494.245C624.9 497.945 592.8 501.845 581.3 500.945C551.9 498.745 537 494.645 534.1 493.845C528.9 483.545 527.4 481.245 527.4 481.245H473.5C473.5 481.245 472.1 483.545 466.8 493.845C463.8 494.645 449 498.845 419.6 501.045C408.1 501.945 376 497.945 370.6 494.245C365.7 480.845 363.2 465.045 363.2 465.045C363.2 465.045 366.3 457.445 368.5 449.645C385.4 465.245 481.4 468.945 498 469.645C498.4 469.645 498.9 469.945 499.2 469.945H499.4C500.2 469.945 500.5 469.945 500.5 469.945C500.5 469.945 500.9 469.945 501.6 469.945H501.8C502.1 469.945 502.5 469.645 503 469.645C519.6 468.945 615.7 465.445 632.5 449.745C634.6 457.645 637.7 465.145 637.7 465.145Z" fill="#C5FFFF"/>
<path d="M637.3 465.244C637.3 465.244 634.9 480.744 630 494.044C624.6 497.744 592.6 501.544 581.1 500.744C551.8 498.544 536.9 494.444 534 493.644C528.8 483.444 527.3 481.144 527.3 481.144H473.5C473.5 481.144 472.1 483.444 466.8 493.644C463.8 494.444 449 498.544 419.7 500.844C408.2 501.744 376.2 497.744 370.8 494.144C365.9 480.844 363.5 465.244 363.5 465.244C363.5 465.244 366.6 457.644 368.8 450.044C385.6 465.544 481.4 469.144 498 469.844C498.4 469.844 498.9 470.144 499.1 470.144H499.3C500.1 470.144 500.4 470.144 500.4 470.144C500.4 470.144 500.8 470.144 501.5 470.144H501.7C502 470.144 502.4 469.844 502.8 469.844C519.4 469.144 615.2 465.644 632 450.144C634.2 457.844 637.3 465.244 637.3 465.244Z" fill="#C6FFFF"/>
<path d="M637 465.344C637 465.344 634.6 480.744 629.7 493.944C624.3 497.544 592.4 501.444 580.9 500.544C551.6 498.344 536.9 494.344 533.9 493.544C528.7 483.444 527.2 481.244 527.2 481.244H473.6C473.6 481.244 472.2 483.544 466.9 493.544C463.9 494.344 449.2 498.444 419.9 500.644C408.4 501.544 376.5 497.644 371.1 494.044C366.2 480.844 363.8 465.444 363.8 465.444C363.8 465.444 366.9 457.944 369 450.344C385.8 465.644 481.3 469.244 497.9 469.944C498.3 469.944 498.8 470.244 499 470.244H499.2C500 470.244 500.3 470.244 500.3 470.244C500.3 470.244 500.7 470.244 501.4 470.244H501.6C501.9 470.244 502.3 469.944 502.7 469.944C519.2 469.244 614.8 465.744 631.6 450.444C633.9 458.044 637 465.344 637 465.344Z" fill="#C7FFFF"/>
<path d="M636.6 465.444C636.6 465.444 634.2 480.644 629.3 493.744C623.9 497.344 592.1 501.144 580.7 500.244C551.5 498.044 536.8 494.144 533.8 493.344C528.6 483.344 527.2 481.144 527.2 481.144H473.7C473.7 481.144 472.3 483.344 467.1 493.344C464.2 494.144 449.4 498.144 420.2 500.344C408.8 501.244 376.9 497.344 371.6 493.744C366.7 480.744 364.3 465.444 364.3 465.444C364.3 465.444 367.4 458.044 369.5 450.544C386.2 465.744 481.5 469.244 498 469.944C498.4 469.944 498.9 470.244 499.1 470.244H499.3C500.1 470.244 500.4 470.244 500.4 470.244C500.4 470.244 500.8 470.244 501.5 470.244H501.7C502 470.244 502.4 469.944 502.8 469.944C519.3 469.244 614.6 465.844 631.3 450.644C633.5 458.244 636.6 465.444 636.6 465.444Z" fill="#C8FFFF"/>
<path d="M636.3 465.544C636.3 465.544 633.9 480.644 629 493.544C623.6 497.044 591.9 500.844 580.5 500.044C551.4 497.844 536.7 493.944 533.8 493.244C528.6 483.344 527.2 481.144 527.2 481.144H473.8C473.8 481.144 472.4 483.344 467.2 493.244C464.3 494.044 449.6 498.044 420.5 500.144C409.1 501.044 377.3 497.144 372 493.644C367.1 480.744 364.7 465.644 364.7 465.644C364.7 465.644 367.8 458.344 369.9 450.944C386.6 465.944 481.7 469.444 498.1 470.144C498.5 470.144 498.9 470.444 499.2 470.444H499.4C500.2 470.444 500.5 470.444 500.5 470.444C500.5 470.444 500.9 470.444 501.6 470.444H501.8C502.1 470.444 502.5 470.144 502.9 470.144C519.3 469.444 614.4 466.044 631.1 451.044C633.2 458.344 636.3 465.544 636.3 465.544Z" fill="#C9FFFF"/>
<path d="M635.9 465.744C635.9 465.744 633.5 480.644 628.6 493.444C623.3 496.944 591.6 500.644 580.2 499.844C551.2 497.744 536.5 493.844 533.6 493.044C528.4 483.244 527 481.044 527 481.044H473.8C473.8 481.044 472.4 483.244 467.2 493.044C464.3 493.844 449.6 497.744 420.6 499.944C409.2 500.844 377.6 497.044 372.2 493.544C367.4 480.744 364.9 465.844 364.9 465.844C364.9 465.844 368 458.544 370.1 451.244C386.7 466.044 481.6 469.544 498 470.244C498.4 470.244 498.8 470.544 499.1 470.544H499.3C500 470.544 500.4 470.544 500.4 470.544C500.4 470.544 500.8 470.544 501.5 470.544H501.7C502 470.544 502.4 470.244 502.8 470.244C519.2 469.644 614 466.244 630.7 451.344C632.8 458.544 635.9 465.744 635.9 465.744Z" fill="#CAFFFF"/>
<path d="M635.5 465.844C635.5 465.844 633.1 480.544 628.3 493.244C623 496.744 591.4 500.444 580 499.544C551 497.444 536.4 493.644 533.5 492.844C528.3 483.144 526.9 481.044 526.9 481.044H473.8C473.8 481.044 472.4 483.244 467.2 492.844C464.3 493.644 449.7 497.544 420.7 499.644C409.4 500.444 377.8 496.744 372.4 493.244C367.6 480.644 365.2 465.844 365.2 465.844C365.2 465.844 368.3 458.644 370.4 451.444C387 466.144 481.6 469.544 497.9 470.244C498.3 470.244 498.7 470.544 499 470.544H499.2C499.9 470.544 500.3 470.544 500.3 470.544C500.3 470.544 500.7 470.544 501.4 470.544H501.6C501.9 470.544 502.3 470.244 502.7 470.244C519.1 469.644 613.6 466.244 630.2 451.544C632.5 458.744 635.5 465.844 635.5 465.844Z" fill="#CBFFFF"/>
<path d="M635.2 465.944C635.2 465.944 632.8 480.544 628 493.044C622.7 496.444 591.2 500.144 579.9 499.344C551 497.244 536.4 493.444 533.5 492.744C528.4 483.144 526.9 481.044 526.9 481.044H474C474 481.044 472.6 483.144 467.4 492.744C464.5 493.544 449.9 497.344 421 499.444C409.7 500.244 378.2 496.544 372.9 493.144C368.1 480.644 365.7 466.044 365.7 466.044C365.7 466.044 368.8 458.944 370.9 451.744C387.5 466.244 481.8 469.644 498.1 470.344C498.5 470.344 498.9 470.644 499.2 470.644H499.4C500.1 470.644 500.5 470.644 500.5 470.644C500.5 470.644 500.9 470.644 501.6 470.644H501.8C502.1 470.644 502.5 470.344 502.9 470.344C519.2 469.744 613.5 466.444 630.1 451.844C632.1 458.944 635.2 465.944 635.2 465.944Z" fill="#CCFFFF"/>
<path d="M634.8 466.044C634.8 466.044 632.4 480.444 627.6 492.844C622.3 496.244 590.9 499.844 579.6 499.044C550.8 496.944 536.3 493.244 533.4 492.444C528.3 482.944 526.8 480.844 526.8 480.844H474C474 480.844 472.6 482.944 467.4 492.444C464.5 493.144 450 497.044 421.2 499.144C409.9 499.944 378.5 496.344 373.2 492.944C368.4 480.544 366 466.144 366 466.144C366 466.144 369 459.144 371.2 452.044C387.7 466.444 481.8 469.844 498 470.444C498.4 470.444 498.8 470.744 499.1 470.744H499.3C500 470.744 500.4 470.744 500.4 470.744C500.4 470.744 500.8 470.744 501.5 470.744H501.7C502 470.744 502.4 470.444 502.8 470.444C519.1 469.844 613.1 466.544 629.6 452.144C631.8 459.144 634.8 466.044 634.8 466.044Z" fill="#CDFFFF"/>
<path d="M634.5 466.145C634.5 466.145 632.1 480.445 627.3 492.645C622 496.045 590.7 499.545 579.4 498.745C550.7 496.745 536.2 493.045 533.3 492.245C528.2 482.845 526.8 480.745 526.8 480.745H474.1C474.1 480.745 472.7 482.845 467.6 492.245C464.7 492.945 450.2 496.745 421.5 498.845C410.2 499.645 378.9 496.045 373.6 492.645C368.8 480.445 366.4 466.145 366.4 466.145C366.4 466.145 369.4 459.245 371.5 452.145C388 466.345 481.8 469.745 498 470.345C498.4 470.345 498.8 470.645 499.1 470.645H499.3C500 470.645 500.4 470.645 500.4 470.645C500.4 470.645 500.8 470.645 501.5 470.645H501.7C502 470.645 502.4 470.445 502.8 470.345C519 469.745 612.8 466.445 629.3 452.245C631.4 459.345 634.5 466.145 634.5 466.145Z" fill="#CEFFFF"/>
<path d="M634.1 466.244C634.1 466.244 631.7 480.344 626.9 492.444C621.6 495.744 590.4 499.344 579.2 498.444C550.6 496.444 536.1 492.744 533.2 492.044C528.1 482.744 526.7 480.744 526.7 480.744H474.2C474.2 480.744 472.8 482.844 467.7 492.044C464.8 492.744 450.3 496.544 421.7 498.544C410.5 499.344 379.2 495.744 374 492.444C369.2 480.344 366.8 466.244 366.8 466.244C366.8 466.244 369.8 459.344 371.9 452.444C388.3 466.544 481.9 469.844 498.1 470.444C498.5 470.444 498.9 470.744 499.2 470.744H499.4C500.1 470.744 500.5 470.744 500.5 470.744C500.5 470.744 500.9 470.744 501.6 470.744H501.8C502.1 470.744 502.5 470.544 502.9 470.444C519.1 469.844 612.6 466.644 629.1 452.544C631.1 459.544 634.1 466.244 634.1 466.244Z" fill="#CFFFFF"/>
<path d="M633.7 466.344C633.7 466.344 631.3 480.344 626.6 492.244C621.3 495.544 590.2 499.044 579 498.244C550.4 496.244 536 492.644 533.1 491.944C528 482.844 526.6 480.744 526.6 480.744H474.2C474.2 480.744 472.8 482.844 467.7 491.944C464.8 492.644 450.4 496.344 421.8 498.344C410.6 499.144 379.4 495.644 374.2 492.344C369.4 480.344 367.1 466.444 367.1 466.444C367.1 466.444 370.1 459.644 372.2 452.744C388.6 466.644 481.9 469.944 498 470.544C498.4 470.544 498.8 470.844 499.1 470.844H499.3C500 470.844 500.4 470.844 500.4 470.844C500.4 470.844 500.8 470.844 501.5 470.844H501.7C502 470.844 502.4 470.644 502.8 470.544C518.9 469.944 612.2 466.744 628.6 452.844C630.7 459.744 633.7 466.344 633.7 466.344Z" fill="#D0FFFF"/>
<path d="M633.4 466.444C633.4 466.444 631 480.244 626.3 492.044C621.1 495.344 590 498.744 578.8 497.944C550.3 495.944 535.9 492.344 533 491.644C527.9 482.644 526.5 480.544 526.5 480.544H474.3C474.3 480.544 472.9 482.544 467.8 491.644C464.9 492.344 450.5 496.044 422 498.044C410.8 498.844 379.8 495.344 374.5 492.044C369.8 480.244 367.4 466.444 367.4 466.444C367.4 466.444 370.4 459.744 372.5 452.944C388.8 466.644 481.9 469.944 498 470.544C498.4 470.544 498.8 470.744 499.1 470.744H499.3C500 470.744 500.4 470.744 500.4 470.744C500.4 470.744 500.8 470.744 501.5 470.744H501.7C502 470.744 502.4 470.544 502.8 470.444C518.9 469.844 612 466.744 628.3 452.944C630.4 459.844 633.4 466.444 633.4 466.444Z" fill="#D1FFFF"/>
<path d="M633 466.544C633 466.544 630.6 480.144 625.9 491.844C620.7 495.044 589.7 498.444 578.5 497.644C550.1 495.744 535.7 492.144 532.9 491.444C527.8 482.544 526.4 480.544 526.4 480.544H474.3C474.3 480.544 472.9 482.544 467.8 491.444C464.9 492.144 450.6 495.744 422.2 497.744C411.1 498.544 380.1 495.044 374.8 491.844C370.1 480.144 367.7 466.444 367.7 466.444C367.7 466.444 370.7 459.844 372.8 453.044C389.1 466.644 481.9 469.844 498 470.444C498.4 470.444 498.8 470.644 499.1 470.644H499.3C500 470.644 500.4 470.644 500.4 470.644C500.4 470.644 500.8 470.644 501.5 470.644H501.7C502 470.644 502.4 470.444 502.8 470.344C518.9 469.744 611.7 466.644 628 453.044C630 460.044 633 466.544 633 466.544Z" fill="#D2FFFF"/>
<path d="M632.7 466.644C632.7 466.644 630.3 480.144 625.6 491.644C620.4 494.844 589.5 498.144 578.4 497.444C550.1 495.544 535.7 492.044 532.9 491.344C527.8 482.544 526.5 480.544 526.5 480.544H474.5C474.5 480.544 473.1 482.544 468.1 491.344C465.2 492.044 450.9 495.644 422.6 497.544C411.5 498.344 380.6 494.944 375.4 491.744C370.7 480.144 368.3 466.644 368.3 466.644C368.3 466.644 371.3 460.044 373.4 453.444C389.6 466.844 482.2 470.044 498.2 470.644C498.6 470.644 499 470.844 499.3 470.844H499.5C500.2 470.844 500.6 470.844 500.6 470.844C500.6 470.844 501 470.844 501.7 470.844H501.9C502.2 470.844 502.6 470.644 503 470.544C519 469.944 611.6 466.944 627.8 453.444C629.7 460.244 632.7 466.644 632.7 466.644Z" fill="#D3FFFF"/>
<path d="M632.3 466.845C632.3 466.845 629.9 480.145 625.2 491.545C620 494.645 589.2 498.045 578.1 497.245C549.8 495.345 535.6 491.845 532.7 491.145C527.7 482.445 526.3 480.445 526.3 480.445H474.5C474.5 480.445 473.1 482.445 468.1 491.145C465.3 491.845 451 495.345 422.7 497.245C411.6 498.045 380.8 494.645 375.6 491.445C370.9 480.045 368.5 466.645 368.5 466.645C368.5 466.645 371.5 460.145 373.6 453.645C389.8 466.945 482.1 470.045 498.1 470.645C498.5 470.645 498.9 470.845 499.2 470.845H499.4C500.1 470.845 500.5 470.845 500.5 470.845C500.5 470.845 500.9 470.845 501.6 470.845H501.8C502.1 470.845 502.5 470.645 502.9 470.645C518.9 470.045 611.2 467.045 627.4 453.745C629.3 460.445 632.3 466.845 632.3 466.845Z" fill="#D4FFFF"/>
<path d="M632 466.944C632 466.944 629.7 480.144 625 491.344C619.8 494.444 589.1 497.744 578 496.944C549.8 495.044 535.6 491.644 532.7 490.944C527.7 482.344 526.3 480.344 526.3 480.344H474.6C474.6 480.344 473.2 482.244 468.2 490.944C465.4 491.644 451.1 495.144 422.9 497.044C411.9 497.844 381.1 494.444 375.9 491.344C371.2 480.044 368.9 466.844 368.9 466.844C368.9 466.844 371.9 460.444 374 453.944C390.2 467.044 482.2 470.144 498.1 470.744C498.5 470.744 498.9 470.944 499.2 470.944H499.4C500.1 470.944 500.5 470.944 500.5 470.944C500.5 470.944 500.9 470.944 501.6 470.944H501.8C502.1 470.944 502.5 470.744 502.9 470.744C518.8 470.144 610.9 467.144 627 454.044C629 460.644 632 466.944 632 466.944Z" fill="#D5FFFF"/>
<path d="M631.6 467.044C631.6 467.044 629.3 480.044 624.6 491.244C619.4 494.344 588.8 497.544 577.8 496.844C549.7 494.944 535.5 491.644 532.7 490.944C527.7 482.444 526.3 480.544 526.3 480.544H474.8C474.8 480.544 473.4 482.444 468.4 490.944C465.6 491.644 451.4 495.044 423.3 496.944C412.3 497.644 381.6 494.344 376.5 491.344C371.8 480.244 369.5 467.144 369.5 467.144C369.5 467.144 372.5 460.844 374.5 454.444C390.6 467.444 482.4 470.444 498.3 471.044C498.7 471.044 499.1 471.244 499.4 471.244H499.6C500.3 471.244 500.7 471.244 500.7 471.244C500.7 471.244 501.1 471.244 501.8 471.244H502C502.3 471.244 502.7 471.044 503.1 471.044C519 470.444 610.8 467.544 626.9 454.544C628.6 460.844 631.6 467.044 631.6 467.044Z" fill="#D6FFFF"/>
<path d="M631.2 467.144C631.2 467.144 628.9 479.944 624.2 491.044C619 494.044 588.5 497.244 577.5 496.544C549.5 494.744 535.3 491.344 532.5 490.744C527.5 482.344 526.1 480.444 526.1 480.444H474.7C474.7 480.444 473.3 482.344 468.3 490.744C465.5 491.444 451.3 494.844 423.3 496.644C412.3 497.344 381.7 494.144 376.6 491.044C371.9 480.044 369.6 467.144 369.6 467.144C369.6 467.144 372.6 460.844 374.6 454.544C390.7 467.344 482.2 470.344 498.1 470.944C498.5 470.944 498.9 471.144 499.2 471.144H499.4C500.1 471.144 500.5 471.144 500.5 471.144C500.5 471.144 500.9 471.144 501.6 471.144H501.8C502.1 471.144 502.5 470.944 502.9 470.944C518.7 470.344 610.3 467.444 626.4 454.644C628.3 461.044 631.2 467.144 631.2 467.144Z" fill="#D7FFFF"/>
<path d="M630.9 467.244C630.9 467.244 628.6 479.944 623.9 490.844C618.8 493.844 588.3 497.044 577.3 496.244C549.3 494.444 535.2 491.144 532.4 490.444C527.4 482.144 526 480.244 526 480.244H474.7C474.7 480.244 473.3 482.144 468.3 490.444C465.5 491.144 451.4 494.444 423.4 496.344C412.5 497.044 382 493.844 376.8 490.844C372.1 479.944 369.8 467.244 369.8 467.244C369.8 467.244 372.8 461.044 374.8 454.844C390.8 467.444 482.1 470.444 497.9 471.044C498.3 471.044 498.7 471.244 499 471.244H499.2C499.9 471.244 500.3 471.244 500.3 471.244C500.3 471.244 500.6 471.244 501.4 471.244H501.6C501.9 471.244 502.3 471.044 502.7 471.044C518.5 470.544 609.8 467.644 625.8 454.944C627.9 461.144 630.9 467.244 630.9 467.244Z" fill="#D8FFFF"/>
<path d="M630.5 467.345C630.5 467.345 628.2 479.845 623.5 490.645C618.4 493.645 588 496.745 577 496.045C549.1 494.245 535 491.045 532.2 490.345C527.2 482.145 525.9 480.245 525.9 480.245H474.8C474.8 480.245 473.4 482.045 468.5 490.345C465.7 490.945 451.6 494.345 423.7 496.145C412.8 496.845 382.4 493.645 377.2 490.745C372.6 480.045 370.2 467.445 370.2 467.445C370.2 467.445 373.2 461.345 375.2 455.145C391.2 467.645 482.2 470.545 498 471.145C498.4 471.145 498.8 471.345 499.1 471.345H499.3C500 471.345 500.4 471.345 500.4 471.345C500.4 471.345 500.7 471.345 501.5 471.345H501.7C502 471.345 502.4 471.145 502.8 471.145C518.5 470.645 609.6 467.745 625.6 455.245C627.6 461.345 630.5 467.345 630.5 467.345Z" fill="#D9FFFF"/>
<path d="M630.2 467.444C630.2 467.444 627.9 479.844 623.2 490.444C618.1 493.344 587.8 496.444 576.9 495.744C549.1 493.944 535.1 490.744 532.3 490.144C527.3 482.044 526 480.244 526 480.244H475C475 480.244 473.6 482.044 468.7 490.144C465.9 490.744 451.9 494.044 424.1 495.844C413.2 496.544 382.9 493.444 377.8 490.544C373.2 479.944 370.8 467.544 370.8 467.544C370.8 467.544 373.7 461.544 375.8 455.444C391.7 467.744 482.5 470.644 498.2 471.244C498.6 471.244 499 471.444 499.3 471.444H499.5C500.2 471.444 500.6 471.444 500.6 471.444C500.6 471.444 500.9 471.444 501.7 471.444H501.9C502.2 471.444 502.6 471.244 503 471.244C518.7 470.744 609.5 467.844 625.4 455.544C627.2 461.544 630.2 467.444 630.2 467.444Z" fill="#DAFFFF"/>
<path d="M629.8 467.544C629.8 467.544 627.5 479.744 622.9 490.244C617.8 493.144 587.5 496.144 576.7 495.444C549 493.744 535 490.544 532.2 489.844C527.3 481.844 525.9 480.044 525.9 480.044H475C475 480.044 473.6 481.844 468.7 489.844C465.9 490.444 451.9 493.744 424.2 495.444C413.3 496.144 383.1 493.044 378 490.144C373.4 479.644 371.1 467.444 371.1 467.444C371.1 467.444 374 461.544 376.1 455.444C392 467.644 482.5 470.444 498.2 471.044C498.6 471.044 499 471.244 499.3 471.244H499.5C500.2 471.244 500.6 471.244 500.6 471.244C500.6 471.244 500.9 471.244 501.7 471.244H501.9C502.2 471.244 502.6 471.044 503 471.044C518.7 470.544 609.2 467.744 625.1 455.544C626.9 461.744 629.8 467.544 629.8 467.544Z" fill="#DBFFFF"/>
<path d="M629.5 467.644C629.5 467.644 627.2 479.744 622.6 490.044C617.5 492.844 587.3 495.944 576.5 495.244C548.9 493.544 534.9 490.344 532.1 489.744C527.2 481.844 525.8 480.044 525.8 480.044H475.1C475.1 480.044 473.7 481.844 468.8 489.744C466 490.344 452 493.544 424.4 495.344C413.6 496.044 383.4 492.944 378.3 490.144C373.7 479.844 371.4 467.744 371.4 467.744C371.4 467.744 374.3 461.844 376.4 455.944C392.3 467.944 482.6 470.744 498.2 471.344C498.6 471.344 499 471.544 499.3 471.544H499.5C500.2 471.544 500.6 471.544 500.6 471.544C500.6 471.544 500.9 471.544 501.7 471.544H501.9C502.2 471.544 502.6 471.344 503 471.344C518.6 470.844 608.9 468.044 624.8 456.044C626.5 461.944 629.5 467.644 629.5 467.644Z" fill="#DBFFFF"/>
<path d="M629.1 467.844C629.1 467.844 626.8 479.744 622.2 489.944C617.1 492.744 587 495.744 576.2 495.044C548.6 493.344 534.7 490.244 531.9 489.644C527 481.844 525.6 480.044 525.6 480.044H475C475 480.044 473.6 481.844 468.7 489.644C465.9 490.244 452 493.444 424.4 495.144C413.6 495.844 383.5 492.844 378.4 490.044C373.8 479.844 371.5 467.944 371.5 467.944C371.5 467.944 374.4 462.144 376.4 456.244C392.2 468.144 482.3 470.844 497.8 471.444C498.2 471.444 498.6 471.644 498.9 471.644H499.1C499.8 471.644 500.2 471.644 500.2 471.644C500.2 471.644 500.5 471.644 501.3 471.644H501.5C501.8 471.644 502.2 471.444 502.6 471.444C518.2 470.944 608.2 468.244 624 456.344C626.2 462.144 629.1 467.844 629.1 467.844Z" fill="#DCFFFF"/>
<path d="M628.7 467.944C628.7 467.944 626.4 479.644 621.8 489.744C616.7 492.544 586.7 495.444 576 494.744C548.5 493.044 534.6 490.044 531.8 489.444C526.9 481.744 525.5 480.044 525.5 480.044H475.1C475.1 480.044 473.7 481.744 468.8 489.444C466 490.044 452.1 493.144 424.6 494.844C413.8 495.544 383.8 492.544 378.8 489.744C374.2 479.644 371.9 467.944 371.9 467.944C371.9 467.944 374.8 462.244 376.8 456.444C392.6 468.144 482.4 470.944 497.9 471.444C498.3 471.444 498.7 471.644 499 471.644H499.2C499.9 471.644 500.3 471.644 500.3 471.644C500.3 471.644 500.6 471.644 501.4 471.644H501.6C501.9 471.644 502.3 471.444 502.7 471.444C518.2 470.944 608 468.244 623.8 456.544C625.8 462.344 628.7 467.944 628.7 467.944Z" fill="#DDFFFF"/>
<path d="M628.4 468.044C628.4 468.044 626.1 479.644 621.5 489.544C616.5 492.244 586.5 495.144 575.8 494.544C548.4 492.844 534.5 489.844 531.8 489.244C526.9 481.644 525.6 479.944 525.6 479.944H475.3C475.3 479.944 474 481.644 469.1 489.244C466.3 489.844 452.5 492.944 425.1 494.544C414.4 495.244 384.5 492.244 379.4 489.544C374.8 479.644 372.5 468.044 372.5 468.044C372.5 468.044 375.4 462.444 377.4 456.744C393.1 468.244 482.7 471.044 498.2 471.544C498.6 471.544 499 471.744 499.3 471.744H499.5C500.2 471.744 500.6 471.744 500.6 471.744C500.6 471.744 500.9 471.744 501.7 471.744H501.9C502.2 471.744 502.6 471.544 503 471.544C518.5 471.044 608 468.444 623.8 456.844C625.5 462.444 628.4 468.044 628.4 468.044Z" fill="#DEFFFF"/>
<path d="M628 468.144C628 468.144 625.7 479.544 621.2 489.344C616.2 492.044 586.3 494.944 575.6 494.244C548.3 492.644 534.4 489.644 531.7 489.044C526.8 481.544 525.5 479.844 525.5 479.844H475.4C475.4 479.844 474.1 481.544 469.2 489.044C466.4 489.644 452.6 492.644 425.3 494.344C414.6 495.044 384.8 492.144 379.7 489.444C375.1 479.644 372.9 468.244 372.9 468.244C372.9 468.244 375.8 462.644 377.8 457.044C393.5 468.444 482.8 471.144 498.2 471.644C498.6 471.644 499 471.844 499.3 471.844H499.5C500.2 471.844 500.5 471.844 500.5 471.844C500.5 471.844 500.8 471.844 501.5 471.844H501.7C502 471.844 502.4 471.644 502.8 471.644C518.2 471.144 607.5 468.544 623.2 457.144C625.1 462.644 628 468.144 628 468.144Z" fill="#DFFFFF"/>
<path d="M627.7 468.245C627.7 468.245 625.4 479.545 620.9 489.145C615.9 491.845 586.1 494.645 575.5 493.945C548.2 492.345 534.5 489.445 531.7 488.845C526.8 481.445 525.5 479.845 525.5 479.845H475.5C475.5 479.845 474.2 481.545 469.3 488.845C466.6 489.445 452.8 492.445 425.5 494.045C414.8 494.645 385.1 491.845 380.1 489.145C375.6 479.445 373.3 468.145 373.3 468.145C373.3 468.145 376.2 462.645 378.2 457.145C393.8 468.345 482.9 471.045 498.3 471.545C498.7 471.545 499.1 471.745 499.4 471.745H499.6C500.3 471.745 500.6 471.745 500.6 471.745C500.6 471.745 500.9 471.745 501.6 471.745H501.8C502.1 471.745 502.5 471.545 502.9 471.545C518.3 471.045 607.4 468.445 623 457.245C624.8 462.845 627.7 468.245 627.7 468.245Z" fill="#E0FFFF"/>
<path d="M627.3 468.344C627.3 468.344 625 479.444 620.5 488.944C615.5 491.544 585.8 494.344 575.2 493.744C548 492.144 534.3 489.244 531.5 488.744C526.7 481.444 525.3 479.844 525.3 479.844H475.5C475.5 479.844 474.2 481.444 469.3 488.744C466.6 489.344 452.8 492.244 425.6 493.844C415 494.444 385.3 491.644 380.3 489.044C375.8 479.544 373.5 468.344 373.5 468.344C373.5 468.344 376.4 462.944 378.4 457.444C394 468.544 482.8 471.144 498.1 471.644C498.5 471.644 498.9 471.844 499.2 471.844H499.4C500.1 471.844 500.4 471.844 500.4 471.844C500.4 471.844 500.7 471.844 501.4 471.844H501.6C501.9 471.844 502.3 471.644 502.7 471.644C518.1 471.144 606.9 468.644 622.4 457.544C624.4 463.044 627.3 468.344 627.3 468.344Z" fill="#E1FFFF"/>
<path d="M626.9 468.444C626.9 468.444 624.6 479.444 620.1 488.744C615.1 491.344 585.5 494.044 574.9 493.444C547.8 491.844 534.1 489.044 531.4 488.444C526.6 481.244 525.2 479.644 525.2 479.644H475.5C475.5 479.644 474.2 481.244 469.3 488.444C466.6 489.044 452.9 491.944 425.8 493.544C415.2 494.144 385.6 491.344 380.6 488.844C376.1 479.444 373.8 468.444 373.8 468.444C373.8 468.444 376.7 463.144 378.7 457.744C394.2 468.644 482.8 471.244 498.1 471.744C498.5 471.744 498.9 471.944 499.2 471.944H499.4C500.1 471.944 500.4 471.944 500.4 471.944C500.4 471.944 500.7 471.944 501.4 471.944H501.6C501.9 471.944 502.3 471.744 502.7 471.744C518 471.244 606.6 468.744 622.1 457.844C624.1 463.244 626.9 468.444 626.9 468.444Z" fill="#E2FFFF"/>
<path d="M626.6 468.544C626.6 468.544 624.3 479.344 619.8 488.644C614.8 491.144 585.3 493.844 574.7 493.244C547.7 491.744 534 488.944 531.3 488.344C526.5 481.244 525.1 479.644 525.1 479.644H475.5C475.5 479.644 474.2 481.244 469.3 488.344C466.6 488.944 452.9 491.744 425.9 493.344C415.3 493.944 385.8 491.244 380.8 488.644C376.3 479.344 374 468.544 374 468.544C374 468.544 376.9 463.244 378.8 457.944C394.3 468.744 482.6 471.244 497.9 471.744C498.3 471.744 498.7 471.944 499 471.944H499.2C499.9 471.944 500.2 471.944 500.2 471.944C500.2 471.944 500.5 471.944 501.2 471.944H501.4C501.7 471.944 502.1 471.744 502.5 471.744C517.8 471.244 606.1 468.844 621.6 458.044C623.7 463.444 626.6 468.544 626.6 468.544Z" fill="#E3FFFF"/>
<path d="M626.2 468.644C626.2 468.644 624 479.244 619.5 488.444C614.5 490.944 585.1 493.644 574.6 493.044C547.6 491.544 534 488.744 531.3 488.244C526.5 481.244 525.2 479.744 525.2 479.744H475.8C475.8 479.744 474.5 481.344 469.7 488.244C467 488.744 453.4 491.644 426.4 493.144C415.8 493.744 386.4 491.044 381.5 488.544C377 479.444 374.8 468.744 374.8 468.744C374.8 468.744 377.7 463.544 379.6 458.344C395.1 468.944 483.1 471.444 498.3 471.944C498.7 471.944 499.1 472.144 499.4 472.144H499.6C500.3 472.144 500.6 472.144 500.6 472.144C500.6 472.144 500.9 472.144 501.6 472.144H501.8C502.1 472.144 502.5 471.944 502.9 471.944C518.1 471.444 606.2 469.044 621.6 458.444C623.4 463.644 626.2 468.644 626.2 468.644Z" fill="#E4FFFF"/>
<path d="M625.9 468.744C625.9 468.744 623.7 479.244 619.2 488.244C614.2 490.744 584.9 493.344 574.4 492.744C547.5 491.244 533.9 488.544 531.2 487.944C526.4 481.044 525.1 479.544 525.1 479.544H475.8C475.8 479.544 474.5 481.044 469.7 487.944C467 488.444 453.4 491.244 426.5 492.744C416 493.344 386.6 490.644 381.7 488.244C377.2 479.244 375 468.744 375 468.744C375 468.744 377.8 463.644 379.8 458.444C395.2 468.844 483 471.344 498.2 471.844C498.6 471.844 499 472.044 499.3 472.044H499.5C500.2 472.044 500.5 472.044 500.5 472.044C500.5 472.044 500.8 472.044 501.5 472.044H501.7C502 472.044 502.3 471.844 502.8 471.844C518 471.344 605.8 469.044 621.2 458.544C623 463.744 625.9 468.744 625.9 468.744Z" fill="#E5FFFF"/>
<path d="M625.5 468.944C625.5 468.944 623.3 479.244 618.8 488.144C613.9 490.544 584.6 493.144 574.1 492.544C547.3 491.044 533.8 488.344 531.1 487.844C526.3 481.044 525 479.544 525 479.544H475.9C475.9 479.544 474.6 481.044 469.8 487.844C467.1 488.344 453.6 491.144 426.8 492.644C416.3 493.244 387.1 490.644 382.1 488.144C377.6 479.344 375.4 468.944 375.4 468.944C375.4 468.944 378.2 463.944 380.2 458.844C395.6 469.144 483.1 471.544 498.3 472.044C498.7 472.044 499.1 472.244 499.3 472.244H499.5C500.2 472.244 500.5 472.244 500.5 472.244C500.5 472.244 500.8 472.244 501.5 472.244H501.7C502 472.244 502.3 472.044 502.7 472.044C517.8 471.644 605.4 469.244 620.8 458.944C622.7 463.944 625.5 468.944 625.5 468.944Z" fill="#E6FFFF"/>
<path d="M625.2 469.045C625.2 469.045 623 479.245 618.5 487.945C613.6 490.345 584.4 492.845 574 492.345C547.3 490.845 533.8 488.245 531.1 487.745C526.3 481.045 525 479.545 525 479.545H476C476 479.545 474.7 481.045 469.9 487.745C467.2 488.245 453.7 490.945 427 492.445C416.5 493.045 387.4 490.445 382.5 488.045C378 479.345 375.8 469.145 375.8 469.145C375.8 469.145 378.6 464.245 380.6 459.145C395.9 469.245 483.2 471.645 498.3 472.145C498.7 472.145 499.1 472.345 499.3 472.345H499.5C500.2 472.345 500.5 472.345 500.5 472.345C500.5 472.345 500.8 472.345 501.5 472.345H501.7C502 472.345 502.3 472.145 502.7 472.145C517.8 471.745 605.1 469.345 620.4 459.245C622.3 464.145 625.2 469.045 625.2 469.045Z" fill="#E7FFFF"/>
<path d="M624.8 469.144C624.8 469.144 622.6 479.144 618.1 487.744C613.2 490.144 584.1 492.644 573.7 492.044C547 490.644 533.6 488.044 530.9 487.544C526.1 480.944 524.8 479.544 524.8 479.544H476C476 479.544 474.7 481.044 469.9 487.544C467.2 488.044 453.8 490.744 427.1 492.144C416.7 492.744 387.6 490.144 382.7 487.844C378.3 479.244 376 469.244 376 469.244C376 469.244 378.8 464.344 380.8 459.444C396.1 469.444 483.1 471.744 498.2 472.144C498.6 472.144 499 472.344 499.2 472.344H499.4C500.1 472.344 500.4 472.344 500.4 472.344C500.4 472.344 500.7 472.344 501.4 472.344H501.6C501.9 472.344 502.2 472.144 502.6 472.144C517.7 471.744 604.7 469.444 620 459.444C622 464.344 624.8 469.144 624.8 469.144Z" fill="#E8FFFF"/>
<path d="M624.4 469.244C624.4 469.244 622.2 479.144 617.8 487.544C612.9 489.844 583.9 492.344 573.5 491.744C546.9 490.344 533.5 487.744 530.8 487.244C526.1 480.744 524.8 479.344 524.8 479.344H476.1C476.1 479.344 474.8 480.744 470.1 487.244C467.4 487.744 454 490.344 427.4 491.744C417 492.344 388 489.844 383.1 487.444C378.7 479.044 376.5 469.144 376.5 469.144C376.5 469.144 379.3 464.344 381.3 459.544C396.5 469.344 483.3 471.644 498.3 472.044C498.7 472.044 499.1 472.244 499.3 472.244H499.5C500.2 472.244 500.5 472.244 500.5 472.244C500.5 472.244 500.8 472.244 501.5 472.244H501.7C502 472.244 502.3 472.044 502.7 472.044C517.7 471.644 604.5 469.344 619.7 459.544C621.6 464.544 624.4 469.244 624.4 469.244Z" fill="#E9FFFF"/>
<path d="M624.1 469.344C624.1 469.344 621.9 479.044 617.5 487.344C612.6 489.644 583.7 492.044 573.3 491.544C546.8 490.144 533.4 487.644 530.7 487.144C526 480.744 524.7 479.344 524.7 479.344H476.1C476.1 479.344 474.8 480.744 470.1 487.144C467.4 487.644 454 490.244 427.5 491.644C417.1 492.244 388.2 489.744 383.3 487.444C378.9 479.144 376.7 469.444 376.7 469.444C376.7 469.444 379.5 464.744 381.4 459.944C396.6 469.644 483.1 471.844 498.1 472.244C498.5 472.244 498.9 472.444 499.1 472.444H499.3C500 472.444 500.3 472.444 500.3 472.444C500.3 472.444 500.6 472.444 501.3 472.444H501.5C501.8 472.444 502.1 472.244 502.5 472.244C517.5 471.844 604 469.644 619.2 459.944C621.3 464.744 624.1 469.344 624.1 469.344Z" fill="#EAFFFF"/>
<path d="M623.7 469.444C623.7 469.444 621.5 478.944 617.1 487.144C612.2 489.344 583.4 491.744 573.1 491.244C546.7 489.844 533.3 487.444 530.7 486.944C526 480.644 524.7 479.244 524.7 479.244H476.3C476.3 479.244 475 480.644 470.3 486.944C467.6 487.444 454.3 489.944 427.9 491.344C417.6 491.844 388.7 489.444 383.9 487.244C379.5 479.044 377.3 469.544 377.3 469.544C377.3 469.544 380.1 464.944 382 460.244C397.1 469.744 483.4 471.944 498.4 472.344C498.8 472.344 499.2 472.544 499.4 472.544H499.6C500.3 472.544 500.6 472.544 500.6 472.544C500.6 472.544 500.9 472.544 501.6 472.544H501.8C502.1 472.544 502.4 472.344 502.8 472.344C517.7 471.944 604 469.744 619.2 460.244C620.9 464.944 623.7 469.444 623.7 469.444Z" fill="#EBFFFF"/>
<path d="M623.4 469.544C623.4 469.544 621.2 478.944 616.8 486.944C611.9 489.144 583.2 491.544 572.9 490.944C546.6 489.644 533.2 487.144 530.6 486.644C525.9 480.544 524.6 479.144 524.6 479.144H476.3C476.3 479.144 475 480.544 470.3 486.644C467.6 487.144 454.3 489.644 428 490.944C417.7 491.444 388.9 489.144 384.1 486.844C379.7 478.844 377.5 469.444 377.5 469.444C377.5 469.444 380.3 464.844 382.2 460.244C397.3 469.544 483.3 471.744 498.2 472.144C498.6 472.144 499 472.344 499.2 472.344H499.4C500.1 472.344 500.4 472.344 500.4 472.344C500.4 472.344 500.7 472.344 501.4 472.344H501.6C501.9 472.344 502.2 472.144 502.6 472.144C517.5 471.744 603.5 469.644 618.6 460.244C620.6 465.044 623.4 469.544 623.4 469.544Z" fill="#ECFFFF"/>
<path d="M623 469.644C623 469.644 620.8 478.844 616.4 486.744C611.6 488.944 582.9 491.244 572.6 490.744C546.3 489.444 533.1 487.044 530.4 486.544C525.7 480.544 524.4 479.144 524.4 479.144H476.2C476.2 479.144 474.9 480.544 470.2 486.544C467.6 487.044 454.3 489.444 428 490.844C417.7 491.344 389.1 489.044 384.2 486.844C379.8 478.944 377.6 469.744 377.6 469.744C377.6 469.744 380.4 465.244 382.3 460.744C397.4 469.944 483.2 472.044 498 472.444C498.4 472.444 498.8 472.644 499 472.644H499.2C499.9 472.644 500.2 472.644 500.2 472.644C500.2 472.644 500.5 472.644 501.2 472.644H501.4C501.7 472.644 502 472.444 502.4 472.444C517.2 472.044 603 469.944 618.1 460.744C620.2 465.244 623 469.644 623 469.644Z" fill="#EDFFFF"/>
<path d="M622.6 469.744C622.6 469.744 620.4 478.844 616.1 486.544C611.3 488.644 582.7 490.944 572.4 490.444C546.2 489.144 533 486.744 530.3 486.344C525.6 480.444 524.3 479.044 524.3 479.044H476.3C476.3 479.044 475 480.344 470.3 486.344C467.7 486.844 454.4 489.244 428.2 490.544C417.9 491.044 389.4 488.744 384.5 486.644C380.1 478.844 378 469.844 378 469.844C378 469.844 380.8 465.444 382.7 460.944C397.7 469.944 483.3 472.144 498.1 472.444C498.5 472.444 498.9 472.644 499.1 472.644H499.3C500 472.644 500.3 472.644 500.3 472.644C500.3 472.644 500.6 472.644 501.3 472.644H501.5C501.8 472.644 502.1 472.444 502.5 472.444C517.3 472.044 602.8 469.944 617.9 460.944C619.9 465.444 622.6 469.744 622.6 469.744Z" fill="#EEFFFF"/>
<path d="M622.3 469.845C622.3 469.845 620.1 478.745 615.8 486.345C611 488.445 582.5 490.645 572.3 490.145C546.2 488.845 533 486.545 530.4 486.145C525.7 480.345 524.5 479.045 524.5 479.045H476.6C476.6 479.045 475.3 480.345 470.7 486.145C468.1 486.645 454.9 488.945 428.8 490.245C418.6 490.745 390.1 488.545 385.3 486.445C380.9 478.845 378.8 469.845 378.8 469.845C378.8 469.845 381.6 465.545 383.5 461.145C398.5 470.045 483.8 472.145 498.5 472.445C498.9 472.445 499.3 472.645 499.5 472.645H499.7C500.4 472.645 500.7 472.645 500.7 472.645C500.7 472.645 501 472.645 501.7 472.645H501.9C502.2 472.645 502.5 472.445 502.9 472.445C517.7 472.045 602.9 470.045 617.9 461.145C619.5 465.645 622.3 469.845 622.3 469.845Z" fill="#EFFFFF"/>
<path d="M621.9 470.044C621.9 470.044 619.7 478.744 615.4 486.244C610.6 488.344 582.2 490.444 572 489.944C546 488.744 532.8 486.444 530.2 485.944C525.6 480.244 524.3 478.944 524.3 478.944H476.6C476.6 478.944 475.3 480.244 470.7 485.944C468.1 486.344 454.9 488.744 428.9 489.944C418.7 490.444 390.3 488.244 385.5 486.144C381.2 478.644 379 469.844 379 469.844C379 469.844 381.8 465.544 383.7 461.244C398.6 469.944 483.7 472.044 498.4 472.344C498.8 472.344 499.2 472.544 499.4 472.544H499.6C500.3 472.544 500.6 472.544 500.6 472.544C500.6 472.544 500.9 472.544 501.6 472.544H501.8C502.1 472.544 502.4 472.344 502.8 472.344C517.5 471.944 602.6 469.944 617.5 461.244C619.2 465.844 621.9 470.044 621.9 470.044Z" fill="#F0FFFF"/>
<path d="M621.6 470.144C621.6 470.144 619.4 478.744 615.1 486.144C610.3 488.144 582 490.344 571.8 489.844C545.8 488.644 532.7 486.344 530.1 485.944C525.5 480.344 524.2 479.044 524.2 479.044H476.6C476.6 479.044 475.3 480.344 470.7 485.944C468.1 486.344 455 488.644 429 489.944C418.8 490.444 390.5 488.244 385.7 486.244C381.4 478.844 379.2 470.244 379.2 470.244C379.2 470.244 381.9 466.044 383.9 461.844C398.8 470.444 483.6 472.444 498.2 472.744C498.6 472.744 499 472.944 499.2 472.944H499.4C500.1 472.944 500.4 472.944 500.4 472.944C500.4 472.944 500.7 472.944 501.4 472.944H501.6C501.9 472.944 502.2 472.844 502.6 472.744C517.3 472.344 602.1 470.444 616.9 461.844C618.8 466.044 621.6 470.144 621.6 470.144Z" fill="#F1FFFF"/>
<path d="M621.2 470.244C621.2 470.244 619 478.644 614.7 485.944C609.9 487.944 581.7 490.044 571.6 489.544C545.7 488.344 532.6 486.144 530 485.744C525.4 480.244 524.1 478.944 524.1 478.944H476.6C476.6 478.944 475.3 480.144 470.7 485.744C468.1 486.144 455 488.444 429.1 489.644C419 490.144 390.7 487.944 386 486.044C381.7 478.844 379.5 470.344 379.5 470.344C379.5 470.344 382.2 466.244 384.1 462.044C398.9 470.444 483.5 472.444 498.1 472.744C498.5 472.744 498.9 472.944 499.1 472.944H499.3C500 472.944 500.3 472.944 500.3 472.944C500.3 472.944 500.6 472.944 501.3 472.944H501.5C501.8 472.944 502.1 472.844 502.5 472.744C517.1 472.344 601.7 470.444 616.5 462.044C618.5 466.244 621.2 470.244 621.2 470.244Z" fill="#F2FFFF"/>
<path d="M620.9 470.344C620.9 470.344 618.7 478.644 614.4 485.744C609.6 487.744 581.5 489.744 571.4 489.244C545.6 488.044 532.6 485.944 530 485.444C525.4 480.044 524.1 478.844 524.1 478.844H476.8C476.8 478.844 475.5 480.044 470.9 485.444C468.3 485.844 455.3 488.044 429.5 489.244C419.4 489.744 391.2 487.644 386.5 485.644C382.2 478.544 380 470.244 380 470.244C380 470.244 382.7 466.244 384.6 462.144C399.4 470.344 483.7 472.344 498.3 472.644C498.7 472.644 499.1 472.744 499.3 472.744H499.5C500.2 472.744 500.5 472.744 500.5 472.744C500.5 472.744 500.8 472.744 501.5 472.744H501.7C502 472.744 502.3 472.644 502.7 472.544C517.3 472.144 601.6 470.344 616.4 462.044C618.1 466.344 620.9 470.344 620.9 470.344Z" fill="#F3FFFF"/>
<path d="M620.5 470.444C620.5 470.444 618.4 478.544 614.1 485.544C609.4 487.444 581.3 489.444 571.2 489.044C545.5 487.844 532.5 485.744 529.9 485.344C525.3 480.044 524 478.844 524 478.844H476.8C476.8 478.844 475.5 480.044 470.9 485.344C468.3 485.744 455.3 487.944 429.6 489.044C419.5 489.544 391.5 487.444 386.7 485.544C382.4 478.544 380.3 470.444 380.3 470.444C380.3 470.444 383 466.544 384.9 462.544C399.7 470.644 483.7 472.544 498.2 472.844C498.6 472.844 499 472.944 499.2 472.944H499.4C500.1 472.944 500.4 472.944 500.4 472.944C500.4 472.944 500.7 472.944 501.4 472.944H501.6C501.9 472.944 502.2 472.844 502.6 472.744C517.1 472.344 601.2 470.544 615.9 462.444C617.8 466.544 620.5 470.444 620.5 470.444Z" fill="#F4FFFF"/>
<path d="M620.1 470.544C620.1 470.544 618 478.544 613.7 485.344C609 487.244 581 489.244 571 488.744C545.3 487.644 532.4 485.544 529.8 485.144C525.2 479.944 524 478.744 524 478.744H477C477 478.744 475.7 479.944 471.2 485.144C468.6 485.544 455.7 487.644 430 488.844C420 489.344 392 487.244 387.2 485.444C382.9 478.644 380.8 470.644 380.8 470.644C380.8 470.644 383.5 466.744 385.4 462.844C400.1 470.744 483.9 472.644 498.4 472.944C498.8 472.944 499.1 473.044 499.4 473.044H499.5C500.2 473.044 500.5 473.044 500.5 473.044C500.5 473.044 500.8 473.044 501.5 473.044H501.6C501.9 473.044 502.2 472.944 502.6 472.944C517.1 472.644 600.9 470.744 615.6 462.844C617.4 466.744 620.1 470.544 620.1 470.544Z" fill="#F5FFFF"/>
<path d="M619.8 470.644C619.8 470.644 617.7 478.444 613.4 485.144C608.7 486.944 580.8 488.944 570.8 488.444C545.2 487.344 532.3 485.344 529.7 484.944C525.1 479.844 523.9 478.644 523.9 478.644H477C477 478.644 475.7 479.744 471.2 484.944C468.6 485.344 455.7 487.444 430.1 488.544C420.1 488.944 392.2 487.044 387.5 485.144C383.2 478.444 381.1 470.644 381.1 470.644C381.1 470.644 383.8 466.844 385.7 463.044C400.4 470.844 483.9 472.644 498.4 472.944C498.8 472.944 499.1 473.044 499.4 473.044H499.5C500.2 473.044 500.5 473.044 500.5 473.044C500.5 473.044 500.8 473.044 501.5 473.044H501.6C501.9 473.044 502.2 472.944 502.6 472.944C517.1 472.644 600.6 470.844 615.3 463.044C617.1 466.944 619.8 470.644 619.8 470.644Z" fill="#F6FFFF"/>
<path d="M619.4 470.744C619.4 470.744 617.3 478.344 613 484.944C608.3 486.744 580.5 488.644 570.5 488.244C545 487.144 532.1 485.144 529.5 484.744C525 479.744 523.7 478.644 523.7 478.644H477C477 478.644 475.7 479.744 471.2 484.744C468.6 485.144 455.8 487.144 430.2 488.244C420.2 488.644 392.4 486.744 387.7 484.944C383.4 478.344 381.3 470.744 381.3 470.744C381.3 470.744 384 467.044 385.9 463.244C400.5 470.844 483.8 472.644 498.2 472.944C498.6 472.944 498.9 473.044 499.2 473.044H499.3C500 473.044 500.3 473.044 500.3 473.044C500.3 473.044 500.6 473.044 501.3 473.044H501.4C501.7 473.044 502 472.944 502.4 472.944C516.8 472.644 600.1 470.844 614.7 463.244C616.7 467.144 619.4 470.744 619.4 470.744Z" fill="#F7FFFF"/>
<path d="M619.1 470.845C619.1 470.845 617 478.345 612.7 484.745C608 486.545 580.3 488.345 570.3 487.945C544.9 486.845 532 484.945 529.5 484.545C525 479.645 523.7 478.545 523.7 478.545H477.1C477.1 478.545 475.8 479.645 471.3 484.545C468.7 484.945 455.9 486.945 430.5 488.045C420.5 488.445 392.8 486.545 388.1 484.845C383.9 478.445 381.7 470.945 381.7 470.945C381.7 470.945 384.4 467.345 386.3 463.645C400.9 471.145 483.9 472.845 498.3 473.145C498.7 473.145 499 473.245 499.3 473.245H499.4C500.1 473.245 500.4 473.245 500.4 473.245C500.4 473.245 500.7 473.245 501.4 473.245H501.5C501.8 473.245 502.1 473.145 502.5 473.145C516.9 472.845 599.9 471.145 614.5 463.645C616.4 467.345 619.1 470.845 619.1 470.845Z" fill="#F8FFFF"/>
<path d="M618.7 471.044C618.7 471.044 616.6 478.344 612.4 484.644C607.7 486.344 580.1 488.244 570.2 487.744C544.9 486.744 532.1 484.744 529.5 484.444C525 479.644 523.7 478.544 523.7 478.544H477.2C477.2 478.544 476 479.644 471.4 484.444C468.8 484.844 456 486.744 430.7 487.844C420.8 488.244 393.1 486.444 388.5 484.644C384.3 478.344 382.2 471.044 382.2 471.044C382.2 471.044 384.9 467.444 386.7 463.844C401.2 471.144 484 472.844 498.3 473.144C498.7 473.144 499 473.244 499.3 473.244H499.4C500.1 473.244 500.4 473.244 500.4 473.244C500.4 473.244 500.7 473.244 501.4 473.244H501.5C501.8 473.244 502.1 473.144 502.5 473.144C516.8 472.844 599.6 471.144 614.1 463.844C616 467.544 618.7 471.044 618.7 471.044Z" fill="#F9FFFF"/>
<path d="M618.4 471.145C618.4 471.145 616.3 478.345 612.1 484.445C607.4 486.145 579.9 487.945 570 487.545C544.7 486.545 532 484.645 529.4 484.245C524.9 479.545 523.7 478.445 523.7 478.445H477.4C477.4 478.445 476.2 479.545 471.7 484.245C469.2 484.645 456.4 486.545 431.1 487.545C421.2 487.945 393.6 486.145 389 484.445C384.8 478.345 382.7 471.145 382.7 471.145C382.7 471.145 385.4 467.645 387.2 464.145C401.7 471.245 484.2 472.945 498.5 473.245C498.9 473.245 499.2 473.345 499.5 473.345H499.6C500.3 473.345 500.6 473.345 500.6 473.345C500.6 473.345 500.9 473.345 501.6 473.345H501.7C502 473.345 502.3 473.245 502.7 473.245C517 472.945 599.5 471.345 614 464.145C615.7 467.645 618.4 471.145 618.4 471.145Z" fill="#FAFFFF"/>
<path d="M618 471.244C618 471.244 615.9 478.244 611.7 484.244C607.1 485.944 579.6 487.644 569.7 487.244C544.5 486.244 531.8 484.444 529.2 484.044C524.7 479.444 523.5 478.444 523.5 478.444H477.3C477.3 478.444 476.1 479.444 471.6 484.044C469.1 484.444 456.3 486.244 431.1 487.244C421.2 487.644 393.7 485.844 389.1 484.244C384.9 478.244 382.8 471.244 382.8 471.244C382.8 471.244 385.5 467.844 387.3 464.344C401.7 471.344 484 472.944 498.3 473.244C498.7 473.244 499 473.344 499.3 473.344H499.4C500.1 473.344 500.4 473.344 500.4 473.344C500.4 473.344 500.7 473.344 501.4 473.344H501.5C501.8 473.344 502.1 473.244 502.5 473.244C516.7 472.944 599 471.344 613.5 464.344C615.3 467.844 618 471.244 618 471.244Z" fill="#FBFFFF"/>
<path d="M617.6 471.345C617.6 471.345 615.5 478.245 611.3 484.045C606.7 485.645 579.3 487.345 569.4 486.945C544.3 485.945 531.6 484.145 529.1 483.845C524.6 479.345 523.4 478.345 523.4 478.345H477.3C477.3 478.345 476.1 479.345 471.6 483.845C469.1 484.245 456.4 486.045 431.3 487.045C421.5 487.445 394.1 485.745 389.4 484.045C385.2 478.145 383.1 471.345 383.1 471.345C383.1 471.345 385.8 468.045 387.6 464.645C402 471.445 484 473.045 498.2 473.345C498.6 473.345 498.9 473.445 499.2 473.445H499.3C499.9 473.445 500.3 473.445 500.3 473.445C500.3 473.445 500.6 473.445 501.3 473.445H501.4C501.7 473.445 502 473.345 502.4 473.345C516.6 473.045 598.6 471.445 613 464.645C615 468.045 617.6 471.345 617.6 471.345Z" fill="#FCFFFF"/>
<path d="M617.3 471.444C617.3 471.444 615.2 478.144 611 483.844C606.4 485.444 579.1 487.144 569.3 486.744C544.3 485.744 531.6 484.044 529.1 483.744C524.6 479.344 523.4 478.344 523.4 478.344H477.5C477.5 478.344 476.3 479.344 471.8 483.744C469.3 484.044 456.6 485.844 431.6 486.844C421.8 487.244 394.5 485.544 389.9 483.944C385.7 478.244 383.6 471.544 383.6 471.544C383.6 471.544 386.3 468.244 388.1 464.944C402.5 471.644 484.2 473.144 498.4 473.444C498.8 473.444 499.1 473.544 499.4 473.544H499.5C500.1 473.544 500.5 473.544 500.5 473.544C500.5 473.544 500.8 473.544 501.5 473.544H501.6C501.9 473.544 502.2 473.444 502.6 473.444C516.7 473.144 598.5 471.644 612.9 464.944C614.6 468.244 617.3 471.444 617.3 471.444Z" fill="#FDFFFF"/>
<path d="M616.9 471.544C616.9 471.544 614.8 478.044 610.7 483.644C606.1 485.144 578.9 486.844 569.1 486.444C544.1 485.544 531.5 483.844 529 483.444C524.5 479.144 523.3 478.244 523.3 478.244H477.5C477.5 478.244 476.3 479.244 471.8 483.444C469.3 483.744 456.7 485.544 431.7 486.444C421.9 486.844 394.7 485.144 390.1 483.644C385.9 478.044 383.9 471.444 383.9 471.444C383.9 471.444 386.5 468.244 388.4 465.044C402.7 471.544 484.2 473.044 498.4 473.344C498.8 473.344 499.1 473.444 499.4 473.444H499.5C500.1 473.444 500.5 473.444 500.5 473.444C500.5 473.444 500.8 473.444 501.5 473.444H501.6C501.8 473.444 502.2 473.344 502.6 473.344C516.7 473.044 598.2 471.544 612.6 465.044C614.3 468.444 616.9 471.544 616.9 471.544Z" fill="#FEFFFF"/>
<path d="M616.6 471.644C616.6 471.644 614.5 478.044 610.4 483.444C605.8 484.944 578.7 486.544 568.9 486.144C544 485.244 531.4 483.544 528.9 483.244C524.5 479.044 523.2 478.144 523.2 478.144H477.6C477.6 478.144 476.4 479.044 471.9 483.244C469.4 483.544 456.8 485.244 431.9 486.144C422.2 486.544 395 484.844 390.4 483.344C386.3 477.844 384.2 471.444 384.2 471.444C384.2 471.444 386.8 468.344 388.7 465.244C403 471.644 484.3 473.144 498.3 473.344C498.7 473.344 499 473.444 499.3 473.444H499.4C500 473.444 500.4 473.444 500.4 473.444C500.4 473.444 500.7 473.444 501.4 473.444H501.5C501.7 473.444 502.1 473.344 502.5 473.344C516.6 473.144 597.8 471.644 612.1 465.244C613.9 468.644 616.6 471.644 616.6 471.644Z" fill="white"/>
<path opacity="0.2" d="M657.6 333.044C657.4 333.844 657.1 334.744 656.9 335.844C644.5 387.344 656.9 483.344 656.9 483.344C658 493.644 662.1 503.644 665.7 503.944C667.8 477.444 672 377.944 657.6 333.044Z" fill="black"/>
<path opacity="0.2" d="M342.4 330.544C342.6 331.344 342.9 332.244 343.1 333.344C355.5 384.844 343.1 480.844 343.1 480.844C342 491.144 337.9 501.144 334.3 501.444C332.2 474.944 328 375.344 342.4 330.544Z" fill="black"/>
<path opacity="0.1" d="M356 560.445C356 560.445 394.2 599.645 397.5 657.545C399.8 697.745 396.5 701.745 402.5 706.245C418.5 718.445 523.3 678.745 527.9 658.945C532.5 639.145 414.7 569.445 384.1 557.145C353.5 544.845 352.4 542.345 356 560.445Z" fill="black"/>
<path opacity="0.1" d="M643.1 560.445C643.1 560.445 604.9 599.645 601.6 657.545C599.3 697.745 602.6 701.745 596.6 706.245C580.6 718.445 475.8 678.745 471.2 658.945C466.6 639.145 584.4 569.445 615 557.145C645.7 544.845 646.7 542.345 643.1 560.445Z" fill="black"/>
<path d="M664.3 505.044C662.2 517.944 659 528.944 655.3 538.244C655.2 538.344 655.2 538.544 655.1 538.644C649.4 552.744 642.6 562.644 636.9 568.844C635.1 570.844 633.3 572.444 631.7 573.644C611.8 588.944 592.8 628.144 595.3 671.244L572.5 691.544C572.5 691.544 554.8 668.744 554.8 663.644C558.6 643.344 575.7 618.044 597.2 594.544C618.7 571.044 633.3 536.844 638.4 521.644C638.4 521.644 643.8 497.544 640.9 463.344C640.9 463.344 637.7 454.744 635.5 445.944C635.6 445.744 635.8 445.644 635.9 445.544C633.8 424.144 635.7 400.244 638.3 380.344C638.5 378.844 638.7 377.444 638.9 376.044C640 368.244 641.1 361.244 642.1 355.344C643.2 348.844 645.4 336.244 645.8 333.744C645.8 333.644 645.9 333.544 645.9 333.344C645.9 333.244 645.9 333.244 645.9 333.244C645.9 333.244 644.1 385.144 648.6 445.544C651.2 480.444 659.2 482.244 664.3 505.044Z" fill="#DB6833" stroke="#171717" stroke-width="4" stroke-miterlimit="10" stroke-linecap="round" stroke-linejoin="round"/>
<path d="M598.2 678.644L572.9 701.444L552.6 673.544C552.6 673.544 545 698.844 542.5 716.644L572.9 736.944L600.8 709.044L598.2 678.644Z" fill="#DB6833" stroke="#171717" stroke-width="4" stroke-miterlimit="10" stroke-linecap="round" stroke-linejoin="round"/>
<path d="M641.1 463.344C641.1 463.344 638.6 481.044 633.5 496.244C627.9 500.444 594.7 504.844 582.8 503.844C552.4 501.344 537 496.444 534 495.544C528.6 483.944 527.1 481.044 527.1 481.044H500.4H499.2H472.5C472.5 481.044 471 483.944 465.6 495.544C462.5 496.444 447.2 501.344 416.8 503.844C404.9 504.844 371.7 500.444 366.1 496.244C361 481.044 358.5 463.344 358.5 463.344C355.6 497.544 361 521.644 361 521.644C366.1 536.844 380.6 571.044 402.2 594.544C423.8 618.044 440.8 643.344 444.6 663.644H499.2H500.4H555C558.8 643.344 575.9 618.044 597.4 594.544C618.9 571.144 633.5 536.844 638.6 521.644C638.6 521.544 644 497.544 641.1 463.344Z" fill="#E7A24E" stroke="#171717" stroke-width="2.3141" stroke-miterlimit="10" stroke-linecap="round" stroke-linejoin="round"/>
<path d="M500.4 663.545L555 662.745C558.8 642.445 575.9 617.545 597.4 594.045C618.9 570.645 633.5 536.545 638.6 521.345C638.6 521.345 644 497.345 641.1 463.145C641.1 463.145 638.6 480.945 633.5 496.145C631.5 497.645 616.4 500.945 609.3 502.245C608.7 509.545 604.9 528.945 600.7 538.545C585.5 572.945 573.8 571.045 542.6 627.845C532.9 645.545 529.1 663.045 500.4 663.545Z" fill="#E38F3E"/>
<path d="M335.2 505.044C337.3 517.944 340.5 528.944 344.2 538.244C344.3 538.344 344.3 538.544 344.4 538.644C350.1 552.744 356.9 562.644 362.6 568.844C364.4 570.844 366.2 572.444 367.8 573.644C387.7 588.944 406.7 628.144 404.2 671.244L427 691.544C427 691.544 444.7 668.744 444.7 663.644C440.9 643.344 423.8 618.044 402.3 594.544C380.8 571.144 366.2 536.844 361.1 521.644C361.1 521.644 355.7 497.544 358.6 463.344C358.6 463.344 361.8 454.744 364 445.944C363.9 445.744 363.7 445.644 363.6 445.544C365.7 424.144 363.8 400.244 361.2 380.344C361 378.844 360.8 377.444 360.6 376.044C359.5 368.244 358.4 361.244 357.4 355.344C356.3 348.844 354.1 336.244 353.7 333.744C353.7 333.644 353.6 333.544 353.6 333.344C353.6 333.244 353.6 333.244 353.6 333.244C353.6 333.244 355.4 385.144 350.9 445.544C348.3 480.444 340.3 482.244 335.2 505.044Z" fill="#DC8640" stroke="#171717" stroke-width="4" stroke-miterlimit="10" stroke-linecap="round" stroke-linejoin="round"/>
<path d="M353.2 402.145C355.6 421.545 357.3 444.545 355.3 465.145C355.4 465.245 355.6 465.345 355.7 465.545C353.5 474.245 357.6 522.045 357.6 522.045C362.7 537.245 359.5 550.345 389.9 593.445C407.2 617.945 430.8 658.845 435.6 679.545C440.1 673.145 444.6 666.045 444.6 663.545C440.8 643.245 423.7 617.945 402.2 594.445C380.7 570.945 366.1 536.745 361 521.545C361 521.545 355.6 497.445 358.5 463.245C358.5 463.245 361.7 454.645 363.9 445.845C363.8 445.645 363.6 445.545 363.5 445.445C365.6 424.045 363.7 400.145 361.1 380.245C360.9 378.745 360.7 377.345 360.5 375.945C359.4 368.145 358.3 361.145 357.3 355.245C356.2 348.745 354 336.145 353.6 333.645C353.6 333.545 353.5 333.445 353.5 333.245C353.5 333.145 353.5 333.145 353.5 333.145C353.5 333.145 354.6 362.245 353.2 402.145Z" fill="#D87A3A"/>
<path d="M401.6 678.644L426.9 701.444L447.2 673.544C447.2 673.544 454.8 698.844 457.3 716.644L426.9 736.944L399 709.044L401.6 678.644Z" fill="#DC9740" stroke="#171717" stroke-width="4" stroke-miterlimit="10" stroke-linecap="round" stroke-linejoin="round"/>
<path d="M500.4 673.645H447.2C447.2 673.645 454.8 698.945 457.3 716.745H482.6L487.7 706.645H500.4H513.1L518.2 716.745H543.5C546 699.045 553.6 673.645 553.6 673.645H500.4Z" fill="#E7A24E" stroke="#171717" stroke-width="2.3141" stroke-miterlimit="10" stroke-linecap="round" stroke-linejoin="round"/>
<path d="M543.5 716.745H518.2L513.1 706.645H500.4H487.7L482.6 716.745H457.3L426.9 737.044C426.9 737.044 429.8 740.445 439.6 752.245H500.4H561.2C571 740.445 573.9 737.044 573.9 737.044L543.5 716.745Z" fill="#B1171C" stroke="#171717" stroke-width="2.3141" stroke-miterlimit="10" stroke-linecap="round" stroke-linejoin="round"/>
<path opacity="0.4" d="M531.7 709.844H513L509.2 702.344H499.8H490.4L486.6 709.844H467.8L457.2 711.744C457.2 711.744 459.6 724.044 464 752.244H500.3H539C543.8 716.744 542.4 716.744 542.4 716.744L531.7 709.844Z" fill="white"/>
<path d="M542.5 716.744L531.8 709.844H523.6C522.4 719.644 521.9 745.544 515.7 752.144H539.2C543.9 716.744 542.5 716.744 542.5 716.744Z" fill="#C71A1F"/>
<path d="M500.4 673.645H447.2C447.2 673.645 454.8 698.945 457.3 716.745H482.6L487.7 706.645H500.4H513.1L518.2 716.745H543.5C546 699.045 553.6 673.645 553.6 673.645H500.4Z" fill="#E7A24E" stroke="#171717" stroke-width="4" stroke-miterlimit="10" stroke-linecap="round" stroke-linejoin="round"/>
<path d="M521.7 715.944H543.4C545.9 698.244 553.5 672.844 553.5 672.844H530.1C526.7 688.044 530.4 706.544 521.7 715.944Z" fill="#E38F3E"/>
<path d="M552.5 318.745L543.1 354.745C543.1 354.745 521.5 357.345 501.6 357.345H499.1C479.2 357.345 457.6 354.745 457.6 354.745L448.6 319.845C464.6 312.645 482.8 308.645 502 308.645C520.2 308.645 537.3 312.345 552.5 318.745Z" fill="#B1171C" stroke="#171717" stroke-width="4" stroke-miterlimit="10" stroke-linecap="round" stroke-linejoin="round"/>
<path opacity="0.4" d="M538.1 321.945L535.1 360.245C535.1 360.245 515.8 369.945 500.5 369.945L494.6 372.445C479.3 372.445 466.3 354.245 466.3 354.245L458.2 322.745C470.5 317.145 484.5 314.145 499.3 314.145C513.1 314.245 526.3 317.045 538.1 321.945Z" fill="white"/>
<path d="M647.3 333.344C647.3 333.544 647.2 333.644 647.2 333.744C647 334.944 646.8 336.144 646.6 337.344C644.6 349.144 642.2 362.244 640.2 376.044C640 377.444 639.8 378.944 639.6 380.444C636.7 401.744 634.9 424.344 637.2 445.644C637.1 445.744 636.9 445.844 636.8 446.044C631.8 451.144 620 455.044 605.4 458.144C569.1 465.744 515.2 467.944 502.9 468.344C502.4 468.344 502 468.444 501.7 468.444H501.5C500.7 468.544 500.3 468.544 500.3 468.544C500.3 468.544 499.9 468.544 499.1 468.444H498.9C498.6 468.444 498.2 468.444 497.7 468.344C485.9 467.944 435.2 465.844 399 458.844C382.6 455.644 369.2 451.544 363.8 445.944C363.7 445.744 363.5 445.644 363.4 445.544C365.8 424.244 364 401.644 361 380.344C360.8 378.844 360.6 377.444 360.4 375.944C358.4 362.144 356 349.044 354 337.244C353.8 336.044 353.6 334.844 353.4 333.644C353.4 333.544 353.3 333.444 353.3 333.244V333.144C368.7 321.444 386.1 311.944 404.9 305.244C416.8 301.044 429.3 297.944 442.2 296.044L448.3 319.844L457.3 354.944C457.3 354.944 478.9 357.744 498.8 357.944H501.3C521.2 357.844 542.8 354.944 542.8 354.944L552.2 318.544L558 296.044C570.9 297.944 583.4 301.044 595.3 305.244C614.5 312.144 631.9 321.644 647.3 333.344Z" fill="#E7A24E" stroke="#171717" stroke-width="4" stroke-miterlimit="10" stroke-linecap="round" stroke-linejoin="round"/>
<path d="M641.1 463.344C641.1 463.344 638.6 481.044 633.5 496.244C627.9 500.444 594.7 504.844 582.8 503.844C552.4 501.344 537 496.444 534 495.544C528.6 483.944 527.1 481.044 527.1 481.044H500.4H499.2H472.5C472.5 481.044 471 483.944 465.6 495.544C462.5 496.444 447.2 501.344 416.8 503.844C404.9 504.844 371.7 500.444 366.1 496.244C361 481.044 358.5 463.344 358.5 463.344C355.6 497.544 361 521.644 361 521.644C366.1 536.844 380.6 571.044 402.2 594.544C423.8 618.044 440.8 643.344 444.6 663.644H499.2H500.4H555C558.8 643.344 575.9 618.044 597.4 594.544C618.9 571.144 633.5 536.844 638.6 521.644C638.6 521.544 644 497.544 641.1 463.344Z" stroke="#171717" stroke-width="4" stroke-miterlimit="10" stroke-linecap="round" stroke-linejoin="round"/>
<g opacity="0.1">
<g opacity="0.1">
<g opacity="0.1">
<path opacity="0.1" d="M507.2 263.844C550.2 263.844 590.3 273.944 624.3 291.444C607.8 277.944 588.7 267.144 567.8 259.744C546.9 252.344 524.2 248.244 500.5 248.244C476.8 248.244 454.1 252.344 433.2 259.744C400.5 271.344 372.2 291.244 351.3 316.644C351.1 316.844 351 317.044 350.8 317.244C390.9 284.244 446.2 263.844 507.2 263.844Z" fill="black"/>
</g>
</g>
</g>
<path opacity="0.6" d="M452.2 627.844C455.1 635.044 455.1 635.044 455.1 635.044" stroke="white" stroke-width="4.6282" stroke-miterlimit="10" stroke-linecap="round" stroke-linejoin="round"/>
<path opacity="0.6" d="M384.1 525.244C384.1 525.244 390 548.344 420.7 581.544C428.3 589.744 441.2 607.244 446.1 616.844" stroke="white" stroke-width="4.6282" stroke-miterlimit="10" stroke-linecap="round" stroke-linejoin="round"/>
<path opacity="0.5" d="M372.7 358.645C376.9 375.445 382.8 402.045 381.5 417.745" stroke="white" stroke-width="4.6282" stroke-miterlimit="10" stroke-linecap="round" stroke-linejoin="round"/>
<path opacity="0.5" d="M368.6 343.444C368.6 343.444 368.8 344.644 370.1 349.444" stroke="white" stroke-width="4.6282" stroke-miterlimit="10" stroke-linecap="round" stroke-linejoin="round"/>
<path opacity="0.5" d="M558.6 345.944L557 352.744" stroke="white" stroke-width="4.6282" stroke-miterlimit="10" stroke-linecap="round" stroke-linejoin="round"/>
<path opacity="0.5" d="M567.6 314.244L562.2 335.844" stroke="white" stroke-width="4.6282" stroke-miterlimit="10" stroke-linecap="round" stroke-linejoin="round"/>
<path d="M543.5 716.745H518.2L513.1 706.645H500.4H487.7L482.6 716.745H457.3L426.9 737.044C426.9 737.044 429.8 740.445 439.6 752.245H500.4H561.2C571 740.445 573.9 737.044 573.9 737.044L543.5 716.745Z" stroke="#171717" stroke-width="4" stroke-miterlimit="10" stroke-linecap="round" stroke-linejoin="round"/>
<path d="M640.2 375.945C642.2 362.145 644.6 349.045 646.6 337.245C646.8 336.045 647 334.845 647.2 333.645C647.2 333.545 647.3 333.445 647.3 333.245V333.145C639.9 327.545 620.2 318.645 612 314.145C634 325.345 606.9 390.145 609.6 426.045C610.5 437.945 611.8 447.745 613.2 456.145C624.2 453.345 632.8 449.945 636.9 445.845C637 445.645 637.2 445.545 637.3 445.445C634.9 424.145 636.7 401.545 639.7 380.245C639.8 378.845 640 377.445 640.2 375.945Z" fill="#E38F3E"/>
<path opacity="0.6" d="M467.4 702.344C467.6 704.144 467.7 703.544 467.8 705.344" stroke="white" stroke-width="4.6282" stroke-miterlimit="10" stroke-linecap="round" stroke-linejoin="round"/>
<path opacity="0.6" d="M464.8 686.244C464.8 686.244 465.4 688.844 466.1 693.844" stroke="white" stroke-width="4.6282" stroke-miterlimit="10" stroke-linecap="round" stroke-linejoin="round"/>
<path d="M446 724.245L457.3 716.745C454.8 699.045 447.2 673.645 447.2 673.645L438.5 685.645C441.3 692.645 445.2 705.745 446 724.245Z" fill="#D87A3A"/>
<path opacity="0.1" d="M474.4 727.244L476 741.244H485.2" stroke="black" stroke-width="4.6282" stroke-miterlimit="10" stroke-linecap="round" stroke-linejoin="round"/>
<path opacity="0.1" d="M492.8 741.244H495.4" stroke="black" stroke-width="4.6282" stroke-miterlimit="10" stroke-linecap="round" stroke-linejoin="round"/>
<path opacity="0.2" d="M435.5 501.744L465.6 495.444L472.5 480.244H516.8C516.8 480.244 514.3 482.344 506.4 483.244C494.4 484.544 475.4 484.044 475.4 484.044C475.4 484.044 472 491.044 468.7 499.044C458.4 500.844 435.5 501.744 435.5 501.744Z" fill="black"/>
<path d="M649.6 316.644C628.7 291.244 600.4 271.444 567.7 259.744C546.8 252.344 524.1 248.244 500.4 248.244C476.7 248.244 454 252.344 433.1 259.744C400.4 271.344 372.1 291.244 351.2 316.644C327.1 345.744 332.9 476.544 335.2 504.944C336.9 517.144 340.1 528.344 344.2 538.144C344.3 538.244 344.3 538.444 344.4 538.544C349.6 550.944 356.2 561.244 362.6 568.744C365.5 596.244 366.1 638.144 368.7 666.044C378.8 683.744 383.9 692.844 399.1 709.144L405.6 715.644C411.1 721.144 417 727.044 423.2 733.244L427 737.044C427 737.044 427.3 737.344 428 738.244C428.4 738.644 428.7 739.044 429 739.444C430.5 741.144 432.9 744.044 436.6 748.544C437.6 749.744 438.7 751.044 439.7 752.344H500.5H561.3C562.3 751.044 563.4 749.844 564.4 748.544C568.1 744.144 570.5 741.244 572 739.444C572.3 739.044 572.7 738.644 573 738.244C573.7 737.444 574 737.044 574 737.044L577.8 733.244C584 727.044 589.8 721.144 595.4 715.644L601.9 709.144C617.1 692.844 622.2 683.844 632.3 666.044C634.8 638.144 635.5 596.244 638.4 568.744C644.8 561.244 651.4 551.044 656.6 538.544C656.7 538.444 656.7 538.344 656.8 538.144C660.9 528.344 664.1 517.144 665.8 504.944C667.9 476.644 673.7 345.844 649.6 316.644ZM634.7 496.244C629.1 500.444 595.9 504.844 584 503.844C553.6 501.344 538.2 496.444 535.2 495.544C529.8 483.944 528.3 481.044 528.3 481.044H500.4H472.5C472.5 481.044 471 483.944 465.6 495.544C462.5 496.444 447.2 501.344 416.8 503.844C404.9 504.844 371.7 500.444 366.1 496.244C361 481.044 358.5 463.344 358.5 463.344C358.5 463.344 361.7 454.744 363.9 445.944C381.3 463.644 480.7 467.744 497.8 468.244C498.3 468.244 498.7 468.344 499 468.344C499.1 468.344 499.1 468.344 499.2 468.344C500 468.444 500.4 468.444 500.4 468.444C500.4 468.444 500.8 468.444 501.6 468.344C501.7 468.344 501.7 468.344 501.8 468.344C502.1 468.344 502.5 468.344 503 468.244C520.2 467.644 619.5 463.644 636.9 445.944C639.1 454.644 642.3 463.344 642.3 463.344C642.3 463.344 639.8 481.044 634.7 496.244Z" stroke="#171717" stroke-width="4" stroke-miterlimit="10" stroke-linecap="round" stroke-linejoin="round"/>
</g>
<defs>
<clipPath id="clip0_9_4538">
<rect width="1000" height="1000" fill="white" transform="translate(0 0.244141)"/>
</clipPath>
</defs>
</svg>
