<svg width="1000" height="1000" viewBox="0 0 1000 1000" fill="none" xmlns="http://www.w3.org/2000/svg">
<path d="M1000 0H0V1000H1000V0Z" fill="#544C61"/>
<path d="M500 893.2C703.848 893.2 869.1 727.948 869.1 524.1C869.1 320.252 703.848 155 500 155C296.152 155 130.9 320.252 130.9 524.1C130.9 727.948 296.152 893.2 500 893.2Z" fill="#515362"/>
<path opacity="0.86" d="M500 808C655.744 808 782 680.849 782 524C782 367.151 655.744 240 500 240C344.256 240 218 367.151 218 524C218 680.849 344.256 808 500 808Z" fill="#4C6166"/>
<path opacity="0.61" d="M500 735.5C616.532 735.5 711 641.032 711 524.5C711 407.968 616.532 313.5 500 313.5C383.468 313.5 289 407.968 289 524.5C289 641.032 383.468 735.5 500 735.5Z" fill="url(#paint0_radial_9_4549)"/>
<path opacity="0.89" d="M500 673.8C582.456 673.8 649.3 606.956 649.3 524.5C649.3 442.044 582.456 375.2 500 375.2C417.544 375.2 350.7 442.044 350.7 524.5C350.7 606.956 417.544 673.8 500 673.8Z" fill="url(#paint1_radial_9_4549)"/>
<path d="M617.9 568.5L585.7 366.2C582.7 347.7 561.5 333.5 538.1 333.5H464C440.6 333.5 419.4 347.6 416.4 366.2L384.2 568.5C378.1 607.1 403.2 641.5 441.1 641.5H561C598.8 641.5 624 607.1 617.9 568.5ZM587.2 608.9C582.6 614.3 574.3 621.5 561 621.5H441C427.7 621.5 419.4 614 414.8 608.6C407 599.4 403.7 585.9 405.9 572.5L438.1 370.9C439 365.1 449.5 357.5 463.9 357.5H538C552.4 357.5 562.9 364.9 563.8 370.7L596 572.5C598.3 586 595 599.7 587.2 608.9Z" stroke="#323345" stroke-width="6" stroke-miterlimit="10" stroke-linecap="round" stroke-linejoin="round"/>
<path d="M617.9 568.5L585.7 366.2C582.7 347.7 561.5 333.5 538.1 333.5H464C440.6 333.5 419.4 347.6 416.4 366.2L384.2 568.5C378.1 607.1 403.2 641.5 441.1 641.5H561C598.8 641.5 624 607.1 617.9 568.5ZM587.2 608.9C582.6 614.3 574.3 621.5 561 621.5H441C427.7 621.5 419.4 614 414.8 608.6C407 599.4 403.7 585.9 405.9 572.5L438.1 370.9C439 365.1 449.5 357.5 463.9 357.5H538C552.4 357.5 562.9 364.9 563.8 370.7L596 572.5C598.3 586 595 599.7 587.2 608.9Z" fill="#1C6F45"/>
<path d="M617.9 568.5L585.7 366.2C582.7 347.7 561.5 333.5 538.1 333.5H464C440.6 333.5 419.4 347.6 416.4 366.2L384.2 568.5C378.1 607.1 403.2 641.5 441.1 641.5H561C598.8 641.5 624 607.1 617.9 568.5ZM587.2 608.9C582.6 614.3 574.3 621.5 561 621.5H441C427.7 621.5 419.4 614 414.8 608.6C407 599.4 403.7 585.9 405.9 572.5L438.1 370.9C439 365.1 449.5 357.5 463.9 357.5H538C552.4 357.5 562.9 364.9 563.8 370.7L596 572.5C598.3 586 595 599.7 587.2 608.9Z" fill="#1C6F45"/>
<path opacity="0.59" d="M405.9 572.5L429.8 423.2C423.5 418.3 416.7 414.1 409.3 410.9L384.2 568.6C382.7 578.1 383.1 587.4 385.1 596C392.5 595 399.5 593.1 406.2 590.5C405 584.7 404.9 578.6 405.9 572.5Z" fill="#C8A82F"/>
<path opacity="0.59" d="M596.1 572.5C596.9 577.7 596.9 583 596.2 588C602.8 591.1 609.8 593.5 617.1 595C618.9 586.7 619.3 577.8 617.8 568.6L593.1 413.6C585.8 417.4 579 422.2 572.9 427.7L596.1 572.5Z" fill="#C8A82F"/>
<path d="M561 641.5H441C403.2 641.5 378 607.1 384.1 568.5L416.3 366.2C419.3 347.7 440.5 333.5 463.9 333.5H538C561.4 333.5 582.6 347.6 585.6 366.2L617.8 568.5C624 607.1 598.8 641.5 561 641.5Z" stroke="#323345" stroke-width="6" stroke-miterlimit="10" stroke-linecap="round" stroke-linejoin="round"/>
<path d="M617.9 568.5L585.7 366.2C582.7 347.7 561.5 333.5 538.1 333.5H464C440.6 333.5 419.4 347.6 416.4 366.2L384.2 568.5C378.1 607.1 403.2 641.5 441.1 641.5H561C598.8 641.5 624 607.1 617.9 568.5ZM596.3 615.4C587.4 625.8 574.9 631.5 560.9 631.5H441C427 631.5 414.5 625.8 405.6 615.4C395.5 603.6 391.3 587 394 570.1L426.2 367.8C428.3 354.4 445.2 343.5 463.9 343.5H538C556.6 343.5 573.5 354.4 575.7 367.8L608 570.1C610.7 587.1 606.4 603.6 596.3 615.4Z" fill="#145B34"/>
<path d="M617.9 568.5L585.7 366.2C582.7 347.7 561.5 333.5 538.1 333.5H464C440.6 333.5 419.4 347.6 416.4 366.2L384.2 568.5C378.1 607.1 403.2 641.5 441.1 641.5H561C598.8 641.5 624 607.1 617.9 568.5Z" stroke="#323345" stroke-width="6" stroke-miterlimit="10" stroke-linecap="round" stroke-linejoin="round"/>
<path d="M529.7 423.2C509.5 423.2 489.3 423.2 469.2 423.2C453.3 441.5 439.3 465.7 433.1 494.6C425.8 527.4 430.7 564.1 446 592.4C451.7 603 463.8 609.9 475.8 609.9C492.1 609.9 508.5 609.9 524.8 609.9C537 609.9 549.4 602.8 554.9 592C568.9 564.5 574 528.2 564.5 490.1C557.6 461.3 544.3 438.6 529.7 423.2Z" fill="#DFC19F"/>
<path d="M500.4 581.5C531.88 581.5 557.4 555.98 557.4 524.5C557.4 493.02 531.88 467.5 500.4 467.5C468.92 467.5 443.4 493.02 443.4 524.5C443.4 555.98 468.92 581.5 500.4 581.5Z" fill="url(#paint2_radial_9_4549)"/>
<path d="M486.4 461.186C491.01 444.985 488.935 430.197 481.764 428.156C474.593 426.116 465.042 437.595 460.431 453.796C455.821 469.998 457.897 484.786 465.068 486.826C472.239 488.867 481.79 477.388 486.4 461.186Z" fill="#ECDBC9"/>
<path d="M529.7 424.2C509.5 424.2 489.3 424.2 469.2 424.2C453.3 442.5 439.3 466.3 433.1 495.1C425.8 527.9 430.7 564.9 446 593.2C451.7 603.8 463.8 610.9 475.8 610.9C492.1 610.9 508.5 610.9 524.8 610.9C537 610.9 549.4 603.3 554.9 592.5C568.9 565 574 528.9 564.5 490.9C557.6 462 544.3 439.6 529.7 424.2Z" stroke="#323345" stroke-width="4" stroke-miterlimit="10" stroke-linecap="round" stroke-linejoin="round"/>
<path d="M561 656.5H439V637C439 630.4 444.4 625 451 625H549C555.6 625 561 630.4 561 637V656.5Z" fill="#145B34"/>
<path d="M543.3 649.7H456.6V643.5C456.6 636.9 462 631.5 468.6 631.5H531.3C537.9 631.5 543.3 636.9 543.3 643.5V649.7Z" fill="#1B6E44"/>
<path opacity="0.59" d="M549 625H451C444.4 625 439 629.2 439 634.3V640.8C439 635.7 444.4 631.5 451 631.5H549C555.6 631.5 561 635.7 561 640.8V634.3C561 629.2 555.6 625 549 625Z" fill="#C8A82F"/>
<path d="M561 656.5H439V637C439 630.4 444.4 625 451 625H549C555.6 625 561 630.4 561 637V656.5Z" stroke="#323345" stroke-width="6" stroke-miterlimit="10" stroke-linecap="round" stroke-linejoin="round"/>
<path d="M590.8 684.5H408.8V680.5C408.8 667.2 419.6 656.5 432.8 656.5H566.7C580 656.5 590.7 667.3 590.7 680.5V684.5H590.8Z" fill="#1B6E44"/>
<path d="M409.4 675C409 676.8 408.8 678.6 408.8 680.5V684.5H590.8V680.5C590.8 678.6 590.6 676.7 590.2 675H409.4Z" fill="#145B34"/>
<path opacity="0.59" d="M566.8 656.5H432.8C419.5 656.5 408.8 667.3 408.8 680.5V684.5H409C410.3 672.5 420.5 663.2 432.9 663.2H566.8C579.2 663.2 589.3 672.5 590.7 684.5H590.9V680.5C590.8 667.3 580 656.5 566.8 656.5Z" fill="#C8A82F"/>
<path opacity="0.3" d="M753 1000H246.6L408.8 684.5H590.8L753 1000Z" fill="url(#paint3_linear_9_4549)"/>
<path opacity="0.3" d="M695 1000H304.6L408.8 684.5H590.8L695 1000Z" fill="url(#paint4_linear_9_4549)"/>
<path opacity="0.3" d="M627.6 1000H372L408.8 684.5H590.8L627.6 1000Z" fill="url(#paint5_linear_9_4549)"/>
<path d="M590.8 684.5H408.8V680.5C408.8 667.2 419.6 656.5 432.8 656.5H566.7C580 656.5 590.7 667.3 590.7 680.5V684.5H590.8Z" stroke="#323345" stroke-width="6" stroke-miterlimit="10" stroke-linecap="round" stroke-linejoin="round"/>
<path d="M544.3 433.3C514.3 433.3 484.3 433.3 454.3 433.3C455.2 426.8 459.4 419.8 465 413.3C487.9 413.3 510.8 413.3 533.7 413.3C539.3 419.8 543.4 426.8 544.3 433.3Z" fill="#145B34"/>
<path d="M509.3 433.3H489.3C481.5 433.3 476.2 425.5 478.9 418.2C479.5 416.6 480.2 414.9 480.9 413.3C498.2 413.3 500.2 413.3 517.5 413.3C518.2 414.9 518.9 416.5 519.5 418.2C522.5 425.4 517.1 433.3 509.3 433.3Z" fill="#1B6E44"/>
<path d="M549.5 379.5H448.5L457.6 370.8H540.4L549.5 379.5Z" fill="#145B34"/>
<path d="M544.3 433.3C514.3 433.3 484.3 433.3 454.3 433.3C455.2 426.8 459.4 419.8 465 413.3C487.9 413.3 510.8 413.3 533.7 413.3C539.3 419.8 543.4 426.8 544.3 433.3Z" stroke="#323345" stroke-width="6" stroke-miterlimit="10" stroke-linecap="round" stroke-linejoin="round"/>
<path d="M529.7 380.5H468.9L465.7 388.5C465.2 389.7 465 390.9 465 392.1V413.5H534V392.3C534 390.9 533.7 389.6 533.2 388.4L529.7 380.5Z" fill="#145B34"/>
<path d="M505.7 380.5H493.2C488.5 380.5 484.4 383.9 483.5 388.5C483.3 389.7 483.2 390.9 483.2 392.1V400.8C483.2 407.8 488.9 413.4 495.8 413.4H503C510 413.4 515.6 407.7 515.6 400.8V392.2C515.6 390.8 515.5 389.5 515.2 388.3C514.4 383.8 510.4 380.5 505.7 380.5Z" fill="#1B6E44"/>
<path d="M529.7 380.5H468.9L465.7 388.5C465.2 389.7 465 390.9 465 392.1V413.5H534V392.3C534 390.9 533.7 389.6 533.2 388.4L529.7 380.5Z" stroke="#323345" stroke-width="6" stroke-miterlimit="10" stroke-linecap="round" stroke-linejoin="round"/>
<path d="M549.5 379.5H448.5L457.6 370.8H540.4L549.5 379.5Z" stroke="#323345" stroke-width="6" stroke-miterlimit="10" stroke-linecap="round" stroke-linejoin="round"/>
<path d="M533.9 318.2H463.2L457.6 370.8H539.5L533.9 318.2Z" fill="#145B34"/>
<path d="M519.9 318.2H477.2L475.1 351.2C474.4 361.8 482.8 370.8 493.4 370.8H503.7C514.3 370.8 522.7 361.8 522 351.2L519.9 318.2Z" fill="#1B6E44"/>
<path d="M533.9 318.2H463.2L457.6 370.8H539.5L533.9 318.2Z" stroke="#323345" stroke-width="6" stroke-miterlimit="10" stroke-linecap="round" stroke-linejoin="round"/>
<path d="M530.8 310.5C524.9 310.5 519.2 308 515.2 303.6C511.2 299.2 505.4 296.5 499 296.5C492.6 296.5 486.8 299.2 482.8 303.6C478.8 308 473.1 310.5 467.2 310.5H453V318.5H545V310.5H530.8Z" fill="#145B34"/>
<path d="M530.8 310.5C524.9 310.5 519.2 308 515.2 303.6C511.2 299.2 505.4 296.5 499 296.5C492.6 296.5 486.8 299.2 482.8 303.6C478.8 308 473.1 310.5 467.2 310.5H453V318.5H545V310.5H530.8Z" stroke="#323345" stroke-width="6" stroke-miterlimit="10" stroke-linecap="round" stroke-linejoin="round"/>
<path d="M482.7 401.1C485.351 401.1 487.5 398.951 487.5 396.3C487.5 393.649 485.351 391.5 482.7 391.5C480.049 391.5 477.9 393.649 477.9 396.3C477.9 398.951 480.049 401.1 482.7 401.1Z" fill="#323345"/>
<path d="M499.2 401.1C501.851 401.1 504 398.951 504 396.3C504 393.649 501.851 391.5 499.2 391.5C496.549 391.5 494.4 393.649 494.4 396.3C494.4 398.951 496.549 401.1 499.2 401.1Z" fill="#323345"/>
<path d="M515.7 401.1C518.351 401.1 520.5 398.951 520.5 396.3C520.5 393.649 518.351 391.5 515.7 391.5C513.049 391.5 510.9 393.649 510.9 396.3C510.9 398.951 513.049 401.1 515.7 401.1Z" fill="#323345"/>
<path d="M503.5 512C501.9 516.4 499.1 522.8 494 529.5C485.4 540.8 479.4 541.1 476 549C472.1 558.1 473.9 572.5 483.9 580.8C494.2 589.3 508.2 587.3 517 582.5C533.2 573.5 533.5 553.5 533.5 551.5C533.5 534.9 521.6 519.2 503.5 512Z" fill="#FBAF41"/>
<path d="M506.5 524C504.4 527.9 501 533.5 495.5 539C487 547.5 481.9 547.3 478.5 553.5C474.3 561.1 475.1 573.8 483.1 581.3C492.2 589.7 505.6 587.1 513.3 582.8C528.6 574.3 528.4 555.3 528.4 554.5C528 541.5 519.4 529.6 506.5 524Z" fill="#CC8127"/>
<path d="M503.5 512C501.9 516.4 499.1 522.8 494 529.5C485.4 540.8 479.4 541.1 476 549C472.1 558.1 473.9 572.5 483.9 580.8C494.2 589.3 508.2 587.3 517 582.5C533.2 573.5 533.5 553.5 533.5 551.5C533.5 534.9 521.6 519.2 503.5 512Z" stroke="#323345" stroke-width="4" stroke-miterlimit="10" stroke-linecap="round" stroke-linejoin="round"/>
<path d="M525.8 609.5C521.9 588.5 511.6 573.9 499.6 573.9C487.5 573.9 477.3 588.5 473.4 609.5H525.8Z" fill="#1B6E44"/>
<path d="M499.6 582.5C509.6 582.5 518.5 590 524.1 601.9C519.3 585.1 510.2 574 499.6 574C489.1 574 479.9 585.1 475.1 601.9C480.7 590 489.6 582.5 499.6 582.5Z" fill="#C8A82F"/>
<path d="M525.8 609.5C521.9 588.5 511.6 573.9 499.6 573.9C487.5 573.9 477.3 588.5 473.4 609.5H525.8Z" stroke="#323345" stroke-width="4" stroke-miterlimit="10" stroke-linecap="round" stroke-linejoin="round"/>
<path d="M532 600.7H468V609.9H532V600.7Z" fill="#145B34"/>
<path d="M532 600.7H468V609.9H532V600.7Z" stroke="#323345" stroke-width="4" stroke-miterlimit="10" stroke-linecap="round" stroke-linejoin="round"/>
<path d="M584.5 363.5C590.023 363.5 594.5 359.023 594.5 353.5C594.5 347.977 590.023 343.5 584.5 343.5C578.977 343.5 574.5 347.977 574.5 353.5C574.5 359.023 578.977 363.5 584.5 363.5Z" fill="#323345"/>
<path d="M417.5 363.5C423.023 363.5 427.5 359.023 427.5 353.5C427.5 347.977 423.023 343.5 417.5 343.5C411.977 343.5 407.5 347.977 407.5 353.5C407.5 359.023 411.977 363.5 417.5 363.5Z" fill="#323345"/>
<path d="M577.3 367.8L579.7 351.9C579.8 351.9 579.9 351.9 580.1 351.9C589.6 351.9 597.3 344.3 597.3 334.9C597.3 327.1 592 320.6 584.9 318.6L599.8 220.6C604.5 189.9 580.5 162.2 549.1 162.2H499H448.9C417.5 162.2 393.5 189.8 398.2 220.6L413.1 318.6C406.2 320 400.7 327.2 400.7 334.9C400.7 344.3 408.4 351.9 417.9 351.9C418 351.9 418.1 351.9 418.3 351.9L420.7 367.8" stroke="#323345" stroke-width="8" stroke-miterlimit="10" stroke-linecap="round" stroke-linejoin="round"/>
<path d="M512.7 170H484.4C481.6 170 479.3 167.7 479.3 164.9V157.7C479.3 154.9 481.6 152.6 484.4 152.6H512.7C515.5 152.6 517.8 154.9 517.8 157.7V164.9C517.8 167.7 515.5 170 512.7 170Z" fill="#323345"/>
<path d="M545.8 625H454.2L468.1 608H532L545.8 625Z" fill="#1B6E44"/>
<path opacity="0.59" d="M464.6 612.3C473 617 485.8 620 500.1 620C514.4 620 527.2 617 535.6 612.3L532 608H468.1L464.6 612.3Z" fill="#C8A82F"/>
<path d="M545.8 625H454.2L468.1 608H532L545.8 625Z" stroke="#323345" stroke-width="4" stroke-miterlimit="10" stroke-linecap="round" stroke-linejoin="round"/>
<path d="M596.3 615.4C587.4 625.8 574.9 631.5 560.9 631.5H441C427 631.5 414.5 625.8 405.6 615.4C395.5 603.6 391.3 587 394 570.1L426.2 367.8C428.3 354.4 445.2 343.5 463.9 343.5H538C556.6 343.5 573.5 354.4 575.7 367.8L608 570.1C610.7 587.1 606.4 603.6 596.3 615.4Z" stroke="#323345" stroke-width="4" stroke-miterlimit="10" stroke-linecap="round" stroke-linejoin="round"/>
<path d="M512.1 317.5H483.6C483.1 317.5 482.6 317.1 482.6 316.5C482.6 311.5 486.6 307.5 491.6 307.5H504.1C509.1 307.5 513.1 311.5 513.1 316.5C513.1 317.1 512.7 317.5 512.1 317.5Z" fill="#323345"/>
<path d="M503.4 541.5C503.7 543.4 503.9 545.9 503.6 548.7C503.4 551.8 502.7 554.5 502 556.5C501 552.2 498.2 548.4 497.8 548.6C497.8 548.6 497.8 548.6 497.8 548.7C497.6 549.6 492.9 555.5 492 556.8C489.6 560.4 489.1 568.1 493.3 572.1C496.9 575.5 502.9 575.3 506.9 573.3C513.6 569.9 514.9 561 513.8 555.1C512.1 546.5 504.7 542.2 503.4 541.5Z" fill="#FBAF41"/>
<path d="M503.4 541.5C503.7 543.4 503.9 545.9 503.6 548.7C503.4 551.8 502.7 554.5 502 556.5C501 552.2 498.2 548.4 497.8 548.6C497.8 548.6 497.8 548.6 497.8 548.7C497.6 549.6 492.9 555.5 492 556.8C489.6 560.4 489.1 568.1 493.3 572.1C496.9 575.5 502.9 575.3 506.9 573.3C513.6 569.9 514.9 561 513.8 555.1C512.1 546.5 504.7 542.2 503.4 541.5Z" stroke="#323345" stroke-width="4" stroke-miterlimit="10" stroke-linecap="round" stroke-linejoin="round"/>
<defs>
<radialGradient id="paint0_radial_9_4549" cx="0" cy="0" r="1" gradientUnits="userSpaceOnUse" gradientTransform="translate(500 524.5) scale(534.307)">
<stop stop-color="#F29543"/>
<stop offset="0.1095" stop-color="#F09543" stop-opacity="0.8014"/>
<stop offset="0.1711" stop-color="#E79645" stop-opacity="0.6898"/>
<stop offset="0.2208" stop-color="#DA9747" stop-opacity="0.5997"/>
<stop offset="0.2641" stop-color="#C6994A" stop-opacity="0.5211"/>
<stop offset="0.3033" stop-color="#AC9B4E" stop-opacity="0.45"/>
<stop offset="0.3396" stop-color="#8D9E53" stop-opacity="0.3844"/>
<stop offset="0.3735" stop-color="#68A259" stop-opacity="0.3228"/>
<stop offset="0.4057" stop-color="#3CA661" stop-opacity="0.2645"/>
<stop offset="0.4353" stop-color="#0DAA68" stop-opacity="0.2108"/>
<stop offset="0.4413" stop-color="#02AB6A" stop-opacity="0.2"/>
</radialGradient>
<radialGradient id="paint1_radial_9_4549" cx="0" cy="0" r="1" gradientUnits="userSpaceOnUse" gradientTransform="translate(500 524.5) scale(149.3)">
<stop stop-color="#F29543"/>
<stop offset="0.1302" stop-color="#EB9847" stop-opacity="0.8637"/>
<stop offset="0.3179" stop-color="#D8A151" stop-opacity="0.667"/>
<stop offset="0.5405" stop-color="#B9AF61" stop-opacity="0.4339"/>
<stop offset="0.7638" stop-color="#92C176" stop-opacity="0.2"/>
</radialGradient>
<radialGradient id="paint2_radial_9_4549" cx="0" cy="0" r="1" gradientUnits="userSpaceOnUse" gradientTransform="translate(500.4 524.5) scale(57)">
<stop offset="0.1237" stop-color="#F2CA91"/>
<stop offset="1" stop-color="#F2CA91" stop-opacity="0.3"/>
</radialGradient>
<linearGradient id="paint3_linear_9_4549" x1="499.8" y1="684.5" x2="499.8" y2="1000" gradientUnits="userSpaceOnUse">
<stop stop-color="#292E42" stop-opacity="0.7"/>
<stop offset="1" stop-color="#151721" stop-opacity="0"/>
</linearGradient>
<linearGradient id="paint4_linear_9_4549" x1="499.8" y1="684.5" x2="499.8" y2="1000" gradientUnits="userSpaceOnUse">
<stop stop-color="#292E42" stop-opacity="0.7"/>
<stop offset="1" stop-color="#151721" stop-opacity="0"/>
</linearGradient>
<linearGradient id="paint5_linear_9_4549" x1="499.8" y1="684.5" x2="499.8" y2="1000" gradientUnits="userSpaceOnUse">
<stop stop-color="#292E42" stop-opacity="0.7"/>
<stop offset="1" stop-color="#151721" stop-opacity="0"/>
</linearGradient>
</defs>
</svg>
