<svg xmlns="http://www.w3.org/2000/svg" width="414" height="896" viewBox="0 0 414 896"><g transform="translate(-9774 -1662)"><g transform="translate(2073 2586)"><path d="M305,180a3.25,3.25,0,0,1,6,0" transform="translate(7717 -1070)" fill="none" stroke="#000" stroke-linecap="round" stroke-linejoin="round" stroke-width="1"/><g transform="translate(7717 -1070)"><path d="M303,178s.833-3,5-3,5,3,5,3" fill="none" stroke="#000" stroke-linecap="round" stroke-linejoin="round" stroke-width="1"/></g><g transform="translate(7717 -1070)"><path d="M301,176s1.167-4,7-4,7,4,7,4" fill="none" stroke="#000" stroke-linecap="round" stroke-linejoin="round" stroke-width="1"/></g><g transform="translate(7717 -1070)"><circle cx="2" cy="2" r="2" transform="translate(306 181)" fill="none" stroke="#000" stroke-linejoin="round" stroke-width="1"/></g></g><g transform="translate(85 1323.716)"><path d="M10028.479,357.3v15.2" transform="translate(7 4.98)" fill="none" stroke="#191414" stroke-width="1"/><path d="M10028.479,357.3v11.735" transform="translate(10 8.446)" fill="none" stroke="#191414" stroke-width="1"/><path d="M10028.479,357.3v8.61" transform="translate(13 11.571)" fill="none" stroke="#191414" stroke-width="1"/><path d="M10028.479,357.3v6.215" transform="translate(16 13.966)" fill="none" stroke="#191414" stroke-width="1"/></g><g transform="translate(9774 1662)"><g transform="translate(369 28)" fill="none" stroke="#191414" stroke-width="1"><rect width="28" height="11" stroke="none"/><rect x="0.5" y="0.5" width="27" height="10" fill="none"/></g><rect width="23" height="7" transform="translate(371 30)" fill="#191414"/><g transform="translate(397 30)" fill="#191414" stroke="#191414" stroke-width="1"><rect width="6" height="7" stroke="none"/><rect x="0.5" y="0.5" width="5" height="6" fill="none"/></g></g><g transform="translate(9774 1662)" fill="none" stroke="#191414" stroke-width="5"><rect width="414" height="896" rx="20" stroke="none"/><rect x="2.5" y="2.5" width="409" height="891" rx="17.5" fill="none"/></g><g transform="translate(9943 2460)" fill="none" stroke="#191414" stroke-width="3"><circle cx="38.5" cy="38.5" r="38.5" stroke="none"/><circle cx="38.5" cy="38.5" r="37" fill="none"/></g><g transform="translate(9952 2469)" fill="none" stroke="#191414" stroke-width="3"><circle cx="29.5" cy="29.5" r="29.5" stroke="none"/><circle cx="29.5" cy="29.5" r="28" fill="none"/></g></g></svg>